<?xml version="1.0" encoding="UTF-8"?>
<svg version="1.1" xmlns="http://www.w3.org/2000/svg" width="500" height="500">
<path d="M0 0 C165 0 330 0 500 0 C500 165 500 330 500 500 C335 500 170 500 0 500 C0 335 0 170 0 0 Z " fill="#F9FEFE" transform="translate(0,0)"/>
<path d="M0 0 C0 3.63 0 7.26 0 11 C2.35125 11.061875 2.35125 11.061875 4.75 11.125 C15.52269379 12.13580546 24.87429264 18.01356364 32 26 C37.77177267 34.01841966 40.40709819 41.28560193 40.4375 51.125 C40.44221313 52.38098999 40.44221313 52.38098999 40.44702148 53.66235352 C40.30696233 60.97569365 38.29690367 66.50347834 35 73 C34.01916505 74.83621034 34.01916505 74.83621034 34 77 C35.81937917 79.43297343 35.81937917 79.43297343 38.4609375 81.7734375 C39.40710938 82.6809375 40.35328125 83.5884375 41.328125 84.5234375 C42.8482992 85.95043973 44.37268428 87.37284025 45.89746094 88.79492188 C47.36622391 90.17290249 48.82002913 91.56677132 50.2734375 92.9609375 C51.15435059 93.78384277 52.03526367 94.60674805 52.94287109 95.45458984 C55.33676357 98.41669795 55.89513574 100.21523662 56 104 C54 107 54 107 51.375 107.625 C46.17637277 106.66229125 43.68314357 103.66632556 40 100 C39.39784668 99.40477539 38.79569336 98.80955078 38.17529297 98.19628906 C33.75581633 93.82481543 29.36771065 89.4231601 25 85 C22.29650217 86.05413697 19.7518943 87.13232304 17.1875 88.5 C11.29217876 91.27426882 6.55570749 92 0 92 C0 98.93 0 105.86 0 113 C-5.147857 111.28404767 -8.34277079 109.58353832 -12.4375 106.3125 C-13.29444458 105.63658813 -13.29444458 105.63658813 -14.16870117 104.94702148 C-22.20381487 98.53014604 -28.22808933 91.53785598 -34 83 C-34.59941406 82.12988281 -35.19882813 81.25976562 -35.81640625 80.36328125 C-44.50813986 66.73262071 -48.99354417 49.93261957 -51 34 C-51.17273438 32.80246094 -51.34546875 31.60492188 -51.5234375 30.37109375 C-52.1883002 22.47360304 -52.1883002 22.47360304 -49.32421875 18.921875 C-46.66374047 16.93657692 -43.96845691 15.48783972 -41 14 C-39.82355476 13.34204481 -38.64915942 12.68041437 -37.4765625 12.015625 C-26.31277507 5.88340374 -12.87484884 0 0 0 Z " fill="#10C5B9" transform="translate(250,148)"/>
<path d="M0 0 C3.25023865 2.64675867 5.79042616 5.41288356 7.671875 9.17578125 C9.81126568 34.29601912 5.15132904 58.70075044 -8.328125 80.17578125 C-12.14496726 78.62077144 -14.52008232 76.1398263 -17.328125 73.17578125 C-16.28478006 69.84330637 -15.12236361 66.62277675 -13.70703125 63.43359375 C-9.41803478 53.73111843 -6.81732179 44.69180165 -5.328125 34.17578125 C-5.16054688 33.01949219 -4.99296875 31.86320312 -4.8203125 30.671875 C-4.65789062 29.51816406 -4.49546875 28.36445313 -4.328125 27.17578125 C-4.121875 25.98339844 -3.915625 24.79101562 -3.703125 23.5625 C-2.90454351 16.73825096 -2.90454351 16.73825096 -5.53076172 10.62744141 C-9.58926902 6.94384208 -14.41207639 4.5172778 -19.328125 2.17578125 C-20.01213379 1.84642578 -20.69614258 1.51707031 -21.40087891 1.17773438 C-26.27883485 -1.10541514 -31.25460376 -3.02379699 -36.328125 -4.82421875 C-37.13427246 -5.11345215 -37.94041992 -5.40268555 -38.77099609 -5.70068359 C-41.26122507 -6.5802443 -43.75978311 -7.42776029 -46.265625 -8.26171875 C-47.02198242 -8.52114258 -47.77833984 -8.78056641 -48.55761719 -9.04785156 C-57.78833272 -11.97958166 -65.83745709 -11.18811733 -74.953125 -8.26171875 C-75.81486328 -7.99214355 -76.67660156 -7.72256836 -77.56445312 -7.44482422 C-89.65825118 -3.55561942 -100.60822416 1.16901072 -110.97265625 8.57421875 C-113.328125 10.17578125 -113.328125 10.17578125 -116.328125 11.17578125 C-117.40187018 42.95068485 -107.37227056 71.60205278 -86.26953125 95.5078125 C-81.49905575 100.5278501 -76.14261541 104.44368973 -70.328125 108.17578125 C-69.52761719 108.70945312 -68.72710937 109.243125 -67.90234375 109.79296875 C-67.13535156 110.26992188 -66.36835938 110.746875 -65.578125 111.23828125 C-64.90265625 111.66238281 -64.2271875 112.08648437 -63.53125 112.5234375 C-59.51059788 113.71394974 -56.31188007 111.68858975 -52.7578125 109.8359375 C-46.64854637 106.01531082 -41.41669567 101.77466913 -36.30029297 96.73266602 C-32.6308761 93.17578125 -32.6308761 93.17578125 -29.328125 93.17578125 C-27.72265625 94.48828125 -27.72265625 94.48828125 -26.140625 96.17578125 C-25.34591797 97.01109375 -25.34591797 97.01109375 -24.53515625 97.86328125 C-24.13683594 98.29640625 -23.73851562 98.72953125 -23.328125 99.17578125 C-27.26742022 111.16129648 -43.2743997 118.99640772 -53.828125 124.73828125 C-58.81377297 126.7859581 -61.79492268 126.8073023 -66.80859375 124.7421875 C-68.0533755 124.09134304 -69.28883078 123.42242746 -70.515625 122.73828125 C-71.17344971 122.37702148 -71.83127441 122.01576172 -72.5090332 121.64355469 C-78.70232 118.1381197 -84.08887143 113.99497805 -89.328125 109.17578125 C-89.8137793 108.73250488 -90.29943359 108.28922852 -90.79980469 107.83251953 C-113.83834909 86.57698386 -127.2203087 56.65224162 -128.6484375 25.3515625 C-128.69804335 23.37653874 -128.73726151 21.40122426 -128.765625 19.42578125 C-128.78794189 18.49693115 -128.81025879 17.56808105 -128.83325195 16.61108398 C-128.8141098 10.95380068 -128.1924628 7.59029595 -124.328125 3.17578125 C-111.8316484 -8.24172171 -96.27213031 -14.83716686 -80.328125 -19.82421875 C-79.27882812 -20.16582031 -78.22953125 -20.50742188 -77.1484375 -20.859375 C-50.27917202 -28.68714204 -21.84281055 -15.16245859 0 0 Z " fill="#040505" transform="translate(310.328125,153.82421875)"/>
<path d="M0 0 C7.25712469 4.15111439 12.51505465 10.38179714 15.0625 18.40625 C16.75560044 26.75081647 15.6686496 34.14746841 11.5 41.5625 C6.76265902 48.50660235 1.35866047 51.94294651 -6.5 54.5625 C-15.76028854 55.34822145 -23.78833117 55.31119858 -31.5 49.5625 C-38.29843629 43.76151768 -41.51100051 36.56529693 -42.94921875 27.8359375 C-43.49539271 19.41272132 -40.29623843 11.97817127 -34.82421875 5.61328125 C-33.12962977 4.06672533 -31.4237046 2.80919268 -29.5 1.5625 C-28.94054687 1.15257812 -28.38109375 0.74265625 -27.8046875 0.3203125 C-19.57643873 -4.84460556 -8.53469818 -3.84919177 0 0 Z " fill="#F7FEFE" transform="translate(263.5,173.4375)"/>
<path d="M0 0 C1.23556641 0.01740234 1.23556641 0.01740234 2.49609375 0.03515625 C3.32238281 0.04417969 4.14867187 0.05320312 5 0.0625 C5.63808594 0.07410156 6.27617187 0.08570313 6.93359375 0.09765625 C7.02065661 4.5141988 7.07400753 8.93052082 7.12109375 13.34765625 C7.14623047 14.60191406 7.17136719 15.85617187 7.19726562 17.1484375 C7.20693359 18.35371094 7.21660156 19.55898438 7.2265625 20.80078125 C7.24227295 21.91098633 7.2579834 23.02119141 7.27416992 24.16503906 C6.89294583 27.44766541 6.25195286 28.77963623 3.93359375 31.09765625 C0.37314198 32.28447351 -2.50448962 32.19455457 -6.25390625 32.16015625 C-7.52621094 32.15113281 -8.79851562 32.14210938 -10.109375 32.1328125 C-11.57310547 32.11541016 -11.57310547 32.11541016 -13.06640625 32.09765625 C-13.06640625 29.78765625 -13.06640625 27.47765625 -13.06640625 25.09765625 C-9.43640625 25.09765625 -5.80640625 25.09765625 -2.06640625 25.09765625 C-2.39640625 24.43765625 -2.72640625 23.77765625 -3.06640625 23.09765625 C-4.00613281 23.14986328 -4.00613281 23.14986328 -4.96484375 23.203125 C-5.78210938 23.23019531 -6.599375 23.25726563 -7.44140625 23.28515625 C-8.25351562 23.31996094 -9.065625 23.35476563 -9.90234375 23.390625 C-10.61648438 23.29394531 -11.330625 23.19726562 -12.06640625 23.09765625 C-14.5575255 19.36097738 -14.36254102 16.41894649 -14.31640625 12.09765625 C-14.32414062 11.37320312 -14.331875 10.64875 -14.33984375 9.90234375 C-14.32582688 6.10377132 -14.22082569 4.32928541 -12.06640625 1.09765625 C-9.9375 0.83984375 -9.9375 0.83984375 -7.50390625 0.97265625 C-6.02585458 1.04360273 -4.54614832 1.0918647 -3.06640625 1.09765625 C-2.06640625 0.09765625 -2.06640625 0.09765625 0 0 Z " fill="#1FC5E1" transform="translate(303.06640625,301.90234375)"/>
<path d="M0 0 C1.68609375 -0.02900391 1.68609375 -0.02900391 3.40625 -0.05859375 C7.1103123 0.53536574 8.29151954 1.45176307 10.5 4.4375 C10.75 7.6875 10.75 7.6875 10.5 10.4375 C7.53 10.4375 4.56 10.4375 1.5 10.4375 C1.5 9.4475 1.5 8.4575 1.5 7.4375 C0.18 7.4375 -1.14 7.4375 -2.5 7.4375 C-2.5 9.4175 -2.5 11.3975 -2.5 13.4375 C-1.59507812 13.38529297 -1.59507812 13.38529297 -0.671875 13.33203125 C0.12734375 13.30496094 0.9265625 13.27789062 1.75 13.25 C2.53890625 13.21519531 3.3278125 13.18039062 4.140625 13.14453125 C7.18900134 13.5230548 8.42112951 14.16666174 10.5 16.4375 C11.03125 19.46875 11.03125 19.46875 11 22.9375 C11.0103125 24.0821875 11.020625 25.226875 11.03125 26.40625 C10.5 29.4375 10.5 29.4375 8.91015625 31.3203125 C5.65015763 32.83143018 3.02069993 32.83510694 -0.5625 32.8125 C-1.79097656 32.82023437 -3.01945312 32.82796875 -4.28515625 32.8359375 C-7.5 32.4375 -7.5 32.4375 -9.421875 31.14453125 C-11.17519639 28.36843905 -10.68024549 25.62183693 -10.5 22.4375 C-7.53 22.4375 -4.56 22.4375 -1.5 22.4375 C-1.5 23.7575 -1.5 25.0775 -1.5 26.4375 C-0.51 26.4375 0.48 26.4375 1.5 26.4375 C1.5 24.1275 1.5 21.8175 1.5 19.4375 C0.45199219 19.47230469 0.45199219 19.47230469 -0.6171875 19.5078125 C-1.52726562 19.52585937 -2.43734375 19.54390625 -3.375 19.5625 C-4.27992188 19.58570313 -5.18484375 19.60890625 -6.1171875 19.6328125 C-8.5 19.4375 -8.5 19.4375 -10.5 17.4375 C-10.8359375 14.28515625 -10.8359375 14.28515625 -10.875 10.5 C-10.90335938 9.25347656 -10.93171875 8.00695312 -10.9609375 6.72265625 C-10.5 3.4375 -10.5 3.4375 -8.8828125 1.5234375 C-5.79911776 0.11808154 -3.38434026 0.00388112 0 0 Z " fill="#15C2E0" transform="translate(263.5,294.5625)"/>
<path d="M0 0 C1.1240625 0.00128906 2.248125 0.00257813 3.40625 0.00390625 C6.74227205 0.47145479 8.19732851 1.00069231 10.5 3.4375 C10.75 7.125 10.75 7.125 10.5 10.4375 C7.86 10.4375 5.22 10.4375 2.5 10.4375 C2.5 9.4475 2.5 8.4575 2.5 7.4375 C1.18 7.4375 -0.14 7.4375 -1.5 7.4375 C-1.5 9.4175 -1.5 11.3975 -1.5 13.4375 C-0.2625 13.375625 0.975 13.31375 2.25 13.25 C4.92117408 13.1164413 6.32394676 13.35115737 8.74609375 14.5390625 C11.29485079 17.29785075 10.931993 19.31219869 10.8125 23 C10.78800781 24.15628906 10.76351562 25.31257813 10.73828125 26.50390625 C10.5 29.4375 10.5 29.4375 9.5 31.4375 C6.19216735 32.54011088 3.54440731 32.67490779 0.0625 32.75 C-1.63712891 32.80607422 -1.63712891 32.80607422 -3.37109375 32.86328125 C-6.5 32.4375 -6.5 32.4375 -8.89453125 30.62109375 C-10.98854452 27.7730319 -10.81387952 25.89017474 -10.5 22.4375 C-7.53 22.4375 -4.56 22.4375 -1.5 22.4375 C-1.5 23.7575 -1.5 25.0775 -1.5 26.4375 C-0.18 26.4375 1.14 26.4375 2.5 26.4375 C2.5 24.1275 2.5 21.8175 2.5 19.4375 C1.46939453 19.48970703 1.46939453 19.48970703 0.41796875 19.54296875 C-0.48308594 19.57003906 -1.38414062 19.59710938 -2.3125 19.625 C-3.65248047 19.67720703 -3.65248047 19.67720703 -5.01953125 19.73046875 C-7.5 19.4375 -7.5 19.4375 -9.296875 18.296875 C-11.00461782 15.65763609 -10.93364065 13.62221605 -10.9375 10.5 C-10.95683594 9.45972656 -10.97617188 8.41945313 -10.99609375 7.34765625 C-10.5 4.4375 -10.5 4.4375 -8.87890625 2.0859375 C-5.76330622 -0.07298403 -3.76469427 -0.06475965 0 0 Z " fill="#0A0A0A" transform="translate(176.5,294.5625)"/>
<path d="M0 0 C2.97 0 5.94 0 9 0 C9 8.25 9 16.5 9 25 C6.256875 25.04125 3.51375 25.0825 0.6875 25.125 C-0.60281128 25.15231201 -0.60281128 25.15231201 -1.91918945 25.18017578 C-2.94338989 25.18766846 -2.94338989 25.18766846 -3.98828125 25.1953125 C-4.68477783 25.20578613 -5.38127441 25.21625977 -6.09887695 25.22705078 C-8 25 -8 25 -11 23 C-11.37231445 20.96875 -11.37231445 20.96875 -11.36328125 18.5 C-11.36263672 17.613125 -11.36199219 16.72625 -11.36132812 15.8125 C-11.34521484 14.884375 -11.32910156 13.95625 -11.3125 13 C-11.31733398 11.6078125 -11.31733398 11.6078125 -11.32226562 10.1875 C-11.26694139 3.26694139 -11.26694139 3.26694139 -9 1 C-7.08984375 0.83984375 -7.08984375 0.83984375 -4.9375 0.9375 C-3.638125 0.958125 -2.33875 0.97875 -1 1 C-0.67 0.67 -0.34 0.34 0 0 Z " fill="#0C0D0D" transform="translate(202,302)"/>
<path d="M0 0 C0.92941406 0.01289063 1.85882813 0.02578125 2.81640625 0.0390625 C5.48817899 0.38149537 7.17768653 0.92994921 9.4375 2.375 C11.36322521 6.22645043 10.48633218 11.17543252 10.4375 15.375 C6.4775 15.375 2.5175 15.375 -1.5625 15.375 C-1.5625 16.695 -1.5625 18.015 -1.5625 19.375 C-0.2425 19.375 1.0775 19.375 2.4375 19.375 C2.4375 18.715 2.4375 18.055 2.4375 17.375 C5.0775 17.375 7.7175 17.375 10.4375 17.375 C9.6875 23.125 9.6875 23.125 7.4375 25.375 C4.3203125 25.7109375 4.3203125 25.7109375 0.5625 25.75 C-0.67242187 25.77835937 -1.90734375 25.80671875 -3.1796875 25.8359375 C-6.5625 25.375 -6.5625 25.375 -8.97265625 23.8828125 C-11.28304826 20.23841037 -11.1860917 17.10829535 -11.125 12.875 C-11.14884766 12.11574219 -11.17269531 11.35648437 -11.19726562 10.57421875 C-11.186848 6.60857523 -11.05391447 4.93837159 -8.375 1.8671875 C-5.27383423 0.22184677 -3.48372844 -0.10659531 0 0 Z " fill="#171717" transform="translate(239.5625,301.625)"/>
<path d="M0 0 C2.97 0 5.94 0 9 0 C9.33 0.33 9.66 0.66 10 1 C11.99820432 0.9355418 13.99686587 0.86735528 15.9921875 0.7421875 C18.66764434 1.08572865 19.35668514 1.88889489 21 4 C21.34057617 6.26831055 21.34057617 6.26831055 21.29296875 8.88671875 C21.28330078 9.82451172 21.27363281 10.76230469 21.26367188 11.72851562 C21.23853516 12.70498047 21.21339844 13.68144531 21.1875 14.6875 C21.16719727 16.16959961 21.16719727 16.16959961 21.14648438 17.68164062 C21.11112661 20.12132617 21.05731962 22.56073163 21 25 C18.03 25 15.06 25 12 25 C12 19.06 12 13.12 12 7 C11.01 7 10.02 7 9 7 C9 12.94 9 18.88 9 25 C6.03 25 3.06 25 0 25 C0 16.75 0 8.5 0 0 Z " fill="#1BC4E1" transform="translate(313,302)"/>
<path d="M0 0 C1.21236328 0.02707031 1.21236328 0.02707031 2.44921875 0.0546875 C3.37154297 0.08949219 3.37154297 0.08949219 4.3125 0.125 C4.3125 2.105 4.3125 4.085 4.3125 6.125 C2.9925 6.125 1.6725 6.125 0.3125 6.125 C0.3125 6.785 0.3125 7.445 0.3125 8.125 C1.6325 8.125 2.9525 8.125 4.3125 8.125 C4.3125 10.435 4.3125 12.745 4.3125 15.125 C2.9925 15.125 1.6725 15.125 0.3125 15.125 C0.3125 21.065 0.3125 27.005 0.3125 33.125 C-2.6575 33.125 -5.6275 33.125 -8.6875 33.125 C-8.6875 27.185 -8.6875 21.245 -8.6875 15.125 C-9.3475 15.125 -10.0075 15.125 -10.6875 15.125 C-10.6875 12.815 -10.6875 10.505 -10.6875 8.125 C-10.0275 8.125 -9.3675 8.125 -8.6875 8.125 C-8.584375 7.17625 -8.48125 6.2275 -8.375 5.25 C-7.27118084 0.23264016 -4.62912683 -0.13417759 0 0 Z " fill="#111212" transform="translate(223.6875,293.875)"/>
<path d="M0 0 C2.97 0 5.94 0 9 0 C9 8.25 9 16.5 9 25 C6.03 25 3.06 25 0 25 C0 16.75 0 8.5 0 0 Z " fill="#1EC4E1" transform="translate(277,302)"/>
<path d="M0 0 C2.97 0 5.94 0 9 0 C9 1.98 9 3.96 9 6 C6.03 6 3.06 6 0 6 C0 4.02 0 2.04 0 0 Z " fill="#16C2E0" transform="translate(277,294)"/>
<path d="M0 0 C1.32 0.33 2.64 0.66 4 1 C4.33 3.31 4.66 5.62 5 8 C2.69 8 0.38 8 -2 8 C-1.34 5.36 -0.68 2.72 0 0 Z " fill="#323333" transform="translate(295,349)"/>
<path d="M0 0 C0.99 0 1.98 0 3 0 C3.66 2.64 4.32 5.28 5 8 C2.69 8 0.38 8 -2 8 C-1.125 1.125 -1.125 1.125 0 0 Z " fill="#202121" transform="translate(185,349)"/>
<path d="M0 0 C1.65 0 3.3 0 5 0 C5.33 1.65 5.66 3.3 6 5 C4.68 5.33 3.36 5.66 2 6 C2 6.66 2 7.32 2 8 C1.34 8 0.68 8 0 8 C0 5.36 0 2.72 0 0 Z " fill="#373838" transform="translate(303,351)"/>
<path d="M0 0 C0.99 0 1.98 0 3 0 C3 3.96 3 7.92 3 12 C2.01 12 1.02 12 0 12 C0 8.04 0 4.08 0 0 Z " fill="#F4F9F9" transform="translate(199,309)"/>
<path d="M0 0 C1.67542976 0.28604898 3.34385343 0.61781233 5 1 C5 2.65 5 4.3 5 6 C3.02 6 1.04 6 -1 6 C-1.042721 4.33388095 -1.04063832 2.66617115 -1 1 C-0.67 0.67 -0.34 0.34 0 0 Z " fill="#424444" transform="translate(253,351)"/>
<path d="M0 0 C2.475 0.495 2.475 0.495 5 1 C5 2.65 5 4.3 5 6 C4.01 6 3.02 6 2 6 C2 6.66 2 7.32 2 8 C1.34 8 0.68 8 0 8 C0 5.36 0 2.72 0 0 Z " fill="#2D2E2E" transform="translate(312,351)"/>
<path d="M0 0 C1.65 0.33 3.3 0.66 5 1 C4.67 2.65 4.34 4.3 4 6 C2.35 5.67 0.7 5.34 -1 5 C-0.67 3.35 -0.34 1.7 0 0 Z " fill="#464848" transform="translate(273,351)"/>
<path d="M0 0 C0.66 0 1.32 0 2 0 C2 0.66 2 1.32 2 2 C3.32 2.33 4.64 2.66 6 3 C6 4.65 6 6.3 6 8 C5.34 8 4.68 8 4 8 C4 6.68 4 5.36 4 4 C3.34 4 2.68 4 2 4 C2 5.32 2 6.64 2 8 C1.34 8 0.68 8 0 8 C0 5.36 0 2.72 0 0 Z " fill="#2F3030" transform="translate(207,349)"/>
<path d="M0 0 C0.99 0 1.98 0 3 0 C3 3.3 3 6.6 3 10 C2.01 10 1.02 10 0 10 C0 6.7 0 3.4 0 0 Z " fill="#F8FEFE" transform="translate(298,309)"/>
<path d="M0 0 C1.9375 0.3125 1.9375 0.3125 4 1 C4.33 1.99 4.66 2.98 5 4 C4.67 4.66 4.34 5.32 4 6 C2.35 5.67 0.7 5.34 -1 5 C-0.67 3.35 -0.34 1.7 0 0 Z " fill="#393A3A" transform="translate(217,351)"/>
<path d="M0 0 C1.66611905 -0.042721 3.33382885 -0.04063832 5 0 C6 1 6 1 6.0625 3.5625 C6.041875 4.366875 6.02125 5.17125 6 6 C5.34 6 4.68 6 4 6 C4 4.68 4 3.36 4 2 C3.34 2 2.68 2 2 2 C2 3.32 2 4.64 2 6 C1.34 6 0.68 6 0 6 C0 4.02 0 2.04 0 0 Z " fill="#2F3030" transform="translate(280,351)"/>
<path d="M0 0 C1.66611905 -0.042721 3.33382885 -0.04063832 5 0 C6 1 6 1 6.0625 3.5625 C6.041875 4.366875 6.02125 5.17125 6 6 C5.34 6 4.68 6 4 6 C4 4.68 4 3.36 4 2 C3.34 2 2.68 2 2 2 C2 3.32 2 4.64 2 6 C1.34 6 0.68 6 0 6 C0 4.02 0 2.04 0 0 Z " fill="#2E2F2F" transform="translate(224,351)"/>
<path d="M0 0 C1.65 0 3.3 0 5 0 C5 1.98 5 3.96 5 6 C3.35 6 1.7 6 0 6 C0 4.02 0 2.04 0 0 Z " fill="#242525" transform="translate(193,351)"/>
<path d="M0 0 C1.32 0 2.64 0 4 0 C4 0.66 4 1.32 4 2 C3.01 2 2.02 2 1 2 C1 2.66 1 3.32 1 4 C2.32 4.33 3.64 4.66 5 5 C3.35 5.33 1.7 5.66 0 6 C-0.38218767 4.34385343 -0.71395102 2.67542976 -1 1 C-0.67 0.67 -0.34 0.34 0 0 Z " fill="#303131" transform="translate(245,351)"/>
<path d="M0 0 C0.66 0 1.32 0 2 0 C3 5.75 3 5.75 3 8 C2.01 8 1.02 8 0 8 C-1.125 2.25 -1.125 2.25 0 0 Z " fill="#393A3A" transform="translate(202,349)"/>
<path d="M0 0 C0.99 0.33 1.98 0.66 3 1 C3 2.98 3 4.96 3 7 C2.01 7 1.02 7 0 7 C-0.38133299 5.0085944 -0.71325582 3.00720923 -1 1 C-0.67 0.67 -0.34 0.34 0 0 Z " fill="#292A2A" transform="translate(261,350)"/>
<path d="M0 0 C2 1.375 2 1.375 4 3 C4 3.66 4 4.32 4 5 C1.69 5 -0.62 5 -3 5 C-2.625 3.0625 -2.625 3.0625 -2 1 C-1.34 0.67 -0.68 0.34 0 0 Z " fill="#454747" transform="translate(186,352)"/>
<path d="M0 0 C0.66 0 1.32 0 2 0 C3 5.75 3 5.75 3 8 C2.01 7.67 1.02 7.34 0 7 C0 4.69 0 2.38 0 0 Z " fill="#303131" transform="translate(233,349)"/>
</svg>
