<?xml version="1.0" encoding="UTF-8"?>
<svg version="1.1" xmlns="http://www.w3.org/2000/svg" width="225" height="225">
<path d="M0 0 C74.25 0 148.5 0 225 0 C225 74.25 225 148.5 225 225 C150.75 225 76.5 225 0 225 C0 150.75 0 76.5 0 0 Z " fill="#FEFEFE" transform="translate(0,0)"/>
<path d="M0 0 C15.11502832 5.84095813 29.43074321 9.647639 45.62866211 10.8293457 C46.43698486 10.89210693 47.24530762 10.95486816 48.078125 11.01953125 C49.15694946 11.09131592 49.15694946 11.09131592 50.25756836 11.16455078 C52.05078125 11.51171875 52.05078125 11.51171875 54.05078125 13.51171875 C54.26375885 16.2669863 54.35473297 18.91873119 54.3515625 21.67578125 C54.35584763 22.50065033 54.36013275 23.32551941 54.36454773 24.17538452 C54.37030401 25.93234339 54.37078178 27.68932609 54.36645508 29.44628906 C54.36335062 32.0779177 54.38653929 34.708359 54.41210938 37.33984375 C54.51151593 63.56239295 47.72716601 87.6342516 30.05078125 107.51171875 C29.39851563 108.25808594 28.74625 109.00445312 28.07421875 109.7734375 C21.63953458 116.67807051 14.00560802 121.55573541 6.05078125 126.51171875 C5.15359375 127.08664063 4.25640625 127.6615625 3.33203125 128.25390625 C-1.35968755 131.09785908 -4.30657239 132.10814355 -9.94921875 131.51171875 C-12.90818081 130.30133304 -15.55553439 128.70461324 -18.26171875 127.01171875 C-19.38320312 126.32831421 -19.38320312 126.32831421 -20.52734375 125.63110352 C-26.37221501 122.00908137 -31.83184606 118.11735417 -36.94921875 113.51171875 C-37.69171875 112.86203125 -38.43421875 112.21234375 -39.19921875 111.54296875 C-55.74190268 96.14908231 -66.02513753 72.8246094 -67.04936218 50.31039429 C-67.09632776 47.9629414 -67.11394383 45.61744943 -67.1171875 43.26953125 C-67.1205159 42.41994843 -67.1238443 41.5703656 -67.12727356 40.69503784 C-67.13230162 38.91518694 -67.13468317 37.13532675 -67.13452148 35.35546875 C-67.1367294 32.6235443 -67.15498606 29.89201059 -67.17382812 27.16015625 C-67.17675859 25.42578263 -67.1787457 23.69140709 -67.1796875 21.95703125 C-67.18687302 21.13937286 -67.19405853 20.32171448 -67.20146179 19.47927856 C-67.17807147 13.74057147 -67.17807147 13.74057147 -64.94921875 11.51171875 C-62.04425615 11.18592855 -59.17583983 10.95337165 -56.26171875 10.76171875 C-40.42592093 9.43555393 -24.87707716 5.54281062 -10.59375 -1.484375 C-6.61839405 -2.99348353 -3.82170821 -1.50476586 0 0 Z " fill="#22A2DA" transform="translate(118.94921875,37.48828125)"/>
<path d="M0 0 C4.88856261 0.81476043 8.80398763 1.98799997 13.3125 3.8125 C26.15652081 8.77266195 38.85074303 11.31697517 52.57714844 12.31738281 C53.78999512 12.41164551 53.78999512 12.41164551 55.02734375 12.5078125 C56.10616821 12.57959717 56.10616821 12.57959717 57.20678711 12.65283203 C59 13 59 13 61 15 C61.2129776 17.75526755 61.30395172 20.40701244 61.30078125 23.1640625 C61.30506638 23.98893158 61.3093515 24.81380066 61.31376648 25.66366577 C61.31952276 27.42062464 61.32000053 29.17760734 61.31567383 30.93457031 C61.31256937 33.56619895 61.33575804 36.19664025 61.36132812 38.828125 C61.46073468 65.0506742 54.67638476 89.12253285 37 109 C36.34773438 109.74636719 35.69546875 110.49273437 35.0234375 111.26171875 C26.81945026 120.0648736 15.10753857 128.24677404 4 133 C3.01 133 2.02 133 1 133 C1 122.44 1 111.88 1 101 C12.875 100.5625 12.875 100.5625 16.61669922 100.43188477 C17.58623535 100.39377686 18.55577148 100.35566895 19.5546875 100.31640625 C20.54968262 100.27974854 21.54467773 100.24309082 22.56982422 100.20532227 C25.00779501 100.15040468 25.00779501 100.15040468 27 99 C27 84.81 27 70.62 27 56 C24.42788678 54.71394339 22.43093034 54.78956059 19.5546875 54.68359375 C18.47832031 54.64169922 17.40195313 54.59980469 16.29296875 54.55664062 C15.16503906 54.51732422 14.03710938 54.47800781 12.875 54.4375 C11.73933594 54.39431641 10.60367188 54.35113281 9.43359375 54.30664062 C6.62254739 54.20034055 3.8112901 54.09964603 1 54 C1 46.74 1 39.48 1 32 C6 33 6 33 8.3125 34.875 C10.80829964 39.49685119 10.32444962 43.85386857 10 49 C11.66611905 49.042721 13.33382885 49.04063832 15 49 C16.70558443 47.29441557 16.21230676 45.14005782 16.25 42.8125 C16.16614385 36.33041974 14.88828098 32.88828098 10.25 28.25 C6.63585127 25.49033657 6.63585127 25.49033657 0 24 C0 16.08 0 8.16 0 0 Z " fill="#158CB6" transform="translate(112,36)"/>
<path d="M0 0 C4.73082821 0.47167484 8.64599537 1.95923294 13 3.8125 C29.83934197 10.70798248 46.91095277 13.33906593 64.99511719 14.63208008 C67 15 67 15 69 17 C69.26069641 19.0824585 69.26069641 19.0824585 69.2746582 21.68652344 C69.28419022 22.66224304 69.29372223 23.63796265 69.30354309 24.64324951 C69.30217598 26.23523163 69.30217598 26.23523163 69.30078125 27.859375 C69.30506638 28.95533997 69.3093515 30.05130493 69.31376648 31.18048096 C69.31952287 33.51077585 69.32000047 35.84108873 69.31567383 38.17138672 C69.31254966 41.69401009 69.33583134 45.21576405 69.36132812 48.73828125 C69.3940262 60.18724196 69.33315762 70.95629456 66 82 C65.80124268 82.71140137 65.60248535 83.42280273 65.39770508 84.15576172 C61.68678439 96.6803294 55.47461545 108.10107944 47 118 C46.34515625 118.79921875 45.6903125 119.5984375 45.015625 120.421875 C36.36967886 130.58243944 26.11214935 137.63227044 14.625 144.1875 C13.78090576 144.6817749 12.93681152 145.1760498 12.06713867 145.68530273 C8.37901142 147.71616476 5.77910915 148.96929187 1.53125 149.13671875 C-3.39557784 147.55075979 -7.66650539 145.23112647 -12.125 142.625 C-13.51561646 141.81905396 -13.51561646 141.81905396 -14.93432617 140.99682617 C-38.86557999 126.78810003 -55.48422086 104.5923653 -62.4921875 77.625 C-63.93331692 70.17546947 -64.15991876 62.91905862 -64.16796875 55.3515625 C-64.17129715 54.25782318 -64.17462555 53.16408386 -64.17805481 52.03720093 C-64.18309406 49.73948586 -64.18546407 47.44176355 -64.18530273 45.14404297 C-64.18750597 41.61544018 -64.20573882 38.08714201 -64.22460938 34.55859375 C-64.2275405 32.32291773 -64.22952717 30.08724024 -64.23046875 27.8515625 C-64.23765427 26.79329254 -64.24483978 25.73502258 -64.25224304 24.64468384 C-64.24916641 23.66961884 -64.24608978 22.69455383 -64.24291992 21.68994141 C-64.24434494 20.83026764 -64.24576996 19.97059387 -64.24723816 19.08486938 C-64 17 -64 17 -62 15 C-59.64355469 14.59277344 -59.64355469 14.59277344 -56.671875 14.359375 C-55.02264038 14.21266357 -55.02264038 14.21266357 -53.34008789 14.06298828 C-52.15535889 13.95970215 -50.97062988 13.85641602 -49.75 13.75 C-23.30720302 11.4252272 -23.30720302 11.4252272 0 0 Z M-4.8125 9.5625 C-18.96012369 16.04027947 -34.40257962 19.40095373 -49.88134766 20.41894531 C-54.41181535 20.53139225 -54.41181535 20.53139225 -58 23 C-58.2129776 25.75526755 -58.30395172 28.40701244 -58.30078125 31.1640625 C-58.30506638 31.98893158 -58.3093515 32.81380066 -58.31376648 33.66366577 C-58.31952276 35.42062464 -58.32000053 37.17760734 -58.31567383 38.93457031 C-58.31256937 41.56619895 -58.33575804 44.19664025 -58.36132812 46.828125 C-58.47134832 75.85045793 -49.84780163 100.57617457 -29.625 121.6875 C-25.10755236 126.07411866 -20.31998829 129.64545183 -15 133 C-14.44054687 133.35545898 -13.88109375 133.71091797 -13.3046875 134.07714844 C-11.48654217 135.21939234 -9.65340744 136.33236887 -7.8125 137.4375 C-6.68457031 138.11683594 -5.55664062 138.79617187 -4.39453125 139.49609375 C-0.49875546 141.22207037 1.78212767 141.52841354 6 141 C29.27555227 130.96224714 47.52807811 111.56131501 56.82421875 88.203125 C62.15414474 73.68306084 63.33495141 59.81216289 63.26074219 44.46655273 C63.24986406 41.77891278 63.26077727 39.09191864 63.2734375 36.40429688 C63.27211847 34.69270686 63.26956142 32.98111725 63.265625 31.26953125 C63.26967346 30.46755814 63.27372192 29.66558502 63.27789307 28.83930969 C63.41338405 24.45146599 63.41338405 24.45146599 61 21 C58.03143843 20.64917 55.10392429 20.39413704 52.125 20.1875 C36.79060981 18.87217229 22.44877608 14.93433154 8.1875 9.234375 C7.135625 8.82703125 6.08375 8.4196875 5 8 C3.97326172 7.58814453 3.97326172 7.58814453 2.92578125 7.16796875 C-0.103086 6.90378763 -2.10940378 8.23261666 -4.8125 9.5625 Z " fill="#D7D9DC" transform="translate(110,28)"/>
<path d="M0 0 C1.45666077 -0.00934319 1.45666077 -0.00934319 2.94274902 -0.01887512 C3.98966919 -0.00966537 5.03658936 -0.00045563 6.11523438 0.0090332 C7.19148071 0.0085347 8.26772705 0.00803619 9.37658691 0.00752258 C11.65293218 0.00986395 13.92928 0.0195961 16.20556641 0.03613281 C19.69522181 0.05972142 23.18411329 0.0566945 26.67382812 0.05004883 C28.88346811 0.05562559 31.09310487 0.06273546 33.30273438 0.0715332 C34.87311462 0.07016609 34.87311462 0.07016609 36.47521973 0.06877136 C37.4463269 0.07830338 38.41743408 0.08783539 39.41796875 0.09765625 C40.70012268 0.10456734 40.70012268 0.10456734 42.00817871 0.11161804 C44.20898438 0.37231445 44.20898438 0.37231445 47.20898438 2.37231445 C47.5899353 4.23181152 47.5899353 4.23181152 47.59716797 6.51489258 C47.60662445 7.36917847 47.61608093 8.22346436 47.62582397 9.1036377 C47.61975128 10.02761353 47.61367859 10.95158936 47.60742188 11.90356445 C47.61029205 12.85042114 47.61316223 13.79727783 47.61611938 14.77282715 C47.61816297 16.77686154 47.61261261 18.78091575 47.60009766 20.78491211 C47.58404827 23.86007097 47.59993653 26.93391543 47.61914062 30.0090332 C47.61715825 31.95304653 47.61331468 33.89705904 47.60742188 35.84106445 C47.61349457 36.76504028 47.61956726 37.68901611 47.62582397 38.64099121 C47.61636749 39.4952771 47.60691101 40.34956299 47.59716797 41.22973633 C47.59478119 41.98315308 47.59239441 42.73656982 47.5899353 43.51281738 C47.20898438 45.37231445 47.20898438 45.37231445 44.20898438 47.37231445 C42.00817871 47.63301086 42.00817871 47.63301086 39.41796875 47.64697266 C37.96130798 47.66127068 37.96130798 47.66127068 36.47521973 47.67585754 C35.42829956 47.67494614 34.38137939 47.67403473 33.30273438 47.6730957 C32.22648804 47.67738083 31.1502417 47.68166595 30.04138184 47.68608093 C27.7650625 47.69182598 25.4887248 47.69232322 23.21240234 47.68798828 C19.72266476 47.68482685 16.23377344 47.70829118 12.74414062 47.73364258 C10.53450628 47.73591533 8.32486965 47.73661918 6.11523438 47.7355957 C5.06831421 47.74480545 4.02139404 47.7540152 2.94274902 47.76350403 C1.97164185 47.75727524 1.00053467 47.75104645 0 47.74462891 C-0.85476929 47.74525833 -1.70953857 47.74588776 -2.59020996 47.74653625 C-4.79101562 47.37231445 -4.79101562 47.37231445 -6.56619263 46.10258484 C-8.05473784 43.99976206 -8.17062429 42.87599479 -8.17919922 40.31567383 C-8.1886557 39.50473267 -8.19811218 38.6937915 -8.20785522 37.85827637 C-8.20178253 36.98634644 -8.19570984 36.1144165 -8.18945312 35.21606445 C-8.1923233 34.31738647 -8.19519348 33.4187085 -8.19815063 32.49279785 C-8.20019178 30.59309255 -8.19465841 28.69336625 -8.18212891 26.79370117 C-8.16607583 23.88323036 -8.18197575 20.97414824 -8.20117188 18.0637207 C-8.19918945 16.21866555 -8.1953458 14.37361126 -8.18945312 12.52856445 C-8.19552582 11.65663452 -8.20159851 10.78470459 -8.20785522 9.88635254 C-8.19839874 9.07541138 -8.18894226 8.26447021 -8.17919922 7.42895508 C-8.17681244 6.71630493 -8.17442566 6.00365479 -8.17196655 5.26940918 C-7.24445026 0.65047759 -4.2689133 -0.00314349 0 0 Z " fill="#FBFDFD" transform="translate(92.791015625,89.627685546875)"/>
<path d="M0 0 C1.14671173 -0.00009064 1.14671173 -0.00009064 2.31658936 -0.00018311 C38.58107807 0.04053904 38.58107807 0.04053904 48.875 5.1875 C48.545 6.1775 48.215 7.1675 47.875 8.1875 C45.13671875 9.1015625 45.13671875 9.1015625 41.5625 9.8125 C40.41136719 10.05226562 39.26023437 10.29203125 38.07421875 10.5390625 C25.843381 12.58776901 13.42480179 12.42607127 1.0625 12.4375 C-0.36607834 12.44000763 -0.36607834 12.44000763 -1.82351685 12.44256592 C-38.37336429 12.44641299 -38.37336429 12.44641299 -48.125 7.1875 C-48.125 6.5275 -48.125 5.8675 -48.125 5.1875 C-33.4981131 -1.13406595 -15.6892646 -0.01914622 0 0 Z " fill="#DCDCDC" transform="translate(112.125,184.8125)"/>
<path d="M0 0 C4.56770417 3.01274105 8.19046399 6.69639197 9.9375 11.9375 C10.05579437 13.7889445 10.11264861 15.64482138 10.125 17.5 C10.13917969 18.47066406 10.15335938 19.44132812 10.16796875 20.44140625 C9.9375 22.9375 9.9375 22.9375 7.9375 24.9375 C5.3125 24.5625 5.3125 24.5625 2.9375 23.9375 C2.91171875 23.20144531 2.8859375 22.46539062 2.859375 21.70703125 C2.60419048 17.31669765 2.32370631 13.75818842 0.4375 9.75 C-2.75620027 7.4345673 -4.97801981 7.33963151 -8.84375 7.2734375 C-12.21200506 8.28154201 -13.25262897 9.97844094 -15.0625 12.9375 C-15.75352482 16.27652191 -15.75352482 16.27652191 -15.8125 19.75 C-15.86921875 20.91144531 -15.9259375 22.07289062 -15.984375 23.26953125 C-16.01015625 24.14996094 -16.0359375 25.03039062 -16.0625 25.9375 C-18.3725 25.9375 -20.6825 25.9375 -23.0625 25.9375 C-23.14415496 23.72979195 -23.20198488 21.52119575 -23.25 19.3125 C-23.30220703 17.46785156 -23.30220703 17.46785156 -23.35546875 15.5859375 C-22.97150784 10.80434425 -21.59869065 7.60287032 -18.34375 4.07421875 C-17.7559375 3.59597656 -17.168125 3.11773437 -16.5625 2.625 C-15.9746875 2.13386719 -15.386875 1.64273438 -14.78125 1.13671875 C-10.22918832 -2.03937883 -5.06521832 -1.75732064 0 0 Z " fill="#F5FAFB" transform="translate(119.0625,61.0625)"/>
<path d="M0 0 C3.75999106 0.93999776 5.2473603 2.51105689 7.5 5.625 C7.5 11.19660534 5.37563076 16.42277883 3.5 21.625 C1.52 21.955 -0.46 22.285 -2.5 22.625 C-4.69080101 19.33879848 -5.44966872 16.40619262 -6.5 12.625 C-6.83 12.295 -7.16 11.965 -7.5 11.625 C-7.875 8.875 -7.875 8.875 -7.5 5.625 C-5.20985284 2.6150923 -3.70864386 0.92716097 0 0 Z " fill="#27A1D6" transform="translate(112.5,101.375)"/>
<path d="M0 0 C2.97 0.495 2.97 0.495 6 1 C8 4 8 4 7.8125 7.125 C6.88176771 11.56387706 5.53622861 15.73913953 4 20 C3.01 20 2.02 20 1 20 C0.67 13.4 0.34 6.8 0 0 Z " fill="#168CB4" transform="translate(112,103)"/>
<path d="M0 0 C0.66 0 1.32 0 2 0 C1.71125 0.53625 1.4225 1.0725 1.125 1.625 C-0.16711808 4.35280484 -1.08558592 7.12612718 -2 10 C-2.33 10 -2.66 10 -3 10 C-3.2295711 6.63295715 -3.33943529 4.58629732 -1.625 1.625 C-1.08875 1.08875 -0.5525 0.5525 0 0 Z " fill="#3DAAD7" transform="translate(108,103)"/>
</svg>
