<?xml version="1.0" standalone="no"?>
<!DOCTYPE svg PUBLIC "-//W3C//DTD SVG 20010904//EN"
 "http://www.w3.org/TR/2001/REC-SVG-20010904/DTD/svg10.dtd">
<svg version="1.0" xmlns="http://www.w3.org/2000/svg"
 width="493.000000pt" height="242.000000pt" viewBox="0 0 493.000000 242.000000"
 preserveAspectRatio="xMidYMid meet">

<g transform="translate(0.000000,242.000000) scale(0.100000,-0.100000)"
fill="#000000" stroke="none">
<path d="M503 2263 c-60 -8 -58 9 -61 -536 l-3 -500 -72 6 c-79 5 -110 -2
-122 -30 -17 -40 -23 -258 -18 -646 5 -310 9 -412 19 -422 15 -15 605 -31 722
-20 124 13 116 -11 120 359 l3 316 854 0 855 0 2 165 c2 100 7 166 13 167 10
1 19 -15 48 -82 17 -39 240 -277 324 -346 79 -63 139 -58 164 14 15 43 -5 82
-87 171 -107 116 -280 268 -314 274 -16 4 -43 19 -60 34 l-32 28 36 74 c42 88
53 159 37 253 -13 80 -38 134 -91 198 l-37 45 -5 228 c-4 156 -9 232 -17 240
-9 9 -287 12 -1129 13 -614 1 -1131 -1 -1149 -3z m2210 -207 c7 -159 2 -210
-22 -200 -9 3 -49 11 -89 17 -88 13 -158 1 -248 -43 -114 -56 -180 -143 -209
-274 -15 -68 -16 -88 -5 -148 23 -131 104 -244 213 -300 90 -45 208 -55 310
-26 52 15 57 6 57 -114 l0 -98 -814 0 -815 0 -3 169 c-2 93 -7 173 -11 178 -5
4 -130 9 -278 11 l-269 3 0 479 0 480 1088 0 1089 0 6 -134z m-36 -316 c187
-93 224 -342 73 -489 -77 -75 -207 -101 -316 -64 -71 24 -157 112 -178 183
-35 116 -13 219 64 303 70 77 115 97 216 97 70 0 89 -4 141 -30z m-1677 -1067
l0 -456 -336 5 c-184 3 -337 7 -338 9 -2 2 -7 205 -11 452 l-7 447 346 0 346
0 0 -457z m-334 -521 c-20 -21 -39 -7 -25 19 8 17 13 18 25 8 13 -11 13 -14 0
-27z"/>
<path d="M2380 2096 c0 -30 13 -40 41 -31 31 10 21 49 -13 53 -24 3 -28 0 -28
-22z"/>
<path d="M690 2020 c-29 -18 23 -25 190 -25 167 0 219 7 190 25 -19 13 -361
13 -380 0z"/>
<path d="M1603 1734 c-8 -22 10 -49 33 -49 22 0 31 30 14 50 -16 20 -39 19
-47 -1z"/>
<path d="M693 1613 c-7 -2 -13 -15 -13 -28 0 -17 7 -24 31 -29 38 -7 123 -6
164 3 39 8 48 45 13 55 -27 7 -177 7 -195 -1z m183 -15 c17 -18 -14 -28 -82
-28 -57 0 -74 3 -74 14 0 8 8 17 18 20 22 6 130 2 138 -6z"/>
<path d="M1806 1597 c-13 -9 -16 -20 -12 -34 9 -28 32 -36 51 -17 20 20 19 50
-1 58 -20 8 -17 8 -38 -7z"/>
<path d="M1200 1486 c0 -29 22 -49 44 -40 32 12 12 64 -26 64 -12 0 -18 -8
-18 -24z"/>
<path d="M1392 1408 c-16 -16 -15 -45 1 -51 35 -13 66 43 31 57 -20 8 -18 8
-32 -6z"/>
<path d="M465 739 c-14 -21 -6 -110 14 -153 34 -77 143 -128 219 -103 20 7 37
17 39 23 7 20 -56 74 -86 74 -36 0 -77 32 -86 67 -3 16 -13 38 -21 50 -19 29
-71 57 -79 42z"/>
<path d="M4884 1749 c-10 -17 13 -36 27 -22 12 12 4 33 -11 33 -5 0 -12 -5
-16 -11z"/>
</g>
</svg>
