<?xml version="1.0" encoding="UTF-8"?>
<svg version="1.1" xmlns="http://www.w3.org/2000/svg" width="225" height="225">
<path d="M0 0 C74.25 0 148.5 0 225 0 C225 74.25 225 148.5 225 225 C150.75 225 76.5 225 0 225 C0 150.75 0 76.5 0 0 Z " fill="#FEFEFE" transform="translate(0,0)"/>
<path d="M0 0 C0.99 1.485 0.99 1.485 2 3 C1.34 3 0.68 3 0 3 C-0.99 6.3 -1.98 9.6 -3 13 C-2.01 13.33 -1.02 13.66 0 14 C-0.66 14.33 -1.32 14.66 -2 15 C-2.99 14.505 -2.99 14.505 -4 14 C-3.02890741 19.94794212 -0.83164607 22.87428713 3.82421875 26.6875 C7.12273185 28.67726733 9.24269272 28.54794065 13 28 C12.01 26.35 11.02 24.7 10 23 C10.556875 23.350625 11.11375 23.70125 11.6875 24.0625 C14.63159108 25.25605044 16.00185923 24.97439575 19 24 C20.35622245 23.03126968 21.69417053 22.03565785 23 21 C23.66 21 24.32 21 25 21 C25.05398987 23.27057377 25.09278742 25.54151288 25.125 27.8125 C25.14820313 29.07707031 25.17140625 30.34164062 25.1953125 31.64453125 C25 35 25 35 23 38 C22.67720165 40.88424346 22.67720165 40.88424346 22.69702148 44.19970703 C22.67205849 46.11651779 22.67205849 46.11651779 22.64659119 48.072052 C22.63803115 49.46730513 22.62953349 50.86255864 22.62109375 52.2578125 C22.60492082 53.68603658 22.58774104 55.11424958 22.56959534 56.54244995 C22.52391419 60.30013931 22.48910154 64.05784335 22.45739746 67.81567383 C22.40550829 73.83800064 22.34052757 79.86016531 22.26918221 85.88228989 C22.24628587 87.99012554 22.23005801 90.09794033 22.21446228 92.20584106 C22.19422752 94.11319534 22.19422752 94.11319534 22.17358398 96.05908203 C22.16407211 97.18476593 22.15456024 98.31044983 22.14476013 99.47024536 C22 102 22 102 21 103 C19.31290653 103.12299166 17.62079097 103.17785258 15.92944336 103.20532227 C14.84839828 103.22526749 13.76735321 103.24521271 12.65354919 103.26576233 C11.4775264 103.28247482 10.3015036 103.29918732 9.08984375 103.31640625 C7.89267227 103.33718735 6.69550079 103.35796844 5.46205139 103.37937927 C1.62059513 103.44500279 -2.22093201 103.50381903 -6.0625 103.5625 C-8.65951267 103.60567305 -11.25651806 103.64928693 -13.85351562 103.69335938 C-20.2356036 103.8006972 -26.61776318 103.90192818 -33 104 C-28.05 108.455 -28.05 108.455 -23 113 C-24.04497429 117.17989715 -24.6317086 118.47378145 -28 121 C-32.38485415 121 -34.81236404 118.82333471 -38 116 C-38.99 116.66 -39.98 117.32 -41 118 C-40.71382813 117.34902344 -40.42765625 116.69804687 -40.1328125 116.02734375 C-38.72420405 112.2629591 -37.79186375 108.47105623 -36.875 104.5625 C-36.69324219 103.82451172 -36.51148437 103.08652344 -36.32421875 102.32617188 C-35.33179394 98.12888648 -34.79336016 94.3463246 -35 90 C-36.485 89.505 -36.485 89.505 -38 89 C-38.12117188 89.63808594 -38.24234375 90.27617187 -38.3671875 90.93359375 C-38.53476563 91.75988281 -38.70234375 92.58617187 -38.875 93.4375 C-39.03742188 94.26121094 -39.19984375 95.08492188 -39.3671875 95.93359375 C-39.57601562 96.61550781 -39.78484375 97.29742187 -40 98 C-40.99 98.495 -40.99 98.495 -42 99 C-41.855625 98.40832031 -41.71125 97.81664062 -41.5625 97.20703125 C-40.04959076 91.17028347 -40.04959076 91.17028347 -40 85 C-40.66 84.34 -41.32 83.68 -42 83 C-41.34 83 -40.68 83 -40 83 C-40 75.08 -40 67.16 -40 59 C-42.64 59 -45.28 59 -48 59 C-48 66.26 -48 73.52 -48 81 C-46.35 81.66 -44.7 82.32 -43 83 C-43.44829514 84.98146451 -43.90892498 86.96014211 -44.375 88.9375 C-44.63023438 90.03964844 -44.88546875 91.14179688 -45.1484375 92.27734375 C-45.42945312 93.17582031 -45.71046875 94.07429688 -46 95 C-46.99 95.495 -46.99 95.495 -48 96 C-47.835 95.34 -47.67 94.68 -47.5 94 C-46.87816701 90.26900206 -46.93591074 86.78126622 -47 83 C-48.98 82.505 -48.98 82.505 -51 82 C-51.04898438 82.67546875 -51.09796875 83.3509375 -51.1484375 84.046875 C-51.22320312 84.93890625 -51.29796875 85.8309375 -51.375 86.75 C-51.44460937 87.63171875 -51.51421875 88.5134375 -51.5859375 89.421875 C-51.99850055 91.99066382 -52.71160957 93.75841015 -54 96 C-55.58139421 92.83721158 -53.95221046 90.30473042 -53 87 C-52.83071457 84.20755955 -52.83071457 84.20755955 -53 82 C-54.98 82 -56.96 82 -59 82 C-59.103125 83.19625 -59.20625 84.3925 -59.3125 85.625 C-59.92327237 90.54608022 -61.4477289 94.4477289 -65 98 C-65.99 97.67 -66.98 97.34 -68 97 C-66.68 96.01 -65.36 95.02 -64 94 C-64.47205119 89.75153925 -66.88877522 87.73180712 -70 85 C-70.66 85 -71.32 85 -72 85 C-72.33 86.65 -72.66 88.3 -73 90 C-73.66 90 -74.32 90 -75 90 C-75 88.35 -75 86.7 -75 85 C-73.02 84.01 -73.02 84.01 -71 83 C-71 82.01 -71 81.02 -71 80 C-71.9075 80.061875 -72.815 80.12375 -73.75 80.1875 C-77 80 -77 80 -78.8125 78.3125 C-80.89078375 76.7299096 -80.89078375 76.7299096 -83.10546875 77.43359375 C-84.67591285 77.96903064 -86.23565189 78.53720656 -87.78125 79.140625 C-93.73814662 81.44787369 -99.9430191 81.99819785 -106.0625 80 C-107.0215625 79.505 -107.0215625 79.505 -108 79 C-105.24921116 78.08307039 -103.64051087 77.89113917 -100.8125 77.9375 C-99.554375 77.958125 -98.29625 77.97875 -97 78 C-97 77.67 -97 77.34 -97 77 C-98.65 76.67 -100.3 76.34 -102 76 C-102 75.34 -102 74.68 -102 74 C-102.66386719 74.04640625 -103.32773438 74.0928125 -104.01171875 74.140625 C-111.16967509 74.433213 -111.16967509 74.433213 -114.875 72.5 C-120.87781463 65.43786514 -121.70425423 59.0483545 -121.6875 50.0625 C-121.72810547 49.02931641 -121.76871094 47.99613281 -121.81054688 46.93164062 C-121.8506151 37.89339489 -118.43816537 33.48457264 -112.2722168 27.25415039 C-111.85238525 26.84028076 -111.43255371 26.42641113 -111 26 C-112.32 26.33 -113.64 26.66 -115 27 C-114.27683594 26.49339844 -114.27683594 26.49339844 -113.5390625 25.9765625 C-111.25255923 23.04008875 -111.46922734 19.95563891 -111.375 16.375 C-111.10472973 9.10472973 -111.10472973 9.10472973 -110 8 C-107.1353455 7.8960164 -104.29401009 7.85638899 -101.42871094 7.8581543 C-100.079916 7.85294266 -100.079916 7.85294266 -98.70387268 7.84762573 C-96.74387994 7.84025385 -94.78387876 7.83491614 -92.82387543 7.83133507 C-89.7222968 7.82419093 -86.62087836 7.80853931 -83.51934814 7.78999329 C-74.69830544 7.73743104 -65.87734823 7.68954663 -57.05615234 7.67407227 C-51.66670745 7.6639962 -46.27766164 7.63467768 -40.88837433 7.59275246 C-38.83271553 7.58042867 -36.77700038 7.5753237 -34.72130585 7.57755089 C-31.84339278 7.57990119 -28.96662554 7.55775679 -26.08886719 7.5300293 C-25.23879593 7.53663071 -24.38872467 7.54323212 -23.51289368 7.55003357 C-18.32413411 7.46793179 -15.88150802 6.71655092 -12 3 C-9.11788698 2.03929566 -7.30149956 1.89418117 -4.3125 1.9375 C-3.10013672 1.95103516 -3.10013672 1.95103516 -1.86328125 1.96484375 C-0.94095703 1.98224609 -0.94095703 1.98224609 0 2 C0 1.34 0 0.68 0 0 Z " fill="#F7F8FA" transform="translate(150,58)"/>
<path d="M0 0 C0.99 1.485 0.99 1.485 2 3 C1.34 3 0.68 3 0 3 C-0.99 6.3 -1.98 9.6 -3 13 C-2.01 13.33 -1.02 13.66 0 14 C-0.66 14.33 -1.32 14.66 -2 15 C-2.99 14.505 -2.99 14.505 -4 14 C-3.02890741 19.94794212 -0.83164607 22.87428713 3.82421875 26.6875 C7.12273185 28.67726733 9.24269272 28.54794065 13 28 C12.01 26.35 11.02 24.7 10 23 C10.556875 23.350625 11.11375 23.70125 11.6875 24.0625 C14.63159108 25.25605044 16.00185923 24.97439575 19 24 C20.35622245 23.03126968 21.69417053 22.03565785 23 21 C23.66 21 24.32 21 25 21 C25.05398987 23.27057377 25.09278742 25.54151288 25.125 27.8125 C25.14820313 29.07707031 25.17140625 30.34164062 25.1953125 31.64453125 C25 35 25 35 23 38 C22.67720165 40.88424346 22.67720165 40.88424346 22.69702148 44.19970703 C22.67205849 46.11651779 22.67205849 46.11651779 22.64659119 48.072052 C22.63803115 49.46730513 22.62953349 50.86255864 22.62109375 52.2578125 C22.60492082 53.68603658 22.58774104 55.11424958 22.56959534 56.54244995 C22.52391419 60.30013931 22.48910154 64.05784335 22.45739746 67.81567383 C22.40550829 73.83800064 22.34052757 79.86016531 22.26918221 85.88228989 C22.24628587 87.99012554 22.23005801 90.09794033 22.21446228 92.20584106 C22.19422752 94.11319534 22.19422752 94.11319534 22.17358398 96.05908203 C22.16407211 97.18476593 22.15456024 98.31044983 22.14476013 99.47024536 C22 102 22 102 21 103 C19.31290653 103.12299166 17.62079097 103.17785258 15.92944336 103.20532227 C14.84839828 103.22526749 13.76735321 103.24521271 12.65354919 103.26576233 C11.4775264 103.28247482 10.3015036 103.29918732 9.08984375 103.31640625 C7.89267227 103.33718735 6.69550079 103.35796844 5.46205139 103.37937927 C1.62059513 103.44500279 -2.22093201 103.50381903 -6.0625 103.5625 C-8.65951267 103.60567305 -11.25651806 103.64928693 -13.85351562 103.69335938 C-20.2356036 103.8006972 -26.61776318 103.90192818 -33 104 C-28.05 108.455 -28.05 108.455 -23 113 C-24.04497429 117.17989715 -24.6317086 118.47378145 -28 121 C-32.38485415 121 -34.81236404 118.82333471 -38 116 C-38.99 116.66 -39.98 117.32 -41 118 C-40.71382813 117.34902344 -40.42765625 116.69804687 -40.1328125 116.02734375 C-38.72420405 112.2629591 -37.79186375 108.47105623 -36.875 104.5625 C-36.69324219 103.82451172 -36.51148437 103.08652344 -36.32421875 102.32617188 C-35.33179394 98.12888648 -34.79336016 94.3463246 -35 90 C-36.485 89.505 -36.485 89.505 -38 89 C-38.12117188 89.63808594 -38.24234375 90.27617187 -38.3671875 90.93359375 C-38.53476563 91.75988281 -38.70234375 92.58617187 -38.875 93.4375 C-39.03742188 94.26121094 -39.19984375 95.08492188 -39.3671875 95.93359375 C-39.57601562 96.61550781 -39.78484375 97.29742187 -40 98 C-40.99 98.495 -40.99 98.495 -42 99 C-41.855625 98.40832031 -41.71125 97.81664062 -41.5625 97.20703125 C-40.04959076 91.17028347 -40.04959076 91.17028347 -40 85 C-40.66 84.34 -41.32 83.68 -42 83 C-41.34 83 -40.68 83 -40 83 C-40 75.08 -40 67.16 -40 59 C-42.64 59 -45.28 59 -48 59 C-48 66.26 -48 73.52 -48 81 C-46.35 81.66 -44.7 82.32 -43 83 C-43.44829514 84.98146451 -43.90892498 86.96014211 -44.375 88.9375 C-44.63023438 90.03964844 -44.88546875 91.14179688 -45.1484375 92.27734375 C-45.42945312 93.17582031 -45.71046875 94.07429688 -46 95 C-46.99 95.495 -46.99 95.495 -48 96 C-47.835 95.34 -47.67 94.68 -47.5 94 C-46.87816701 90.26900206 -46.93591074 86.78126622 -47 83 C-48.98 82.505 -48.98 82.505 -51 82 C-51.04898438 82.67546875 -51.09796875 83.3509375 -51.1484375 84.046875 C-51.22320312 84.93890625 -51.29796875 85.8309375 -51.375 86.75 C-51.44460937 87.63171875 -51.51421875 88.5134375 -51.5859375 89.421875 C-51.99850055 91.99066382 -52.71160957 93.75841015 -54 96 C-55.58139421 92.83721158 -53.95221046 90.30473042 -53 87 C-52.83071457 84.20755955 -52.83071457 84.20755955 -53 82 C-54.98 82 -56.96 82 -59 82 C-59.103125 83.19625 -59.20625 84.3925 -59.3125 85.625 C-59.92327237 90.54608022 -61.4477289 94.4477289 -65 98 C-65.99 97.67 -66.98 97.34 -68 97 C-66.68 96.01 -65.36 95.02 -64 94 C-64.47205119 89.75153925 -66.88877522 87.73180712 -70 85 C-70.66 85 -71.32 85 -72 85 C-72.33 86.65 -72.66 88.3 -73 90 C-73.66 90 -74.32 90 -75 90 C-75 88.35 -75 86.7 -75 85 C-73.02 84.01 -73.02 84.01 -71 83 C-71 82.01 -71 81.02 -71 80 C-71.9075 80.061875 -72.815 80.12375 -73.75 80.1875 C-77 80 -77 80 -78.8125 78.3125 C-80.89078375 76.7299096 -80.89078375 76.7299096 -83.10546875 77.43359375 C-84.67591285 77.96903064 -86.23565189 78.53720656 -87.78125 79.140625 C-93.73814662 81.44787369 -99.9430191 81.99819785 -106.0625 80 C-107.0215625 79.505 -107.0215625 79.505 -108 79 C-105.24921116 78.08307039 -103.64051087 77.89113917 -100.8125 77.9375 C-99.554375 77.958125 -98.29625 77.97875 -97 78 C-97 77.67 -97 77.34 -97 77 C-98.65 76.67 -100.3 76.34 -102 76 C-102 75.34 -102 74.68 -102 74 C-102.66386719 74.04640625 -103.32773438 74.0928125 -104.01171875 74.140625 C-111.16967509 74.433213 -111.16967509 74.433213 -114.875 72.5 C-120.87781463 65.43786514 -121.70425423 59.0483545 -121.6875 50.0625 C-121.72810547 49.02931641 -121.76871094 47.99613281 -121.81054688 46.93164062 C-121.8506151 37.89339489 -118.43816537 33.48457264 -112.2722168 27.25415039 C-111.85238525 26.84028076 -111.43255371 26.42641113 -111 26 C-112.32 26.33 -113.64 26.66 -115 27 C-114.27683594 26.49339844 -114.27683594 26.49339844 -113.5390625 25.9765625 C-111.25255923 23.04008875 -111.46922734 19.95563891 -111.375 16.375 C-111.10472973 9.10472973 -111.10472973 9.10472973 -110 8 C-107.1353455 7.8960164 -104.29401009 7.85638899 -101.42871094 7.8581543 C-100.079916 7.85294266 -100.079916 7.85294266 -98.70387268 7.84762573 C-96.74387994 7.84025385 -94.78387876 7.83491614 -92.82387543 7.83133507 C-89.7222968 7.82419093 -86.62087836 7.80853931 -83.51934814 7.78999329 C-74.69830544 7.73743104 -65.87734823 7.68954663 -57.05615234 7.67407227 C-51.66670745 7.6639962 -46.27766164 7.63467768 -40.88837433 7.59275246 C-38.83271553 7.58042867 -36.77700038 7.5753237 -34.72130585 7.57755089 C-31.84339278 7.57990119 -28.96662554 7.55775679 -26.08886719 7.5300293 C-25.23879593 7.53663071 -24.38872467 7.54323212 -23.51289368 7.55003357 C-18.32413411 7.46793179 -15.88150802 6.71655092 -12 3 C-9.11788698 2.03929566 -7.30149956 1.89418117 -4.3125 1.9375 C-3.10013672 1.95103516 -3.10013672 1.95103516 -1.86328125 1.96484375 C-0.94095703 1.98224609 -0.94095703 1.98224609 0 2 C0 1.34 0 0.68 0 0 Z M-110 10 C-110 14.29 -110 18.58 -110 23 C-108.35 22.67 -106.7 22.34 -105 22 C-95.09660102 21.20824726 -86.66104908 22.18263301 -78.625 28.375 C-72.29770361 34.70229639 -68.96927739 42.00242427 -68.5625 50.9375 C-68.69060955 55.75291198 -70.14189856 59.61694407 -72.125 63.96875 C-73.13187463 65.93752145 -73.13187463 65.93752145 -73 68 C-72.01 68.66 -71.02 69.32 -70 70 C-69.3125 72.625 -69.3125 72.625 -69 75 C-66.69 75.66 -64.38 76.32 -62 77 C-62 65.45 -62 53.9 -62 42 C-58.7 42 -55.4 42 -52 42 C-52 54.87 -52 67.74 -52 81 C-51.01 81 -50.02 81 -49 81 C-49 73.41 -49 65.82 -49 58 C-45.7 58 -42.4 58 -39 58 C-39.00785522 59.15000488 -39.00785522 59.15000488 -39.01586914 60.32324219 C-39.03666364 63.79881978 -39.04966809 67.27438427 -39.0625 70.75 C-39.07506836 72.55984375 -39.07506836 72.55984375 -39.08789062 74.40625 C-39.09272461 76.14648438 -39.09272461 76.14648438 -39.09765625 77.921875 C-39.10551147 79.52434082 -39.10551147 79.52434082 -39.11352539 81.15917969 C-39.01503008 83.62389235 -38.71565464 85.65245467 -38 88 C-37.34 88 -36.68 88 -36 88 C-36 76.12 -36 64.24 -36 52 C-32.7 52 -29.4 52 -26 52 C-26 64.21 -26 76.42 -26 89 C-25.01 89 -24.02 89 -23 89 C-23 82.73 -23 76.46 -23 70 C-19.7 70 -16.4 70 -13 70 C-13 76.27 -13 82.54 -13 89 C-12.01 89 -11.02 89 -10 89 C-10 76.79 -10 64.58 -10 52 C-6.7 52 -3.4 52 0 52 C0 64.21 0 76.42 0 89 C0.99 89 1.98 89 3 89 C3 81.41 3 73.82 3 66 C6.3 66 9.6 66 13 66 C13 73.59 13 81.18 13 89 C-2.18 89.33 -17.36 89.66 -33 90 C-33.495 95.94 -33.495 95.94 -34 102 C-26.32788327 102.02463993 -18.65578935 102.04283123 -10.98364258 102.05493164 C-8.37133381 102.05997377 -5.75902789 102.06680725 -3.14672852 102.07543945 C0.59880268 102.08751036 4.34429672 102.09322935 8.08984375 102.09765625 C9.85387794 102.10539818 9.85387794 102.10539818 11.65354919 102.11329651 C12.73459427 102.11337204 13.81563934 102.11344757 14.92944336 102.11352539 C15.88652695 102.115746 16.84361053 102.11796661 17.82969666 102.12025452 C19.97917624 102.24312499 19.97917624 102.24312499 21 101 C21.09386381 99.1281906 21.11743804 97.2528194 21.11352539 95.37866211 C21.11344986 94.17749252 21.11337433 92.97632294 21.11329651 91.73875427 C21.10813522 90.4314888 21.10297394 89.12422333 21.09765625 87.77734375 C21.09579198 86.43355868 21.09436812 85.08977293 21.09336853 83.74598694 C21.08954402 80.20317723 21.07971432 76.6604083 21.06866455 73.11761475 C21.05844899 69.50484773 21.0538706 65.89207416 21.04882812 62.27929688 C21.03809198 55.18617961 21.02049572 48.09309675 21 41 C17.04 43.31 13.08 45.62 9 48 C9.99 46.02 10.98 44.04 12 42 C12.35881433 38.8006894 12.35881433 38.8006894 12.1875 35.625 C12.16042969 34.56539062 12.13335937 33.50578125 12.10546875 32.4140625 C12.05326172 31.21910156 12.05326172 31.21910156 12 30 C9.69 30 7.38 30 5 30 C4.67 30.66 4.34 31.32 4 32 C3.938125 31.2575 3.87625 30.515 3.8125 29.75 C2.71870282 26.04791724 1.31621484 24.91603524 -2 23 C-5.24293584 23.13617572 -5.24293584 23.13617572 -8 24 C-6.68 23.01 -5.36 22.02 -4 21 C-4.495 18.03 -4.495 18.03 -5 15 C-11.94490614 15.17683789 -16.42262143 16.88155424 -22 21 C-21.49547781 17.25212088 -20.91840767 13.67363066 -20 10 C-49.7 10 -79.4 10 -110 10 Z " fill="#5C60CC" transform="translate(150,58)"/>
<path d="M0 0 C-1.24251733 3.72755198 -3.20751579 5.27400351 -6 8 C-8.85026803 11.16611543 -9.38328572 13.19223867 -9.3984375 17.4296875 C-9.40230469 18.47253906 -9.40617187 19.51539063 -9.41015625 20.58984375 C-9.39855469 21.67394531 -9.38695312 22.75804688 -9.375 23.875 C-9.38660156 24.95136719 -9.39820313 26.02773437 -9.41015625 27.13671875 C-9.38884749 32.89718696 -9.13004594 36.98198985 -6 42 C-6 42.66 -6 43.32 -6 44 C-5.38125 44.309375 -4.7625 44.61875 -4.125 44.9375 C-2.75 45.625 -1.375 46.3125 0 47 C1.53668865 47.22467831 3.07968054 47.40796805 4.625 47.5625 C5.44226563 47.64628906 6.25953125 47.73007813 7.1015625 47.81640625 C8.04128906 47.90728516 8.04128906 47.90728516 9 48 C9 48.66 9 49.32 9 50 C9.928125 49.938125 10.85625 49.87625 11.8125 49.8125 C15 50 15 50 18 53 C13.71 53 9.42 53 5 53 C12.43167592 55.47722531 18.43599965 53.80494753 25.421875 50.6796875 C28.69805715 49.81596675 30.01064864 50.52712672 33 52 C35.32748694 52.68679942 37.65986656 53.35761043 40 54 C40 54.99 40 55.98 40 57 C39.01 57.66 38.02 58.32 37 59 C36.27034634 61.56282742 36.27034634 61.56282742 36 64 C36.66 64 37.32 64 38 64 C38 62.35 38 60.7 38 59 C42 59 42 59 43.73828125 60.171875 C44.25777344 60.69265625 44.77726562 61.2134375 45.3125 61.75 C45.84488281 62.26046875 46.37726563 62.7709375 46.92578125 63.296875 C48 65 48 65 47.66796875 67.140625 C47.44753906 67.75421875 47.22710937 68.3678125 47 69 C47 69.33 47 69.66 47 70 C50.24558406 63.24494398 50.24558406 63.24494398 52 56 C53.9914056 55.61866701 55.99279077 55.28674418 58 55 C58.33 55.33 58.66 55.66 59 56 C58.8229564 59.02116333 58.38079097 61.99598232 58 65 C58.66 62.03 59.32 59.06 60 56 C61.65 56.33 63.3 56.66 65 57 C65 59.64 65 62.28 65 65 C65.66 62.69 66.32 60.38 67 58 C66.34805664 57.61030029 65.69611328 57.22060059 65.02441406 56.8190918 C63 55 63 55 62.54589844 52.63989258 C62.5668457 51.73392334 62.58779297 50.8279541 62.609375 49.89453125 C62.62226562 48.91162109 62.63515625 47.92871094 62.6484375 46.91601562 C62.68195313 45.89185547 62.71546875 44.86769531 62.75 43.8125 C62.76804687 42.77673828 62.78609375 41.74097656 62.8046875 40.67382812 C62.85185563 38.11495716 62.91765943 35.55794158 63 33 C65.64 33 68.28 33 71 33 C70.99214478 34.1281311 70.99214478 34.1281311 70.98413086 35.27905273 C70.96342773 38.66519342 70.95036123 42.05132084 70.9375 45.4375 C70.92493164 47.21350586 70.92493164 47.21350586 70.91210938 49.02539062 C70.90727539 50.71245117 70.90727539 50.71245117 70.90234375 52.43359375 C70.89448853 53.99678345 70.89448853 53.99678345 70.88647461 55.59155273 C70.72694444 57.95128747 70.72694444 57.95128747 72 59 C71.91062197 60.52519276 71.75462854 62.04681929 71.5625 63.5625 C71.40974609 64.80193359 71.40974609 64.80193359 71.25390625 66.06640625 C71.17011719 66.70449219 71.08632812 67.34257812 71 68 C71.66 66.35 72.32 64.7 73 63 C74.98 63.495 74.98 63.495 77 64 C76.58935194 75.39548372 73.80067132 85.67855666 69 96 C69.66 96.33 70.32 96.66 71 97 C70.525625 97.45375 70.05125 97.9075 69.5625 98.375 C67.90972192 99.93258204 67.90972192 99.93258204 67 102 C68.32 102 69.64 102 71 102 C71 106.29 71 110.58 71 115 C60.77 115 50.54 115 40 115 C40 110.38 40 105.76 40 101 C41.65 101 43.3 101 45 101 C44.65555119 98.52733235 44.65555119 98.52733235 44 96 C43.01 95.505 43.01 95.505 42 95 C40.7109375 92.7421875 40.7109375 92.7421875 39.375 89.875 C38.92898437 88.94429688 38.48296875 88.01359375 38.0234375 87.0546875 C36.85011827 83.55264307 36.92904503 80.67070117 37 77 C35.37203491 77.00785522 35.37203491 77.00785522 33.71118164 77.01586914 C29.69882018 77.03391836 25.68646233 77.04543171 21.67407227 77.05493164 C19.93480832 77.05997204 18.19554864 77.0668043 16.45629883 77.07543945 C13.96174063 77.08751792 11.46723827 77.09323108 8.97265625 77.09765625 C8.19036148 77.10281754 7.40806671 77.10797882 6.60206604 77.11329651 C4.73432886 77.11349226 2.86670796 77.06199694 1 77 C0 76 0 76 -0.11352539 73.59155273 C-0.10828857 72.54942627 -0.10305176 71.5072998 -0.09765625 70.43359375 C-0.09443359 69.30888672 -0.09121094 68.18417969 -0.08789062 67.02539062 C-0.07951172 65.84138672 -0.07113281 64.65738281 -0.0625 63.4375 C-0.05798828 62.24962891 -0.05347656 61.06175781 -0.04882812 59.83789062 C-0.03699675 56.89187774 -0.02051287 53.94596319 0 51 C-0.7734375 50.70351562 -1.546875 50.40703125 -2.34375 50.1015625 C-8.68818881 47.47048641 -11.92761346 42.90929821 -15 37 C-17.87235172 29.88751003 -18.4273723 21.99091386 -15.83203125 14.734375 C-9.956376 2.46951109 -9.956376 2.46951109 -3.8125 0.1875 C-2 0 -2 0 0 0 Z " fill="#6165E3" transform="translate(39,84)"/>
<path d="M0 0 C0.05398987 2.27057377 0.09278742 4.54151288 0.125 6.8125 C0.14820313 8.07707031 0.17140625 9.34164062 0.1953125 10.64453125 C0 14 0 14 -2 17 C-2.32279835 19.88424346 -2.32279835 19.88424346 -2.30297852 23.19970703 C-2.31962051 24.47758087 -2.33626251 25.75545471 -2.35340881 27.072052 C-2.36196885 28.46730513 -2.37046651 29.86255864 -2.37890625 31.2578125 C-2.39507918 32.68603658 -2.41225896 34.11424958 -2.43040466 35.54244995 C-2.47608581 39.30013931 -2.51089846 43.05784335 -2.54260254 46.81567383 C-2.59449171 52.83800064 -2.65947243 58.86016531 -2.73081779 64.88228989 C-2.75371413 66.99012554 -2.76994199 69.09794033 -2.78553772 71.20584106 C-2.79902756 72.47741058 -2.8125174 73.7489801 -2.82641602 75.05908203 C-2.84068382 76.74760788 -2.84068382 76.74760788 -2.85523987 78.47024536 C-3 81 -3 81 -4 82 C-5.68709347 82.12299166 -7.37920903 82.17785258 -9.07055664 82.20532227 C-10.15160172 82.22526749 -11.23264679 82.24521271 -12.34645081 82.26576233 C-13.5224736 82.28247482 -14.6984964 82.29918732 -15.91015625 82.31640625 C-17.10732773 82.33718735 -18.30449921 82.35796844 -19.53794861 82.37937927 C-23.37940487 82.44500279 -27.22093201 82.50381903 -31.0625 82.5625 C-33.65951267 82.60567305 -36.25651806 82.64928693 -38.85351562 82.69335938 C-45.2356036 82.8006972 -51.61776318 82.90192818 -58 83 C-54.7 85.97 -51.4 88.94 -48 92 C-49.04497429 96.17989715 -49.6317086 97.47378145 -53 100 C-57.38485415 100 -59.81236404 97.82333471 -63 95 C-63.99 95.66 -64.98 96.32 -66 97 C-65.71382812 96.34902344 -65.42765625 95.69804687 -65.1328125 95.02734375 C-63.72420405 91.2629591 -62.79186375 87.47105623 -61.875 83.5625 C-61.69324219 82.82451172 -61.51148438 82.08652344 -61.32421875 81.32617188 C-60.33179394 77.12888648 -59.79336016 73.3463246 -60 69 C-60.99 68.67 -61.98 68.34 -63 68 C-63.12117188 68.63808594 -63.24234375 69.27617187 -63.3671875 69.93359375 C-63.61855469 71.17302734 -63.61855469 71.17302734 -63.875 72.4375 C-64.03742188 73.26121094 -64.19984375 74.08492188 -64.3671875 74.93359375 C-64.57601562 75.61550781 -64.78484375 76.29742187 -65 77 C-65.99 77.495 -65.99 77.495 -67 78 C-66.855625 77.40832031 -66.71125 76.81664062 -66.5625 76.20703125 C-65.04959076 70.17028347 -65.04959076 70.17028347 -65 64 C-65.66 63.34 -66.32 62.68 -67 62 C-66.34 62 -65.68 62 -65 62 C-65 54.08 -65 46.16 -65 38 C-67.64 38 -70.28 38 -73 38 C-73 45.26 -73 52.52 -73 60 C-71.35 60.66 -69.7 61.32 -68 62 C-68.44829514 63.98146451 -68.90892498 65.96014211 -69.375 67.9375 C-69.63023438 69.03964844 -69.88546875 70.14179688 -70.1484375 71.27734375 C-70.42945313 72.17582031 -70.71046875 73.07429688 -71 74 C-71.99 74.495 -71.99 74.495 -73 75 C-72.835 74.34 -72.67 73.68 -72.5 73 C-71.87816701 69.26900206 -71.93591074 65.78126622 -72 62 C-73.32 61.67 -74.64 61.34 -76 61 C-76.04898438 61.67546875 -76.09796875 62.3509375 -76.1484375 63.046875 C-76.22320312 63.93890625 -76.29796875 64.8309375 -76.375 65.75 C-76.44460937 66.63171875 -76.51421875 67.5134375 -76.5859375 68.421875 C-76.99850055 70.99066382 -77.71160957 72.75841015 -79 75 C-80.58139421 71.83721158 -78.95221046 69.30473042 -78 66 C-77.83071457 63.20755955 -77.83071457 63.20755955 -78 61 C-79.98 61 -81.96 61 -84 61 C-84.103125 62.19625 -84.20625 63.3925 -84.3125 64.625 C-84.92327237 69.54608022 -86.4477289 73.4477289 -90 77 C-90.99 76.67 -91.98 76.34 -93 76 C-91.68 75.01 -90.36 74.02 -89 73 C-89.47205119 68.75153925 -91.88877522 66.73180712 -95 64 C-95.66 64 -96.32 64 -97 64 C-97.33 65.65 -97.66 67.3 -98 69 C-98.66 69 -99.32 69 -100 69 C-100 67.35 -100 65.7 -100 64 C-98.68 63.34 -97.36 62.68 -96 62 C-96 61.01 -96 60.02 -96 59 C-96.928125 59.0825 -97.85625 59.165 -98.8125 59.25 C-102 59 -102 59 -103.875 57 C-104.24625 56.34 -104.6175 55.68 -105 55 C-103.56036361 51.64084842 -101.87583411 49.28375062 -99 47 C-96.78155374 47.19015254 -95.58477845 47.41522155 -94 49 C-93.95936168 50.66617115 -93.957279 52.33388095 -94 54 C-92.02 54.33 -90.04 54.66 -88 55 C-87.67 43.78 -87.34 32.56 -87 21 C-83.7 21 -80.4 21 -77 21 C-77 33.87 -77 46.74 -77 60 C-76.01 60 -75.02 60 -74 60 C-74 52.41 -74 44.82 -74 37 C-70.7 37 -67.4 37 -64 37 C-63.67 46.9 -63.34 56.8 -63 67 C-62.34 67 -61.68 67 -61 67 C-61 55.12 -61 43.24 -61 31 C-57.7 31 -54.4 31 -51 31 C-51 43.21 -51 55.42 -51 68 C-50.01 68 -49.02 68 -48 68 C-48 61.73 -48 55.46 -48 49 C-44.7 49 -41.4 49 -38 49 C-38 55.27 -38 61.54 -38 68 C-37.01 68 -36.02 68 -35 68 C-35 55.79 -35 43.58 -35 31 C-31.7 31 -28.4 31 -25 31 C-25 43.21 -25 55.42 -25 68 C-24.01 68 -23.02 68 -22 68 C-22 60.41 -22 52.82 -22 45 C-18.7 45 -15.4 45 -12 45 C-12 52.59 -12 60.18 -12 68 C-10.35 68 -8.7 68 -7 68 C-7 68.33 -7 68.66 -7 69 C-23.83 69 -40.66 69 -58 69 C-58 71.64 -58 74.28 -58 77 C-58.495 78.98 -58.495 78.98 -59 81 C-32.27 80.505 -32.27 80.505 -5 80 C-5 60.53 -5 41.06 -5 21 C-7.97 22.98 -10.94 24.96 -14 27 C-14.66 27 -15.32 27 -16 27 C-15.5359375 25.88625 -15.5359375 25.88625 -15.0625 24.75 C-13.59001036 19.55297775 -13.33050945 14.37512737 -13 9 C-13.78375 9.185625 -14.5675 9.37125 -15.375 9.5625 C-18 10 -18 10 -20 9 C-20.33 10.65 -20.66 12.3 -21 14 C-22 11 -22 11 -22.5 8.4375 C-22.88942398 6.00585058 -22.88942398 6.00585058 -24 4 C-20.125 5.875 -20.125 5.875 -19 7 C-16.66702567 7.04092937 -14.33294775 7.04241723 -12 7 C-12.99 5.35 -13.98 3.7 -15 2 C-14.443125 2.350625 -13.88625 2.70125 -13.3125 3.0625 C-10.36840892 4.25605044 -8.99814077 3.97439575 -6 3 C-1.8 0 -1.8 0 0 0 Z " fill="#4B4A85" transform="translate(175,79)"/>
<path d="M0 0 C2.37987373 3.36204384 2.36411616 6.39530774 2.28515625 10.37109375 C2.27782471 11.12237549 2.27049316 11.87365723 2.26293945 12.64770508 C1.93287328 22.22165521 -2.02657275 30.01931098 -6.27734375 38.43359375 C-6.93734375 38.43359375 -7.59734375 38.43359375 -8.27734375 38.43359375 C-8.48359375 38.96984375 -8.68984375 39.50609375 -8.90234375 40.05859375 C-10.80984801 43.35337384 -13.32553759 46.02723003 -16.27734375 48.43359375 C-16.93734375 48.43359375 -17.59734375 48.43359375 -18.27734375 48.43359375 C-18.60734375 49.42359375 -18.93734375 50.41359375 -19.27734375 51.43359375 C-19.93734375 51.43359375 -20.59734375 51.43359375 -21.27734375 51.43359375 C-21.26574219 52.16964844 -21.25414062 52.90570313 -21.2421875 53.6640625 C-21.23316406 54.63988281 -21.22414062 55.61570313 -21.21484375 56.62109375 C-21.20324219 57.58402344 -21.19164062 58.54695313 -21.1796875 59.5390625 C-21.27247753 62.28935888 -21.6562269 64.75838966 -22.27734375 67.43359375 C-22.93734375 67.43359375 -23.59734375 67.43359375 -24.27734375 67.43359375 C-24.27734375 89.54359375 -24.27734375 111.65359375 -24.27734375 134.43359375 C-50.15234375 134.37109375 -50.15234375 134.37109375 -58.32373047 134.34350586 C-60.45149689 134.34058635 -62.57926386 134.33803788 -64.70703125 134.3359375 C-65.81957275 134.33082153 -66.93211426 134.32570557 -68.07836914 134.32043457 C-69.13386963 134.32031372 -70.18937012 134.32019287 -71.27685547 134.32006836 C-72.65585526 134.31673744 -72.65585526 134.31673744 -74.06271362 134.31333923 C-76.31884963 134.28848846 -76.31884963 134.28848846 -78.27734375 135.43359375 C-77.61734375 136.09359375 -76.95734375 136.75359375 -76.27734375 137.43359375 C-77.26734375 137.76359375 -78.25734375 138.09359375 -79.27734375 138.43359375 C-80.92734375 136.45359375 -82.57734375 134.47359375 -84.27734375 132.43359375 C-57.05234375 131.93859375 -57.05234375 131.93859375 -29.27734375 131.43359375 C-29.22835937 126.84839844 -29.179375 122.26320313 -29.12890625 117.5390625 C-29.09352499 114.63604549 -29.05756801 111.73305858 -29.01953125 108.83007812 C-28.95919925 104.22131638 -28.90101231 99.61259681 -28.85546875 95.00366211 C-28.81862139 91.28825736 -28.77226323 87.57308238 -28.71928024 83.85787392 C-28.70073331 82.43973123 -28.68562642 81.02153929 -28.67399979 79.60332298 C-28.65714325 77.61850742 -28.626973 75.63381837 -28.59619141 73.64916992 C-28.58286774 72.51887863 -28.56954407 71.38858734 -28.55581665 70.2240448 C-28.27734375 67.43359375 -28.27734375 67.43359375 -26.27734375 64.43359375 C-25.98281791 62.04682299 -25.78452205 59.64733281 -25.65234375 57.24609375 C-25.57757813 55.97378906 -25.5028125 54.70148438 -25.42578125 53.390625 C-25.37679687 52.41480469 -25.3278125 51.43898437 -25.27734375 50.43359375 C-25.8084375 50.80613281 -26.33953125 51.17867187 -26.88671875 51.5625 C-27.593125 52.03558594 -28.29953125 52.50867188 -29.02734375 52.99609375 C-30.07148438 53.70958984 -30.07148438 53.70958984 -31.13671875 54.4375 C-33.27734375 55.43359375 -33.27734375 55.43359375 -35.54296875 55.0859375 C-36.1153125 54.87066406 -36.68765625 54.65539062 -37.27734375 54.43359375 C-37.27734375 54.76359375 -37.27734375 55.09359375 -37.27734375 55.43359375 C-37.27734375 56.09359375 -37.27734375 56.75359375 -37.27734375 57.43359375 C-40.12246252 58.48505069 -41.34033752 58.89814658 -44.27734375 58.43359375 C-48.16377512 55.94041136 -51.50403415 53.13319991 -54.27734375 49.43359375 C-54.5625 46.125 -54.5625 46.125 -54.27734375 43.43359375 C-53.28734375 43.43359375 -52.29734375 43.43359375 -51.27734375 43.43359375 C-52.26734375 42.93859375 -52.26734375 42.93859375 -53.27734375 42.43359375 C-52.83419561 39.42018637 -52.17336464 37.22996799 -50.77734375 34.49609375 C-49.12066478 31.57708796 -49.12066478 31.57708796 -49.02734375 28.62109375 C-47.84175506 23.58234183 -44.62135886 20.28427782 -41.27734375 16.43359375 C-40.77332031 15.82257812 -40.26929688 15.2115625 -39.75 14.58203125 C-31.98698993 5.93012689 -11.14163183 -7.66345517 0 0 Z " fill="#F9FAFB" transform="translate(200.27734375,28.56640625)"/>
<path d="M0 0 C2.64 0 5.28 0 8 0 C7.99476318 0.7520874 7.98952637 1.5041748 7.98413086 2.27905273 C7.96342773 5.66519342 7.95036123 9.05132084 7.9375 12.4375 C7.92493164 14.21350586 7.92493164 14.21350586 7.91210938 16.02539062 C7.90888672 17.15009766 7.90566406 18.27480469 7.90234375 19.43359375 C7.89710693 20.47572021 7.89187012 21.51784668 7.88647461 22.59155273 C7.72694444 24.95128747 7.72694444 24.95128747 9 26 C8.91062197 27.52519276 8.75462854 29.04681929 8.5625 30.5625 C8.46066406 31.38878906 8.35882813 32.21507812 8.25390625 33.06640625 C8.17011719 33.70449219 8.08632812 34.34257812 8 35 C8.66 33.35 9.32 31.7 10 30 C11.32 30.33 12.64 30.66 14 31 C13.59860067 42.13883146 11.77878338 53.0536697 5.05078125 62.21875 C3.63580174 64.39397818 3.63580174 64.39397818 3 69 C-3.6 69 -10.2 69 -17 69 C-17.33 66.69 -17.66 64.38 -18 62 C-18.66 61.01 -19.32 60.02 -20 59 C-20 58.01 -20 57.02 -20 56 C-20.99 55.67 -21.98 55.34 -23 55 C-25.49541735 48.97629387 -25.23384937 42.99717213 -25.125 36.5625 C-25.11597656 35.54478516 -25.10695313 34.52707031 -25.09765625 33.47851562 C-25.07424698 30.98542844 -25.041457 28.49284141 -25 26 C-21 26 -21 26 -19.26171875 27.171875 C-18.74222656 27.69265625 -18.22273438 28.2134375 -17.6875 28.75 C-17.15511719 29.26046875 -16.62273437 29.7709375 -16.07421875 30.296875 C-15 32 -15 32 -15.33203125 34.140625 C-15.55246094 34.75421875 -15.77289063 35.3678125 -16 36 C-16 36.33 -16 36.66 -16 37 C-12.75441594 30.24494398 -12.75441594 30.24494398 -11 23 C-9.0085944 22.61866701 -7.00720923 22.28674418 -5 22 C-4.67 22.33 -4.34 22.66 -4 23 C-4.1770436 26.02116333 -4.61920903 28.99598232 -5 32 C-4.34 29.03 -3.68 26.06 -3 23 C-1.35 23.33 0.3 23.66 2 24 C2 26.64 2 29.28 2 32 C2.99 28.535 2.99 28.535 4 25 C3.34805664 24.61030029 2.69611328 24.22060059 2.02441406 23.8190918 C0 22 0 22 -0.45410156 19.63989258 C-0.42268066 18.28093872 -0.42268066 18.28093872 -0.390625 16.89453125 C-0.37128906 15.42016602 -0.37128906 15.42016602 -0.3515625 13.91601562 C-0.31804687 12.89185547 -0.28453125 11.86769531 -0.25 10.8125 C-0.23195313 9.77673828 -0.21390625 8.74097656 -0.1953125 7.67382812 C-0.14814437 5.11495716 -0.08234057 2.55794158 0 0 Z " fill="#F9FAFB" transform="translate(102,117)"/>
<path d="M0 0 C5.37203167 2.34831559 8.63163727 6.41104133 11.58203125 11.3828125 C13.54414916 17.26916623 13.59901725 23.98516827 11.01953125 29.6953125 C8.17130015 34.61406621 4.10117984 37.88494037 -0.73046875 40.7578125 C-7.53068287 42.33925764 -13.55763796 42.09300761 -19.66796875 38.58203125 C-24.35765729 35.36833843 -27.58961898 31.77163287 -29.41796875 26.3828125 C-30.28076528 19.12015162 -30.32924594 12.97827624 -25.84765625 6.96484375 C-18.73180097 -0.90925841 -10.26291789 -2.61961394 0 0 Z " fill="#F8F9FB" transform="translate(60.41796875,88.6171875)"/>
<path d="M0 0 C2.98938494 3.50185093 2.58904603 6.05193286 2.36328125 10.515625 C2.27626953 11.52882813 2.27626953 11.52882813 2.1875 12.5625 C0.2075 13.5525 0.2075 13.5525 -1.8125 14.5625 C-1.8125 15.2225 -1.8125 15.8825 -1.8125 16.5625 C-3.1325 16.5625 -4.4525 16.5625 -5.8125 16.5625 C-5.4825 17.5525 -5.1525 18.5425 -4.8125 19.5625 C-5.4725 19.5625 -6.1325 19.5625 -6.8125 19.5625 C-7.1425 21.5425 -7.4725 23.5225 -7.8125 25.5625 C-5.8325 25.5625 -3.8525 25.5625 -1.8125 25.5625 C-1.8125 25.8925 -1.8125 26.2225 -1.8125 26.5625 C-5.1125 26.5625 -8.4125 26.5625 -11.8125 26.5625 C-11.8125 38.7725 -11.8125 50.9825 -11.8125 63.5625 C-12.8025 63.5625 -13.7925 63.5625 -14.8125 63.5625 C-14.8125 57.2925 -14.8125 51.0225 -14.8125 44.5625 C-18.1125 44.5625 -21.4125 44.5625 -24.8125 44.5625 C-24.8125 50.8325 -24.8125 57.1025 -24.8125 63.5625 C-25.8025 63.5625 -26.7925 63.5625 -27.8125 63.5625 C-27.8125 51.3525 -27.8125 39.1425 -27.8125 26.5625 C-28.4725 26.2325 -29.1325 25.9025 -29.8125 25.5625 C-28.15635343 25.18031233 -26.48792976 24.84854898 -24.8125 24.5625 C-24.4825 24.8925 -24.1525 25.2225 -23.8125 25.5625 C-23.8125 24.5725 -23.8125 23.5825 -23.8125 22.5625 C-22.8225 21.9025 -21.8325 21.2425 -20.8125 20.5625 C-19.96907503 17.72571105 -19.96907503 17.72571105 -19.4375 14.4375 C-18.21838466 8.70384818 -16.79460935 3.96873934 -12.8125 -0.4375 C-8.08433218 -3.39260489 -4.75800655 -2.43187002 0 0 Z " fill="#F0F3F9" transform="translate(151.8125,83.4375)"/>
<path d="M0 0 C2.32748694 0.68679942 4.65986656 1.35761043 7 2 C7 2.99 7 3.98 7 5 C6.01 5.66 5.02 6.32 4 7 C3.7791436 9.95064148 3.71939011 12.68368231 3.8125 15.625 C3.82603516 16.42679688 3.83957031 17.22859375 3.85351562 18.0546875 C3.88890949 20.03674378 3.94271766 22.01845551 4 24 C-0.96622349 24.02465098 -5.93241166 24.04283649 -10.89868164 24.05493164 C-12.58944316 24.0599719 -14.28020029 24.06680405 -15.97094727 24.07543945 C-18.39600707 24.08751857 -20.82100944 24.09323123 -23.24609375 24.09765625 C-24.38672523 24.10539818 -24.38672523 24.10539818 -25.55039978 24.11329651 C-27.3673257 24.11349238 -29.18413127 24.06197277 -31 24 C-32 23 -32 23 -32.11352539 20.86694336 C-32.10828857 19.95050049 -32.10305176 19.03405762 -32.09765625 18.08984375 C-32.09443359 17.10048828 -32.09121094 16.11113281 -32.08789062 15.09179688 C-32.07951172 14.05087891 -32.07113281 13.00996094 -32.0625 11.9375 C-32.05798828 10.89271484 -32.05347656 9.84792969 -32.04882812 8.77148438 C-32.03699913 6.1809334 -32.02051689 3.59049441 -32 1 C-30.39898437 1.23783203 -30.39898437 1.23783203 -28.765625 1.48046875 C-20.62735148 2.60328035 -15.16839389 2.07533411 -7.578125 -1.3203125 C-4.30194285 -2.18403325 -2.98935136 -1.47287328 0 0 Z " fill="#F9F9FA" transform="translate(72,136)"/>
<path d="M0 0 C2.27734375 1.56640625 2.27734375 1.56640625 4 4 C4.43673406 6.81618167 4.61828567 9.12858253 4.5625 11.9375 C4.55516846 12.68878174 4.54783691 13.44006348 4.5402832 14.21411133 C4.21021703 23.78806146 0.250771 31.58571723 -4 40 C-4.66 40 -5.32 40 -6 40 C-6.20625 40.53625 -6.4125 41.0725 -6.625 41.625 C-8.53250426 44.91978009 -11.04819384 47.59363628 -14 50 C-14.66 50 -15.32 50 -16 50 C-16.33 50.99 -16.66 51.98 -17 53 C-17.66 53 -18.32 53 -19 53 C-18.98839844 53.73605469 -18.97679687 54.47210938 -18.96484375 55.23046875 C-18.95582031 56.20628906 -18.94679687 57.18210938 -18.9375 58.1875 C-18.92589844 59.15042969 -18.91429687 60.11335938 -18.90234375 61.10546875 C-18.99513378 63.85576513 -19.37888315 66.32479591 -20 69 C-20.66 69 -21.32 69 -22 69 C-22 91.11 -22 113.22 -22 136 C-47.875 135.9375 -47.875 135.9375 -56.04638672 135.90991211 C-58.17415314 135.9069926 -60.30192011 135.90444413 -62.4296875 135.90234375 C-63.542229 135.89722778 -64.65477051 135.89211182 -65.80102539 135.88684082 C-66.85652588 135.88671997 -67.91202637 135.88659912 -68.99951172 135.88647461 C-70.37851151 135.88314369 -70.37851151 135.88314369 -71.78536987 135.87974548 C-74.04150588 135.85489471 -74.04150588 135.85489471 -76 137 C-75.34 137.66 -74.68 138.32 -74 139 C-74.99 139.33 -75.98 139.66 -77 140 C-78.65 138.02 -80.3 136.04 -82 134 C-54.775 133.505 -54.775 133.505 -27 133 C-26.95101562 128.41480469 -26.90203125 123.82960938 -26.8515625 119.10546875 C-26.81618124 116.20245174 -26.78022426 113.29946483 -26.7421875 110.39648438 C-26.6818555 105.78772263 -26.62366856 101.17900306 -26.578125 96.57006836 C-26.54127764 92.85466361 -26.49491948 89.13948863 -26.44193649 85.42428017 C-26.42338956 84.00613748 -26.40828267 82.58794554 -26.39665604 81.16972923 C-26.3797995 79.18491367 -26.34962925 77.20022462 -26.31884766 75.21557617 C-26.30552399 74.08528488 -26.29220032 72.95499359 -26.2784729 71.79045105 C-26 69 -26 69 -24 66 C-23.85296936 63.56551182 -23.77894661 61.1262523 -23.75 58.6875 C-23.58749544 54.09961881 -23.45509646 50.46331098 -20.0625 47.0625 C-17 45 -17 45 -15 45 C-14.74089844 44.43925781 -14.48179687 43.87851563 -14.21484375 43.30078125 C-12.8640713 40.7425659 -11.27130857 38.52103429 -9.5625 36.1875 C-4.28609693 28.84149883 -4.28609693 28.84149883 -3.3125 20.0625 C-3.539375 19.051875 -3.76625 18.04125 -4 17 C-3.34 17.33 -2.68 17.66 -2 18 C-0.46733418 14.93466836 -0.89723529 11.73245728 -0.9375 8.375 C-0.94201172 7.66859375 -0.94652344 6.9621875 -0.95117188 6.234375 C-0.96296125 4.48954725 -0.98089676 2.744763 -1 1 C-3.3134359 1.4746275 -5.62573019 1.95482279 -7.9375 2.4375 C-9.22527344 2.70433594 -10.51304687 2.97117187 -11.83984375 3.24609375 C-14.84638879 3.67181616 -14.84638879 3.67181616 -16 5 C-14.68 6.32 -13.36 7.64 -12 9 C-15.3 8.01 -18.6 7.02 -22 6 C-18.27892195 3.20919146 -15.90888166 2.09662461 -11.5625 0.75 C-9.89380859 0.21632813 -9.89380859 0.21632813 -8.19140625 -0.328125 C-4.88389972 -1.02444216 -3.15404913 -1.15841537 0 0 Z " fill="#D4D5E0" transform="translate(198,27)"/>
<path d="M0 0 C2 0.875 2 0.875 4 2 C4.66 2.33 5.32 2.66 6 3 C8.62387135 1.60907108 8.62387135 1.60907108 11 0 C11.33 0.66 11.66 1.32 12 2 C15.71599191 2.20086443 16.77208445 2.1519437 20 0 C20.99 0.33 21.98 0.66 23 1 C22.02407041 7.05076344 20.93851944 13.76743303 16.125 17.9375 C10.10861617 21.90831333 5.16874366 22.88516499 -2 22 C-7.2941689 20.29961589 -11.56277575 17.40394357 -15 13 C-15.3125 10.1875 -15.3125 10.1875 -15 8 C-13.1875 6.9375 -13.1875 6.9375 -11 6 C-10.01 6.33 -9.02 6.66 -8 7 C-8.33 8.32 -8.66 9.64 -9 11 C-8.01 10.67 -7.02 10.34 -6 10 C-6 8.68 -6 7.36 -6 6 C-2.78571429 1.39285714 -2.78571429 1.39285714 0 0 Z " fill="#FAFBFB" transform="translate(49,108)"/>
<path d="M0 0 C2.64 0 5.28 0 8 0 C8 12.21 8 24.42 8 37 C6.02 37.66 4.04 38.32 2 39 C1.896875 40.19625 1.79375 41.3925 1.6875 42.625 C1.07672763 47.54608022 -0.4477289 51.4477289 -4 55 C-4.99 54.67 -5.98 54.34 -7 54 C-5.68 53.01 -4.36 52.02 -3 51 C-3.47205119 46.75153925 -5.88877522 44.73180712 -9 42 C-9.66 42 -10.32 42 -11 42 C-11.495 44.475 -11.495 44.475 -12 47 C-12.66 47 -13.32 47 -14 47 C-14 45.35 -14 43.7 -14 42 C-12.68 41.34 -11.36 40.68 -10 40 C-10 39.01 -10 38.02 -10 37 C-10.928125 37.0825 -11.85625 37.165 -12.8125 37.25 C-16 37 -16 37 -17.875 35 C-18.24625 34.34 -18.6175 33.68 -19 33 C-17.56036361 29.64084842 -15.87583411 27.28375062 -13 25 C-10.78155374 25.19015254 -9.58477845 25.41522155 -8 27 C-7.95936168 28.66617115 -7.957279 30.33388095 -8 32 C-6.02 32.33 -4.04 32.66 -2 33 C-2 33.99 -2 34.98 -2 36 C-1.34 36 -0.68 36 0 36 C0 24.12 0 12.24 0 0 Z " fill="#5B5DBE" transform="translate(89,101)"/>
<path d="M0 0 C3.3 0 6.6 0 10 0 C10 12.87 10 25.74 10 39 C10.99 39 11.98 39 13 39 C13 31.41 13 23.82 13 16 C16.3 16 19.6 16 23 16 C23.33 25.9 23.66 35.8 24 46 C24.66 46 25.32 46 26 46 C26 34.12 26 22.24 26 10 C28.97 10 31.94 10 35 10 C35 22.21 35 34.42 35 47 C33.68 46.67 32.36 46.34 31 46 C29.65863633 46.65035814 28.32467746 47.3162955 27 48 C25.515 47.505 25.515 47.505 24 47 C23.87882812 47.63808594 23.75765625 48.27617187 23.6328125 48.93359375 C23.46523437 49.75988281 23.29765625 50.58617187 23.125 51.4375 C22.96257812 52.26121094 22.80015625 53.08492187 22.6328125 53.93359375 C22.31957031 54.95646484 22.31957031 54.95646484 22 56 C21.01 56.495 21.01 56.495 20 57 C20.144375 56.40832031 20.28875 55.81664062 20.4375 55.20703125 C21.95040924 49.17028347 21.95040924 49.17028347 22 43 C21.34 42.34 20.68 41.68 20 41 C20.66 41 21.32 41 22 41 C22 33.08 22 25.16 22 17 C19.36 17 16.72 17 14 17 C14 24.26 14 31.52 14 39 C15.65 39.66 17.3 40.32 19 41 C18.55170486 42.98146451 18.09107502 44.96014211 17.625 46.9375 C17.24214844 48.59072266 17.24214844 48.59072266 16.8515625 50.27734375 C16.57054688 51.17582031 16.28953125 52.07429688 16 53 C15.01 53.495 15.01 53.495 14 54 C14.165 53.34 14.33 52.68 14.5 52 C15.12183299 48.26900206 15.06408926 44.78126622 15 41 C13.68 40.67 12.36 40.34 11 40 C10.95101562 40.67546875 10.90203125 41.3509375 10.8515625 42.046875 C10.77679688 42.93890625 10.70203125 43.8309375 10.625 44.75 C10.55539063 45.63171875 10.48578125 46.5134375 10.4140625 47.421875 C10.00149945 49.99066382 9.28839043 51.75841015 8 54 C6.41860579 50.83721158 8.04778954 48.30473042 9 45 C9.33592508 42.2895393 9.33592508 42.2895393 9 40 C8.34 39.34 7.68 38.68 7 38 C7.66 38 8.32 38 9 38 C9 25.79 9 13.58 9 1 C6.36 1 3.72 1 1 1 C1 12.88 1 24.76 1 37 C0.34 37 -0.32 37 -1 37 C-0.67 24.79 -0.34 12.58 0 0 Z " fill="#5558AF" transform="translate(88,100)"/>
<path d="M0 0 C0.99 1.485 0.99 1.485 2 3 C1.34 3 0.68 3 0 3 C-0.99 6.3 -1.98 9.6 -3 13 C-2.01 13.33 -1.02 13.66 0 14 C-0.66 14.33 -1.32 14.66 -2 15 C-2.99 14.505 -2.99 14.505 -4 14 C-2.92289822 18.30840713 -1.96052484 21.63576723 1 25 C-0.093125 24.835 -1.18625 24.67 -2.3125 24.5 C-5.87525873 23.93281816 -5.87525873 23.93281816 -9 24 C-8.34 23.62875 -7.68 23.2575 -7 22.875 C-4.64696955 21.09105222 -4.64696955 21.09105222 -4.75 17.8125 C-4.8325 16.884375 -4.915 15.95625 -5 15 C-11.61776809 16.57964808 -17.26239061 18.30242951 -23 22 C-23.38468294 16.61443879 -22.64366459 15.28732917 -20 10 C-50.03 10.33 -80.06 10.66 -111 11 C-110.67 10.01 -110.34 9.02 -110 8 C-108.84599197 7.99635437 -107.69198395 7.99270874 -106.50300598 7.98895264 C-95.62916352 7.95201626 -84.75560462 7.89425833 -73.88197803 7.81609726 C-68.29166805 7.77658304 -62.70151651 7.74441382 -57.11108398 7.72900391 C-51.71628386 7.71386345 -46.32191925 7.67946402 -40.92731285 7.63169098 C-38.86887077 7.61685028 -36.81036652 7.60895745 -34.75187111 7.60811615 C-31.86902015 7.60575286 -28.987379 7.57872442 -26.10473633 7.54589844 C-25.25309402 7.5509288 -24.40145172 7.55595917 -23.52400208 7.56114197 C-18.33350761 7.46966069 -15.88276627 6.71767843 -12 3 C-9.11788698 2.03929566 -7.30149956 1.89418117 -4.3125 1.9375 C-3.10013672 1.95103516 -3.10013672 1.95103516 -1.86328125 1.96484375 C-0.94095703 1.98224609 -0.94095703 1.98224609 0 2 C0 1.34 0 0.68 0 0 Z " fill="#7C7BC8" transform="translate(150,58)"/>
<path d="M0 0 C2.98938494 3.50185093 2.58904603 6.05193286 2.36328125 10.515625 C2.30527344 11.19109375 2.24726563 11.8665625 2.1875 12.5625 C0.2075 13.5525 0.2075 13.5525 -1.8125 14.5625 C-1.8125 15.2225 -1.8125 15.8825 -1.8125 16.5625 C-3.1325 16.5625 -4.4525 16.5625 -5.8125 16.5625 C-5.8125 17.2225 -5.8125 17.8825 -5.8125 18.5625 C-7.3936292 19.06942692 -8.97751383 19.56776443 -10.5625 20.0625 C-11.44421875 20.3409375 -12.3259375 20.619375 -13.234375 20.90625 C-15.8125 21.5625 -15.8125 21.5625 -19.8125 21.5625 C-19.6478588 13.68965737 -18.46210489 7.08191919 -13.8125 0.5625 C-8.60358853 -3.23566461 -5.50995605 -2.81619976 0 0 Z " fill="#F3F2F8" transform="translate(151.8125,83.4375)"/>
<path d="M0 0 C0.33 0 0.66 0 1 0 C1 3.96 1 7.92 1 12 C2.65 11.34 4.3 10.68 6 10 C15.26370124 8.95586067 23.27593441 10.08121664 31.03125 15.390625 C34.82906431 18.44818737 37.70397309 21.69494954 40 26 C39.505 27.485 39.505 27.485 39 29 C38.63648438 28.48050781 38.27296875 27.96101563 37.8984375 27.42578125 C34.62541509 22.8855117 31.38033984 19.46352452 27 16 C26.505 15.01 26.505 15.01 26 14 C22.01624339 12.82830688 18.12560776 12.91910573 14 13 C13.67 13.99 13.34 14.98 13 16 C16.63 16.66 20.26 17.32 24 18 C24.495 19.485 24.495 19.485 25 21 C27.01508358 21.73323796 27.01508358 21.73323796 29 22 C28.505 23.485 28.505 23.485 28 25 C26.6078125 24.0409375 26.6078125 24.0409375 25.1875 23.0625 C19.1256996 19.14015857 13.03908895 19.28359568 6 20 C0.5732511 21.84630249 -3.36331451 25.59156566 -6.15625 30.5546875 C-8.30570974 36.78414027 -7.99554629 43.59409646 -5.5 49.625 C-5.005 50.40875 -4.51 51.1925 -4 52 C-4 52.99 -4 53.98 -4 55 C-6.72366837 53.82755997 -8.10710132 53.19942485 -10 51 C-10.97219104 47.10576969 -10.88225808 43.30795444 -10.8125 39.3125 C-10.84408203 38.26126953 -10.87566406 37.21003906 -10.90820312 36.12695312 C-10.86851045 27.01464827 -7.49342437 22.5391525 -1.27270508 16.25512695 C-0.64271606 15.63383911 -0.64271606 15.63383911 0 15 C-1.32 15.33 -2.64 15.66 -4 16 C-3.27876953 15.46439453 -3.27876953 15.46439453 -2.54296875 14.91796875 C-0.31575162 12.14945328 -0.48605989 9.81840977 -0.3125 6.3125 C-0.24675781 5.13300781 -0.18101563 3.95351562 -0.11328125 2.73828125 C-0.07589844 1.83464844 -0.03851563 0.93101563 0 0 Z " fill="#565BC0" transform="translate(39,69)"/>
<path d="M0 0 C9.24 0 18.48 0 28 0 C28 3.3 28 6.6 28 10 C18.76 10 9.52 10 0 10 C0 6.7 0 3.4 0 0 Z " fill="#FAFBFD" transform="translate(81,187)"/>
<path d="M0 0 C2.27734375 1.56640625 2.27734375 1.56640625 4 4 C4.43673406 6.81618167 4.61828567 9.12858253 4.5625 11.9375 C4.55516846 12.68878174 4.54783691 13.44006348 4.5402832 14.21411133 C4.21021703 23.78806146 0.250771 31.58571723 -4 40 C-4.66 40 -5.32 40 -6 40 C-6.2475 40.639375 -6.495 41.27875 -6.75 41.9375 C-8 44 -8 44 -9.75 44.5 C-10.86375 44.7475 -10.86375 44.7475 -12 45 C-15.34437346 47.04757559 -18.36872278 49.07635865 -21 52 C-21.66 51.67 -22.32 51.34 -23 51 C-22.0479279 49.99403703 -21.08812654 48.99538437 -20.125 48 C-19.59132812 47.443125 -19.05765625 46.88625 -18.5078125 46.3125 C-17 45 -17 45 -15 45 C-14.74089844 44.43925781 -14.48179687 43.87851563 -14.21484375 43.30078125 C-12.8640713 40.7425659 -11.27130857 38.52103429 -9.5625 36.1875 C-4.28609693 28.84149883 -4.28609693 28.84149883 -3.3125 20.0625 C-3.6528125 18.5465625 -3.6528125 18.5465625 -4 17 C-3.34 17.33 -2.68 17.66 -2 18 C-0.46733418 14.93466836 -0.89723529 11.73245728 -0.9375 8.375 C-0.94201172 7.66859375 -0.94652344 6.9621875 -0.95117188 6.234375 C-0.96296125 4.48954725 -0.98089676 2.744763 -1 1 C-3.3134359 1.4746275 -5.62573019 1.95482279 -7.9375 2.4375 C-9.22527344 2.70433594 -10.51304687 2.97117187 -11.83984375 3.24609375 C-14.84638879 3.67181616 -14.84638879 3.67181616 -16 5 C-14.68 6.32 -13.36 7.64 -12 9 C-15.3 8.01 -18.6 7.02 -22 6 C-18.27892195 3.20919146 -15.90888166 2.09662461 -11.5625 0.75 C-10.45003906 0.39421875 -9.33757812 0.0384375 -8.19140625 -0.328125 C-4.88389972 -1.02444216 -3.15404913 -1.15841537 0 0 Z " fill="#D9DAE8" transform="translate(198,27)"/>
<path d="M0 0 C0.10823773 2.24893954 0.18569645 4.49937575 0.25 6.75 C0.29640625 8.00296875 0.3428125 9.2559375 0.390625 10.546875 C-0.06975391 14.61662457 -0.96658381 15.4159788 -4 18 C-4.33 18.68578125 -4.66 19.3715625 -5 20.078125 C-6.26953461 22.51801183 -7.65423784 23.35289165 -10 24.75 C-10.70125 25.17796875 -11.4025 25.6059375 -12.125 26.046875 C-14 27 -14 27 -16 27 C-15.690625 26.2575 -15.38125 25.515 -15.0625 24.75 C-13.59001036 19.55297775 -13.33050945 14.37512737 -13 9 C-13.78375 9.185625 -14.5675 9.37125 -15.375 9.5625 C-18 10 -18 10 -20 9 C-20.33 10.65 -20.66 12.3 -21 14 C-22 11 -22 11 -22.5 8.4375 C-22.88942398 6.00585058 -22.88942398 6.00585058 -24 4 C-20.125 5.875 -20.125 5.875 -19 7 C-16.66702567 7.04092937 -14.33294775 7.04241723 -12 7 C-12.99 5.35 -13.98 3.7 -15 2 C-14.443125 2.350625 -13.88625 2.70125 -13.3125 3.0625 C-10.36840892 4.25605044 -8.99814077 3.97439575 -6 3 C-1.8 0 -1.8 0 0 0 Z " fill="#5C5C9C" transform="translate(175,79)"/>
<path d="M0 0 C0.99 0.495 0.99 0.495 2 1 C2 8.59 2 16.18 2 24 C13.55 24.33 25.1 24.66 37 25 C37 21.04 37 17.08 37 13 C37.33 13 37.66 13 38 13 C38.04898438 14.14597656 38.09796875 15.29195312 38.1484375 16.47265625 C38.22352801 18.00262535 38.29907306 19.53257218 38.375 21.0625 C38.4059375 21.81466797 38.436875 22.56683594 38.46875 23.34179688 C38.72014111 28.18107584 39.34754208 32.4289923 41 37 C41.99 37.495 41.99 37.495 43 38 C46.0534034 42.93242087 46 44.7541302 46 51 C52.6 51 59.2 51 66 51 C66.33 48.69 66.66 46.38 67 44 C68.5625 42.0625 68.5625 42.0625 70 41 C69.67 42.32 69.34 43.64 69 45 C69.66 45.33 70.32 45.66 71 46 C70.525625 46.45375 70.05125 46.9075 69.5625 47.375 C67.90972192 48.93258204 67.90972192 48.93258204 67 51 C68.32 51 69.64 51 71 51 C71 55.29 71 59.58 71 64 C60.77 64 50.54 64 40 64 C40 59.38 40 54.76 40 50 C41.65 50 43.3 50 45 50 C44.65555119 47.52733235 44.65555119 47.52733235 44 45 C43.01 44.505 43.01 44.505 42 44 C40.7109375 41.7421875 40.7109375 41.7421875 39.375 38.875 C38.92898437 37.94429687 38.48296875 37.01359375 38.0234375 36.0546875 C36.85011827 32.55264307 36.92904503 29.67070117 37 26 C35.37203491 26.00785522 35.37203491 26.00785522 33.71118164 26.01586914 C29.69882018 26.03391836 25.68646233 26.04543171 21.67407227 26.05493164 C19.93480832 26.05997204 18.19554864 26.0668043 16.45629883 26.07543945 C13.96174063 26.08751792 11.46723827 26.09323108 8.97265625 26.09765625 C8.19036148 26.10281754 7.40806671 26.10797882 6.60206604 26.11329651 C4.73432886 26.11349226 2.86670796 26.06199694 1 26 C0 25 0 25 -0.11352539 22.59155273 C-0.10828857 21.54942627 -0.10305176 20.5072998 -0.09765625 19.43359375 C-0.09443359 18.30888672 -0.09121094 17.18417969 -0.08789062 16.02539062 C-0.07951172 14.84138672 -0.07113281 13.65738281 -0.0625 12.4375 C-0.05798828 11.24962891 -0.05347656 10.06175781 -0.04882812 8.83789062 C-0.03699675 5.89187774 -0.02051287 2.94596319 0 0 Z M42 52 C42 55.3 42 58.6 42 62 C51.24 62 60.48 62 70 62 C70 58.7 70 55.4 70 52 C60.76 52 51.52 52 42 52 Z " fill="#49496B" transform="translate(39,135)"/>
<path d="M0 0 C0.99 0.495 0.99 0.495 2 1 C2 4.3 2 7.6 2 11 C3.32 11.33 4.64 11.66 6 12 C6 12.66 6 13.32 6 14 C9.63311582 12.78896139 12.27773234 11.72226766 15 9 C16 10 16 10 16.11352539 13.41821289 C16.11336628 14.93636988 16.10767226 16.45453229 16.09765625 17.97265625 C16.0962413 18.77029892 16.09482635 19.56794159 16.09336853 20.38975525 C16.08775316 22.94737435 16.07519812 25.50490718 16.0625 28.0625 C16.05748698 29.79231645 16.05292373 31.52213426 16.04882812 33.25195312 C16.03777875 37.50133553 16.02050386 41.75065312 16 46 C15.34 46 14.68 46 14 46 C12.96025501 42.58934861 12.88491494 39.47735158 12.90234375 35.921875 C12.90556641 34.76171875 12.90878906 33.6015625 12.91210938 32.40625 C12.92048828 31.1996875 12.92886719 29.993125 12.9375 28.75 C12.94201172 27.52796875 12.94652344 26.3059375 12.95117188 25.046875 C12.96295185 22.03120054 12.97940147 19.01562502 13 16 C9.7 16 6.4 16 3 16 C3 23.59 3 31.18 3 39 C2.01 39 1.02 39 0 39 C0 26.13 0 13.26 0 0 Z " fill="#E7EDFA" transform="translate(98,100)"/>
<path d="M0 0 C9.9389332 -0.6168993 9.9389332 -0.6168993 13.6875 1.5625 C15.52035388 4.96637149 15.54407614 7.19146701 15 11 C13.07017583 13.71604883 11.65799225 14.74692606 8.5625 15.9375 C5.1528946 16.02066111 3.66217729 15.08657139 1 13 C-1.56240146 9.58346473 -1.23025278 6.14454999 -1 2 C-0.67 1.34 -0.34 0.68 0 0 Z " fill="#D1D0D9" transform="translate(169,45)"/>
<path d="M0 0 C1.98 0 3.96 0 6 0 C6 12.21 6 24.42 6 37 C3.03 37.495 3.03 37.495 0 38 C0 25.46 0 12.92 0 0 Z " fill="#5C5FDD" transform="translate(91,101)"/>
<path d="M0 0 C3.84827016 3.46344315 5.71082848 6.45378845 6.30078125 11.6484375 C6.32625682 17.57575282 5.79991729 21.75015509 3 27 C2.375 25.25 2.375 25.25 2 23 C2.65035814 21.65863633 3.3162955 20.32467746 4 19 C3.67 18.01 3.34 17.02 3 16 C0.13655228 15.84649861 0.13655228 15.84649861 -1.9375 16.625 C-4 17 -4 17 -5.9375 15.875 C-6.618125 15.58625 -7.29875 15.2975 -8 15 C-10.74832154 16.28184562 -10.74832154 16.28184562 -13 18 C-13.4125 17.525625 -13.825 17.05125 -14.25 16.5625 C-16.182185 14.83733482 -17.48192275 14.43415125 -20 14 C-18.68 13.34 -17.36 12.68 -16 12 C-15.01 12.99 -14.02 13.98 -13 15 C-10.75928906 13.99554337 -9.12245015 13.12245015 -7.375 11.375 C-6.92125 10.92125 -6.4675 10.4675 -6 10 C-5.34 10 -4.68 10 -4 10 C-4 9.34 -4 8.68 -4 8 C-4.99 7.67 -5.98 7.34 -7 7 C-6.38125 6.9175 -5.7625 6.835 -5.125 6.75 C-2.83911206 6.19416524 -2.83911206 6.19416524 -1.8125 4.0625 C-1.544375 3.381875 -1.27625 2.70125 -1 2 C-0.67 1.34 -0.34 0.68 0 0 Z " fill="#D3D5E2" transform="translate(67,94)"/>
<path d="M0 0 C2.64 0 5.28 0 8 0 C8 7.26 8 14.52 8 22 C5.36 22 2.72 22 0 22 C0 14.74 0 7.48 0 0 Z " fill="#EDEDF5" transform="translate(154,125)"/>
<path d="M0 0 C0.99 0 1.98 0 3 0 C3.33 4.62 3.66 9.24 4 14 C4.66 14 5.32 14 6 14 C6.11613204 17.10385211 6.18722029 20.20714662 6.25 23.3125 C6.28351563 24.19357422 6.31703125 25.07464844 6.3515625 25.98242188 C6.45066069 32.49812787 6.45066069 32.49812787 4.109375 35.10546875 C2 36 2 36 0 36 C0 24.12 0 12.24 0 0 Z " fill="#7077F0" transform="translate(141,111)"/>
<path d="M0 0 C0 12.21 0 24.42 0 37 C-2.31 37 -4.62 37 -7 37 C-6.2733313 36.39514771 -6.2733313 36.39514771 -5.53198242 35.77807617 C-3.63082835 33.57152555 -3.5848884 32.42967446 -3.48828125 29.55078125 C-3.45283203 28.70322266 -3.41738281 27.85566406 -3.38085938 26.98242188 C-3.35830078 26.10134766 -3.33574219 25.22027344 -3.3125 24.3125 C-3.27833984 23.41982422 -3.24417969 22.52714844 -3.20898438 21.60742188 C-3.12654352 19.40507329 -3.05738449 17.20312062 -3 15 C-3.66 15 -4.32 15 -5 15 C-5.33 15.99 -5.66 16.98 -6 18 C-6 12.39 -6 6.78 -6 1 C-1 0 -1 0 0 0 Z " fill="#5B5FC4" transform="translate(150,110)"/>
<path d="M0 0 C-1.24251733 3.72755198 -3.20751579 5.27400351 -6 8 C-8.72425064 11.06008394 -9.36767789 12.90027548 -9.29296875 16.984375 C-9.28330078 17.91894531 -9.27363281 18.85351562 -9.26367188 19.81640625 C-9.23853516 20.78449219 -9.21339844 21.75257812 -9.1875 22.75 C-9.17396484 23.73355469 -9.16042969 24.71710938 -9.14648438 25.73046875 C-9.11118726 28.15420415 -9.06188054 30.57682145 -9 33 C-9.99 33.495 -9.99 33.495 -11 34 C-12.0541518 30.83754459 -12.31275672 28.13051782 -12.5625 24.8125 C-12.64628906 23.72582031 -12.73007812 22.63914062 -12.81640625 21.51953125 C-12.87699219 20.68808594 -12.93757813 19.85664062 -13 19 C-13.33 19 -13.66 19 -14 19 C-14.33 23.62 -14.66 28.24 -15 33 C-18.16848393 28.2472741 -17.74619257 23.55426814 -17 18 C-14.68160297 11.48677757 -11.56929152 5.25024879 -6 1 C-3.79582481 0.18130636 -2.33128575 0 0 0 Z " fill="#5B62C9" transform="translate(39,84)"/>
<path d="M0 0 C2.97 0 5.94 0 9 0 C9.33 0.99 9.66 1.98 10 3 C9.01 3.495 9.01 3.495 8 4 C8.33 6.31 8.66 8.62 9 11 C23.52 11 38.04 11 53 11 C53 11.33 53 11.66 53 12 C35.18 12 17.36 12 -1 12 C-0.67 8.04 -0.34 4.08 0 0 Z " fill="#ECECF3" transform="translate(117,148)"/>
<path d="M0 0 C5.39811617 1.8811617 9.17739201 4.74052252 13 9 C13.5775 9.474375 14.155 9.94875 14.75 10.4375 C16.60431006 12.75538758 16.67873538 15.1086184 17 18 C16.01 18 15.02 18 14 18 C14 17.34 14 16.68 14 16 C13.401875 15.938125 12.80375 15.87625 12.1875 15.8125 C9.1390721 14.68022678 8.58394086 12.75467976 7 10 C6.01 9.67 5.02 9.34 4 9 C3.67 8.34 3.34 7.68 3 7 C0.45975996 6.52425562 -2.00051464 6.15992453 -4.5625 5.875 C-5.27341797 5.78863281 -5.98433594 5.70226562 -6.71679688 5.61328125 C-8.47689312 5.40065217 -10.23834164 5.19927303 -12 5 C-10.68 4.67 -9.36 4.34 -8 4 C-8.33 3.01 -8.66 2.02 -9 1 C-5.87143524 -0.56428238 -3.47287869 -0.28007086 0 0 Z " fill="#5A60E7" transform="translate(60,81)"/>
<path d="M0 0 C0.99 0.33 1.98 0.66 3 1 C2.67 1.99 2.34 2.98 2 4 C2.66 4.33 3.32 4.66 4 5 C4.2475 5.5775 4.495 6.155 4.75 6.75 C6.52465206 9.94437371 9.18733177 11.7039443 12 14 C15 17.5 15 17.5 15 20 C12.15488123 21.05145694 10.93700623 21.46455283 8 21 C4.11356863 18.50681761 0.7733096 15.69960616 -2 12 C-2.28515625 8.69140625 -2.28515625 8.69140625 -2 6 C-1.01 6 -0.02 6 1 6 C0.34 5.67 -0.32 5.34 -1 5 C-0.67 3.35 -0.34 1.7 0 0 Z " fill="#D7D6E2" transform="translate(148,66)"/>
<path d="M0 0 C2.64 0 5.28 0 8 0 C8 5.94 8 11.88 8 18 C5.36 18 2.72 18 0 18 C0 12.06 0 6.12 0 0 Z " fill="#EEEDF6" transform="translate(128,129)"/>
<path d="M0 0 C2.26855795 2.26855795 1.31095494 7.99258798 1.31689453 11.14453125 C1.1339387 21.98635834 -2.49213521 30.40961847 -9 39 C-8.67 39.66 -8.34 40.32 -8 41 C-8 41.99 -8 42.98 -8 44 C-8.53625 44.0825 -9.0725 44.165 -9.625 44.25 C-14.10799255 45.66568186 -17.87074523 48.52305026 -21 52 C-21.66 51.67 -22.32 51.34 -23 51 C-22.0479279 49.99403703 -21.08812654 48.99538437 -20.125 48 C-19.59132812 47.443125 -19.05765625 46.88625 -18.5078125 46.3125 C-17 45 -17 45 -15 45 C-14.74089844 44.43925781 -14.48179687 43.87851563 -14.21484375 43.30078125 C-12.8640713 40.7425659 -11.27130857 38.52103429 -9.5625 36.1875 C-4.28609693 28.84149883 -4.28609693 28.84149883 -3.3125 20.0625 C-3.6528125 18.5465625 -3.6528125 18.5465625 -4 17 C-3.34 17.33 -2.68 17.66 -2 18 C-0.46733418 14.93466836 -0.89723529 11.73245728 -0.9375 8.375 C-0.94201172 7.66859375 -0.94652344 6.9621875 -0.95117188 6.234375 C-0.96296125 4.48954725 -0.98089676 2.744763 -1 1 C-3.3134359 1.4746275 -5.62573019 1.95482279 -7.9375 2.4375 C-9.22527344 2.70433594 -10.51304687 2.97117187 -11.83984375 3.24609375 C-14.84638879 3.67181616 -14.84638879 3.67181616 -16 5 C-14.68 6.32 -13.36 7.64 -12 9 C-15.3 8.01 -18.6 7.02 -22 6 C-18.27892195 3.20919146 -15.90888166 2.09662461 -11.5625 0.75 C-10.45003906 0.39421875 -9.33757812 0.0384375 -8.19140625 -0.328125 C-4.97444305 -1.00538041 -3.10895924 -0.97049181 0 0 Z " fill="#605E81" transform="translate(198,27)"/>
<path d="M0 0 C0 0.66 0 1.32 0 2 C0.99 2.33 1.98 2.66 3 3 C2.35298126 2.99777939 1.70596252 2.99555878 1.03933716 2.99327087 C-5.67608083 2.97120032 -12.39148856 2.95608596 -19.10693359 2.94506836 C-21.61540139 2.94002997 -24.12386624 2.93319916 -26.63232422 2.92456055 C-30.2314527 2.91247339 -33.83054247 2.90676685 -37.4296875 2.90234375 C-38.55680145 2.89718246 -39.68391541 2.89202118 -40.84518433 2.88670349 C-42.40657639 2.88659019 -42.40657639 2.88659019 -43.99951172 2.88647461 C-44.91884491 2.884254 -45.8381781 2.88203339 -46.78536987 2.87974548 C-49.04150588 2.85489471 -49.04150588 2.85489471 -51 4 C-50.34 4.66 -49.68 5.32 -49 6 C-49.99 6.33 -50.98 6.66 -52 7 C-53.65 5.02 -55.3 3.04 -57 1 C-49.20378066 0.85733099 -41.40755623 0.71494318 -33.61132812 0.57275391 C-30.95735558 0.52431663 -28.30338422 0.4758142 -25.64941406 0.42724609 C-21.84179996 0.35757728 -18.03418169 0.28814029 -14.2265625 0.21875 C-13.03382721 0.19687622 -11.84109192 0.17500244 -10.61221313 0.15246582 C-8.96072769 0.12243469 -8.96072769 0.12243469 -7.27587891 0.09179688 C-6.30325104 0.07403198 -5.33062317 0.05626709 -4.32852173 0.03796387 C-2.88581739 0.01444223 -1.44289607 0 0 0 Z " fill="#D8DBF8" transform="translate(173,160)"/>
<path d="M0 0 C-0.84880302 8.28937421 -0.84880302 8.28937421 -1.625 11.9375 C-2.22291667 14.05416667 -2.22291667 14.05416667 -1 16 C-2.98 16.99 -2.98 16.99 -5 18 C-5.33 16.35 -5.66 14.7 -6 13 C-7.32 13 -8.64 13 -10 13 C-9.55187982 10.8520106 -9.09121652 8.70663439 -8.625 6.5625 C-8.36976562 5.36753906 -8.11453125 4.17257813 -7.8515625 2.94140625 C-7.43003906 1.48541016 -7.43003906 1.48541016 -7 0 C-4.3333581 -1.33332095 -2.83319697 -0.67102033 0 0 Z " fill="#E9EBF6" transform="translate(98,140)"/>
<path d="M0 0 C0.99 0.33 1.98 0.66 3 1 C3.04936883 5.80548597 3.08570443 10.61082494 3.10986328 15.41650391 C3.11993254 17.05194672 3.13358881 18.68737149 3.15087891 20.32275391 C3.17508705 22.6709437 3.18647357 25.01889588 3.1953125 27.3671875 C3.20563507 28.10057343 3.21595764 28.83395935 3.22659302 29.58956909 C3.22699368 31.39462697 3.12212755 33.1990783 3 35 C2.34 35.66 1.68 36.32 1 37 C0 36 0 36 -0.11352539 32.58178711 C-0.11336628 31.06363012 -0.10767226 29.54546771 -0.09765625 28.02734375 C-0.0962413 27.22970108 -0.09482635 26.43205841 -0.09336853 25.61024475 C-0.08775316 23.05262565 -0.07519812 20.49509282 -0.0625 17.9375 C-0.05748698 16.20768355 -0.05292373 14.47786574 -0.04882812 12.74804688 C-0.03777875 8.49866447 -0.02050386 4.24934688 0 0 Z " fill="#7C85F5" transform="translate(89,101)"/>
<path d="M0 0 C1 3 1 3 0.14453125 4.90234375 C-0.29503906 5.57394531 -0.73460938 6.24554688 -1.1875 6.9375 C-1.64769531 7.64261719 -2.10789062 8.34773438 -2.58203125 9.07421875 C-4 11 -4 11 -6.375 13.25 C-7.179375 14.11625 -7.179375 14.11625 -8 15 C-7.86358623 17.21858253 -7.86358623 17.21858253 -7 19 C-7.7425 18.79375 -8.485 18.5875 -9.25 18.375 C-12.39685755 17.94588306 -13.28812111 18.55366459 -16 20 C-16.99 19.67 -17.98 19.34 -19 19 C-17.02 18.01 -15.04 17.02 -13 16 C-13.33 15.01 -13.66 14.02 -14 13 C-13.67 12.34 -13.34 11.68 -13 11 C-13.763125 11.350625 -14.52625 11.70125 -15.3125 12.0625 C-18 13 -18 13 -21 12 C-20.46890625 11.67386719 -19.9378125 11.34773437 -19.390625 11.01171875 C-15.81763269 8.80141876 -12.29917687 6.61184836 -9 4 C-9.33 5.98 -9.66 7.96 -10 10 C-7.00594421 9.53146378 -7.00594421 9.53146378 -4 8 C-2.68998504 4.49895468 -2.68998504 4.49895468 -2 1 C-1.34 0.67 -0.68 0.34 0 0 Z " fill="#5256B7" transform="translate(79,117)"/>
<path d="M0 0 C0.33 0 0.66 0 1 0 C0.99214478 1.1281311 0.99214478 1.1281311 0.98413086 2.27905273 C0.96342773 5.66519342 0.95036123 9.05132084 0.9375 12.4375 C0.92912109 13.62150391 0.92074219 14.80550781 0.91210938 16.02539062 C0.90727539 17.71245117 0.90727539 17.71245117 0.90234375 19.43359375 C0.89710693 20.47572021 0.89187012 21.51784668 0.88647461 22.59155273 C0.72694444 24.95128747 0.72694444 24.95128747 2 26 C1.9140625 27.85546875 1.9140625 27.85546875 1.625 30.1875 C1.52574219 30.99445313 1.42648438 31.80140625 1.32421875 32.6328125 C0.94070761 35.43290591 0.49929199 38.21823034 0 41 C-0.99 40.67 -1.98 40.34 -3 40 C-3 39.01 -3 38.02 -3 37 C-3.99 36.67 -4.98 36.34 -6 36 C-5.01 31.71 -4.02 27.42 -3 23 C-2.01 23 -1.02 23 0 23 C0 15.41 0 7.82 0 0 Z " fill="#E0E1F0" transform="translate(109,117)"/>
<path d="M0 0 C0.33 0 0.66 0 1 0 C1.16777183 1.79156352 1.33418294 3.5832545 1.5 5.375 C1.5928125 6.37273437 1.685625 7.37046875 1.78125 8.3984375 C2 11 2 11 2 13 C2.33 8.71 2.66 4.42 3 0 C3.33 0 3.66 0 4 0 C4.33 5.28 4.66 10.56 5 16 C3.68 16 2.36 16 1 16 C0.9175 17.11375 0.835 18.2275 0.75 19.375 C0 23 0 23 -1.875 24.4375 C-4 25 -4 25 -7 25 C-6.67 23.02 -6.34 21.04 -6 19 C-4.68 18.67 -3.36 18.34 -2 18 C-1.34 12.06 -0.68 6.12 0 0 Z " fill="#6469E2" transform="translate(76,102)"/>
<path d="M0 0 C0.66 0.33 1.32 0.66 2 1 C2 2.66666667 2 4.33333333 2 6 C-0.5614657 8.29648649 -1.47967572 9 -5 9 C-5 9.66 -5 10.32 -5 11 C-5.556875 11.12375 -6.11375 11.2475 -6.6875 11.375 C-12.77052067 13.01905964 -15.22058317 15.03276646 -19 20 C-19 15.07514605 -15.3077973 12.40451652 -12 9 C-8.34033843 5.53376663 -4.56257931 2.21610995 0 0 Z " fill="#ABA9C0" transform="translate(174,33)"/>
<path d="M0 0 C3.16115776 1.36983503 3.9927092 1.9890638 6 5 C5.01 5 4.02 5 3 5 C0.76002528 7.23997472 1.81343927 11.95490967 1.81054688 14.98071289 C1.86851703 20.51356861 2.59309538 25.66129945 4 31 C3.01 30.67 2.02 30.34 1 30 C-1.47383497 24.00033379 -1.26708623 18.03378629 -1.1875 11.625 C-1.1865332 10.11099609 -1.1865332 10.11099609 -1.18554688 8.56640625 C-1.14057211 1.14057211 -1.14057211 1.14057211 0 0 Z " fill="#E0E3F1" transform="translate(78,142)"/>
<path d="M0 0 C-0.33 3.63 -0.66 7.26 -1 11 C-2.32 11.33 -3.64 11.66 -5 12 C-6.28436734 13.9837767 -6.28436734 13.9837767 -7 16 C-8.87824891 14.12175109 -8.39102397 10.96064724 -8.5625 8.4375 C-8.64628906 7.23996094 -8.73007813 6.04242188 -8.81640625 4.80859375 C-8.87699219 3.88175781 -8.93757812 2.95492187 -9 2 C-5.53785351 -0.05164237 -4.40610765 0 0 0 Z " fill="#5C5EEA" transform="translate(173,84)"/>
<path d="M0 0 C0.66 0.99 1.32 1.98 2 3 C-1 4 -1 4 -4.3125 3.875 C-8.45416889 4.01539556 -10.55603135 4.73011157 -14 7 C-16.216452 9.95526934 -17 11.28746836 -17 15 C-15.35 15 -13.7 15 -12 15 C-15.45680903 17.76544722 -19.14341602 19.84921278 -23 22 C-23.21278058 17.53160785 -22.59138085 14.17737474 -21 10 C-21.99 9.34 -22.98 8.68 -24 8 C-22.948125 7.9175 -21.89625 7.835 -20.8125 7.75 C-16.67610724 6.93628339 -15.09097395 5.7475324 -12 3 C-9.11788698 2.03929566 -7.30149956 1.89418117 -4.3125 1.9375 C-3.10013672 1.95103516 -3.10013672 1.95103516 -1.86328125 1.96484375 C-0.94095703 1.98224609 -0.94095703 1.98224609 0 2 C0 1.34 0 0.68 0 0 Z " fill="#5F64A8" transform="translate(150,58)"/>
<path d="M0 0 C0.66 0.66 1.32 1.32 2 2 C1.360625 2.433125 0.72125 2.86625 0.0625 3.3125 C-2.26746003 4.91239177 -2.26746003 4.91239177 -3 8 C-3.99 8 -4.98 8 -6 8 C-6.2475 8.70125 -6.495 9.4025 -6.75 10.125 C-8.16088026 13.37002459 -9.97895398 16.10316737 -12 19 C-12.99 18.67 -13.98 18.34 -15 18 C-14.75170379 13.77896441 -14.48782755 11.56693471 -11.6875 8.3125 C-10.800625 7.549375 -9.91375 6.78625 -9 6 C-8.34 5.278125 -7.68 4.55625 -7 3.8125 C-4.78731645 1.80725553 -2.81489475 0.93829825 0 0 Z " fill="#E3E5E3" transform="translate(166,43)"/>
<path d="M0 0 C1.65 0 3.3 0 5 0 C4.01 0.66 3.02 1.32 2 2 C2 5.3 2 8.6 2 12 C11.24 12 20.48 12 30 12 C30.33 12.66 30.66 13.32 31 14 C20.77 14 10.54 14 0 14 C0 9.38 0 4.76 0 0 Z " fill="#9292A6" transform="translate(79,185)"/>
<path d="M0 0 C0.33 1.32 0.66 2.64 1 4 C-0.65 4 -2.3 4 -4 4 C-4.66 5.32 -5.32 6.64 -6 8 C-6.66 8 -7.32 8 -8 8 C-7.34 9.32 -6.68 10.64 -6 12 C-10.31320068 10.24277009 -13.9031084 7.1937832 -16 3 C-10.47239641 0.89424625 -5.93002267 -0.37851209 0 0 Z " fill="#E2E3ED" transform="translate(197,28)"/>
<path d="M0 0 C2.93221231 0.62833121 5.45547513 1.38846758 8 3 C9.25 5.125 9.25 5.125 10 7 C7.75 9.5625 7.75 9.5625 5 12 C2.8125 12.0625 2.8125 12.0625 1 11 C-1.02755186 8.06004981 -1 6.72295997 -1 3 C-0.67 2.01 -0.34 1.02 0 0 Z " fill="#5D60E8" transform="translate(115,166)"/>
<path d="M0 0 C0.99 0.33 1.98 0.66 3 1 C3.05607422 2.23363281 3.05607422 2.23363281 3.11328125 3.4921875 C3.53980876 10.73479187 4.54735781 17.1665378 7 24 C2.16907776 21.52260398 2.16907776 21.52260398 1.3125 18.875 C1.209375 18.25625 1.10625 17.6375 1 17 C0.34 16.67 -0.32 16.34 -1 16 C-0.67 10.72 -0.34 5.44 0 0 Z " fill="#8389F4" transform="translate(24,101)"/>
<path d="M0 0 C0.33 0.66 0.66 1.32 1 2 C1.721875 2.103125 2.44375 2.20625 3.1875 2.3125 C7.1137804 3.27225743 9.02148146 5.29855295 12 8 C11.46104623 11.7726764 10.00464642 13.68212991 7 16 C4.75 15.75 4.75 15.75 3 15 C3.61875 14.7525 4.2375 14.505 4.875 14.25 C7.39272383 12.76898598 8.08392564 11.74822309 9 9 C8.67 8.01 8.34 7.02 8 6 C6.68 6 5.36 6 4 6 C3.67 5.34 3.34 4.68 3 4 C2.01 4.33 1.02 4.66 0 5 C-1.0146239 6.8064655 -1.0146239 6.8064655 -1 9 C0.3516367 11.24755753 0.3516367 11.24755753 2 13 C1.236875 12.62875 0.47375 12.2575 -0.3125 11.875 C-1.199375 11.58625 -2.08625 11.2975 -3 11 C-3.99 11.66 -4.98 12.32 -6 13 C-5.71125 12.319375 -5.4225 11.63875 -5.125 10.9375 C-3.90374133 7.90250143 -3.90374133 7.90250143 -3 4.25 C-2.67 3.1775 -2.34 2.105 -2 1 C-1.34 0.67 -0.68 0.34 0 0 Z " fill="#5757AA" transform="translate(115,163)"/>
<path d="M0 0 C1.65 0 3.3 0 5 0 C5 11.88 5 23.76 5 36 C4.34 36 3.68 36 3 36 C1.8312519 32.4937557 1.87485733 29.3522134 1.90234375 25.70703125 C1.9037587 25.00100266 1.90517365 24.29497406 1.90663147 23.56755066 C1.91222236 21.31582374 1.92477312 19.06419679 1.9375 16.8125 C1.94251618 15.28450665 1.94707888 13.75651173 1.95117188 12.22851562 C1.9621888 8.48563865 1.97944713 4.74283627 2 1 C1.34 0.67 0.68 0.34 0 0 Z " fill="#5A60D8" transform="translate(118,111)"/>
<path d="M0 0 C0.33 0 0.66 0 1 0 C1 17.16 1 34.32 1 52 C1.66 52 2.32 52 3 52 C3 53.32 3 54.64 3 56 C2.34 56 1.68 56 1 56 C-0.27469407 53.45061185 -0.12016184 51.66959002 -0.11352539 48.81591797 C-0.11344986 47.73494843 -0.11337433 46.65397888 -0.11329651 45.54025269 C-0.10813522 44.36939117 -0.10297394 43.19852966 -0.09765625 41.9921875 C-0.0962413 40.79643097 -0.09482635 39.60067444 -0.09336853 38.36868286 C-0.08775663 34.53743013 -0.07520208 30.70623516 -0.0625 26.875 C-0.05748653 24.28255293 -0.05292336 21.69010494 -0.04882812 19.09765625 C-0.03778333 12.73175102 -0.02103359 6.36587963 0 0 Z " fill="#D5D4EB" transform="translate(172,106)"/>
<path d="M0 0 C-1.24959879 3.74879638 -3.20967538 5.20967538 -6 8 C-6.91653147 9.25598757 -7.8124865 10.52724279 -8.6875 11.8125 C-9.450625 12.864375 -10.21375 13.91625 -11 15 C-11.66 15 -12.32 15 -13 15 C-12.10670798 8.88028302 -11.15556126 4.92804667 -6 1 C-3.79582481 0.18130636 -2.33128575 0 0 0 Z " fill="#6A76CE" transform="translate(39,84)"/>
<path d="M0 0 C1.32 0.99 2.64 1.98 4 3 C2.92598892 5.91517292 2.22189824 7.77810176 0 10 C-2.625 9.625 -2.625 9.625 -5 9 C-5 5 -5 5 -2.5 2.25 C-1.675 1.5075 -0.85 0.765 0 0 Z " fill="#EAECF9" transform="translate(76,126)"/>
<path d="M0 0 C3.8533298 2.95421951 4.83708948 5.76061141 5.68359375 10.3515625 C7.23735558 23.35712452 7.23735558 23.35712452 4.60546875 26.8515625 C3 28 3 28 1 28 C1.33 27.071875 1.66 26.14375 2 25.1875 C4.44826584 16.40567689 3.37307018 8.90666707 -1 1 C-0.67 0.67 -0.34 0.34 0 0 Z " fill="#5257AE" transform="translate(69,93)"/>
<path d="M0 0 C0.33 0 0.66 0 1 0 C1.33 2.97 1.66 5.94 2 9 C3.32 7.68 4.64 6.36 6 5 C6.33 6.32 6.66 7.64 7 9 C5.75627811 9.98712878 4.50472782 10.96439905 3.25 11.9375 C2.55390625 12.48277344 1.8578125 13.02804688 1.140625 13.58984375 C-0.96092128 14.97425654 -2.54321799 15.56286987 -5 16 C-4.34 14.02 -3.68 12.04 -3 10 C-2.34 10 -1.68 10 -1 10 C-0.67 6.7 -0.34 3.4 0 0 Z " fill="#5F60CF" transform="translate(164,90)"/>
<path d="M0 0 C1.65 0.33 3.3 0.66 5 1 C4.67 1.66 4.34 2.32 4 3 C3.34 3 2.68 3 2 3 C1.8453125 4.794375 1.8453125 4.794375 1.6875 6.625 C1.07672763 11.54608022 -0.4477289 15.4477289 -4 19 C-4.99 18.67 -5.98 18.34 -7 18 C-5.68 17.01 -4.36 16.02 -3 15 C-3.57352893 11.12867972 -5.48704352 8.91827204 -8 6 C-7.360625 6.33 -6.72125 6.66 -6.0625 7 C-4.23205433 8.07271225 -4.23205433 8.07271225 -3 8 C-0.31570423 4.99358873 0 4.24410082 0 0 Z " fill="#5052A7" transform="translate(89,137)"/>
<path d="M0 0 C0.33 2.31 0.66 4.62 1 7 C-3.455 6.01 -3.455 6.01 -8 5 C-8.33 5.66 -8.66 6.32 -9 7 C-9 6.34 -9 5.68 -9 5 C-9.99 4.67 -10.98 4.34 -12 4 C-8.47224824 -0.05691453 -5.19281521 -0.14424487 0 0 Z " fill="#EBEDF8" transform="translate(145,73)"/>
<path d="M0 0 C3.48330216 0.64505596 6.09432866 1.98217268 9 4 C9 4.66 9 5.32 9 6 C9.99 6.66 10.98 7.32 12 8 C12 8.66 12 9.32 12 10 C10.3125 10.75 10.3125 10.75 8 11 C4.21659658 8.60076856 1.99616809 5.99233618 0 2 C0 1.34 0 0.68 0 0 Z " fill="#5F63E3" transform="translate(30,121)"/>
<path d="M0 0 C5.28 0 10.56 0 16 0 C11 5 11 5 8.1875 5.3125 C7.1046875 5.1578125 7.1046875 5.1578125 6 5 C6 4.67 6 4.34 6 4 C4.35 3.67 2.7 3.34 1 3 C0.67 2.01 0.34 1.02 0 0 Z " fill="#585FE8" transform="translate(47,131)"/>
<path d="M0 0 C0.33 0.99 0.66 1.98 1 3 C0.67 3.66 0.34 4.32 0 5 C-0.49929694 11.9517497 -0.82858672 17.93807102 3 24 C3 24.99 3 25.98 3 27 C-1.15719191 25.44105303 -1.15719191 25.44105303 -3 23 C-4.33180063 14.89563183 -3.10606201 7.50631652 0 0 Z " fill="#5458A8" transform="translate(32,97)"/>
<path d="M0 0 C0.33 0.66 0.66 1.32 1 2 C0.273668 3.94789035 -0.45777551 5.8942498 -1.23046875 7.82421875 C-2.31053545 10.8780114 -2.6651047 13.78500511 -3 17 C2.94 15.515 2.94 15.515 9 14 C9 14.66 9 15.32 9 16 C7.4188708 16.50692692 5.83498617 17.00526443 4.25 17.5 C3.36828125 17.7784375 2.4865625 18.056875 1.578125 18.34375 C-1 19 -1 19 -5 19 C-4.72962375 11.64576595 -3.73081346 6.37848752 0 0 Z " fill="#6F6D87" transform="translate(137,86)"/>
<path d="M0 0 C0.68835938 0.55880859 0.68835938 0.55880859 1.390625 1.12890625 C2.00421875 1.60199219 2.6178125 2.07507813 3.25 2.5625 C3.85328125 3.03816406 4.4565625 3.51382813 5.078125 4.00390625 C6.95744258 5.21157852 6.95744258 5.21157852 9.109375 4.71484375 C11.04728218 4.01885266 11.04728218 4.01885266 13 3 C13.33 3.99 13.66 4.98 14 6 C12.125 7.0625 12.125 7.0625 10 8 C9.34 7.67 8.68 7.34 8 7 C7.67 7.66 7.34 8.32 7 9 C6.401875 8.505 5.80375 8.01 5.1875 7.5 C3.02970006 5.71723582 3.02970006 5.71723582 0 6 C-0.66 4.68 -1.32 3.36 -2 2 C-1.34 1.34 -0.68 0.68 0 0 Z " fill="#EAEDFA" transform="translate(112,173)"/>
<path d="M0 0 C6.92446331 0.35510068 12.3055679 4.1324317 16.9453125 9.0703125 C19.94833463 12.85551714 19.94833463 12.85551714 21 15 C20.67 15.99 20.34 16.98 20 18 C19.63648437 17.48050781 19.27296875 16.96101563 18.8984375 16.42578125 C15.62541509 11.8855117 12.38033984 8.46352452 8 5 C7.67 4.34 7.34 3.68 7 3 C5.33499557 2.65846063 3.66821323 2.32550502 2 2 C1.34 1.34 0.68 0.68 0 0 Z " fill="#4D53A6" transform="translate(58,80)"/>
<path d="M0 0 C0 4.62 0 9.24 0 14 C-0.99 14.33 -1.98 14.66 -3 15 C-3.125 8.375 -3.125 8.375 -2 5 C-2.99 5 -3.98 5 -5 5 C-5 4.01 -5 3.02 -5 2 C-2 0 -2 0 0 0 Z " fill="#6061D0" transform="translate(175,79)"/>
<path d="M0 0 C1.875 0.5 1.875 0.5 4 2 C5.09902852 4.59370731 5.84734175 7.18169386 6 10 C4 12 4 12 2.0546875 12.1953125 C0.03645833 12.13020833 -1.98177083 12.06510417 -4 12 C-4.33 11.34 -4.66 10.68 -5 10 C-4.21625 9.773125 -3.4325 9.54625 -2.625 9.3125 C0.17336712 8.21040698 0.17336712 8.21040698 1.4375 5.5625 C1.623125 4.716875 1.80875 3.87125 2 3 C1.34 2.01 0.68 1.02 0 0 Z " fill="#9998BC" transform="translate(77,126)"/>
<path d="M0 0 C0.33 0.66 0.66 1.32 1 2 C0.67 2.99 0.34 3.98 0 5 C0.99 5.33 1.98 5.66 3 6 C2.01 6.495 2.01 6.495 1 7 C0.34 6.67 -0.32 6.34 -1 6 C0.07710178 10.30840713 1.03947516 13.63576723 4 17 C2.906875 16.835 1.81375 16.67 0.6875 16.5 C-2.87525873 15.93281816 -2.87525873 15.93281816 -6 16 C-5.34 15.62875 -4.68 15.2575 -4 14.875 C-1.64696955 13.09105222 -1.64696955 13.09105222 -1.75 9.8125 C-1.8325 8.884375 -1.915 7.95625 -2 7 C-3.65 7 -5.3 7 -7 7 C-6.401875 6.773125 -5.80375 6.54625 -5.1875 6.3125 C-2.43648112 4.66188867 -1.47515363 2.8027919 0 0 Z " fill="#4E4E8B" transform="translate(147,66)"/>
<path d="M0 0 C0 1.65 0 3.3 0 5 C-1.32 4.34 -2.64 3.68 -4 3 C-4.12375 3.61875 -4.2475 4.2375 -4.375 4.875 C-5 7 -5 7 -7 9 C-8.10348268 5.68955197 -7.99444068 3.34493684 -7 0 C-4.3333581 -1.33332095 -2.83319697 -0.67102033 0 0 Z " fill="#DCE3F1" transform="translate(98,140)"/>
<path d="M0 0 C1.45947705 0.06006078 2.91779272 0.1488689 4.375 0.25 C5.59316406 0.31960937 5.59316406 0.31960937 6.8359375 0.390625 C9 1 9 1 10.2890625 3.046875 C10.64097656 4.01367188 10.64097656 4.01367188 11 5 C7.75 5.8125 7.75 5.8125 4 6 C1.5625 3.625 1.5625 3.625 0 1 C0 0.67 0 0.34 0 0 Z " fill="#F3F4FB" transform="translate(152,81)"/>
<path d="M0 0 C0.33 0.66 0.66 1.32 1 2 C0.67 2.66 0.34 3.32 0 4 C0.66 4.33 1.32 4.66 2 5 C1.525625 5.45375 1.05125 5.9075 0.5625 6.375 C-1.09027808 7.93258204 -1.09027808 7.93258204 -2 10 C-0.68 10 0.64 10 2 10 C2 13.96 2 17.92 2 22 C1.67 22 1.34 22 1 22 C1 18.37 1 14.74 1 11 C-1.31 11 -3.62 11 -6 11 C-5.01 10.67 -4.02 10.34 -3 10 C-2.87625 8.906875 -2.7525 7.81375 -2.625 6.6875 C-2 3 -2 3 0 0 Z " fill="#65627F" transform="translate(108,176)"/>
<path d="M0 0 C3.16115776 1.36983503 3.9927092 1.9890638 6 5 C5.01 5 4.02 5 3 5 C2.67 4.67 2.34 4.34 2 4 C1.34 7.63 0.68 11.26 0 15 C-0.33 15 -0.66 15 -1 15 C-1.02685412 12.68756208 -1.04632841 10.3750373 -1.0625 8.0625 C-1.07410156 6.77472656 -1.08570312 5.48695313 -1.09765625 4.16015625 C-1 1 -1 1 0 0 Z " fill="#DCDBF6" transform="translate(78,142)"/>
<path d="M0 0 C1.485 0.99 1.485 0.99 3 2 C3.2208564 4.95064148 3.28060989 7.68368231 3.1875 10.625 C3.17396484 11.42679688 3.16042969 12.22859375 3.14648438 13.0546875 C3.11109051 15.03674378 3.05728234 17.01845551 3 19 C2.34 19 1.68 19 1 19 C0.67 12.73 0.34 6.46 0 0 Z " fill="#D9DADA" transform="translate(199,29)"/>
<path d="M0 0 C2.475 0.99 2.475 0.99 5 2 C2.99254991 4.00745009 1.52131708 4.77536028 -1 6 C-4.08086914 7.72829245 -6.62397275 9.37386462 -9 12 C-9.66 11.67 -10.32 11.34 -11 11 C-10.0479279 9.99403703 -9.08812654 8.99538437 -8.125 8 C-7.32449219 7.1646875 -7.32449219 7.1646875 -6.5078125 6.3125 C-5 5 -5 5 -3 5 C-2.690625 4.360625 -2.38125 3.72125 -2.0625 3.0625 C-1 1 -1 1 0 0 Z " fill="#8D8BA0" transform="translate(186,67)"/>
<path d="M0 0 C0.33 0 0.66 0 1 0 C1.19672365 1.72814161 1.38196799 3.45759197 1.5625 5.1875 C1.66691406 6.15042969 1.77132812 7.11335938 1.87890625 8.10546875 C1.99758751 10.94233377 1.67765639 13.25423671 1 16 C0.34 16 -0.32 16 -1 16 C-1.02692484 13.70839681 -1.04636124 11.41670454 -1.0625 9.125 C-1.07410156 7.84882812 -1.08570313 6.57265625 -1.09765625 5.2578125 C-1 2 -1 2 0 0 Z " fill="#DBDBE2" transform="translate(177,80)"/>
<path d="M0 0 C1.65 0 3.3 0 5 0 C5.33 1.32 5.66 2.64 6 4 C3.35261084 5.4606285 2.10551666 6 -1 6 C-0.67 4.02 -0.34 2.04 0 0 Z " fill="#5B5EE3" transform="translate(70,121)"/>
<path d="M0 0 C2.475 0.99 2.475 0.99 5 2 C4.979375 2.78375 4.95875 3.5675 4.9375 4.375 C4.81315937 6.98114961 4.81315937 6.98114961 6 9 C3.13275314 8.42655063 2.1385485 8.1385485 0 6 C-0.125 2.875 -0.125 2.875 0 0 Z " fill="#EDEFF9" transform="translate(146,72)"/>
<path d="M0 0 C2.64752004 2.57784846 4.94432065 4.91648098 7 8 C6.67 8.66 6.34 9.32 6 10 C6.66 10 7.32 10 8 10 C9.7143618 11.95927063 11.38405168 13.95880212 13 16 C8.87676634 14.6706126 6.86172107 13.12549565 4.25 9.6875 C3.65703125 8.92824219 3.0640625 8.16898438 2.453125 7.38671875 C0.92331294 4.87404356 0.38955634 2.89604387 0 0 Z " fill="#5D61AA" transform="translate(24,118)"/>
<path d="M0 0 C1.32 0.33 2.64 0.66 4 1 C2.79618552 3.49361571 1.54571278 5.68143083 0 8 C-0.99 8 -1.98 8 -3 8 C-3 7.01 -3 6.02 -3 5 C-3.99 4.67 -4.98 4.34 -6 4 C-3 3 -3 3 -1 3 C-0.67 2.01 -0.34 1.02 0 0 Z " fill="#FBFDF2" transform="translate(147,86)"/>
<path d="M0 0 C0.33 0.66 0.66 1.32 1 2 C-4.445 2.495 -4.445 2.495 -10 3 C-10 3.66 -10 4.32 -10 5 C-11.98 5.66 -13.96 6.32 -16 7 C-11.42146021 0.55612919 -7.76375927 -0.30446115 0 0 Z " fill="#8188F0" transform="translate(149,61)"/>
<path d="M0 0 C0.66 0.66 1.32 1.32 2 2 C1.01 3.485 1.01 3.485 0 5 C0 6.010625 0 7.02125 0 8.0625 C0 9.031875 0 10.00125 0 11 C-0.66 11.66 -1.32 12.32 -2 13 C-2 12.01 -2 11.02 -2 10 C-2.66 10 -3.32 10 -4 10 C-4 9.34 -4 8.68 -4 8 C-4.99 7.67 -5.98 7.34 -7 7 C-6.38125 6.9175 -5.7625 6.835 -5.125 6.75 C-2.83911206 6.19416524 -2.83911206 6.19416524 -1.8125 4.0625 C-1.544375 3.381875 -1.27625 2.70125 -1 2 C-0.67 1.34 -0.34 0.68 0 0 Z " fill="#A6A6C2" transform="translate(67,94)"/>
<path d="M0 0 C0.33 0 0.66 0 1 0 C1.33 6.6 1.66 13.2 2 20 C0.68 20 -0.64 20 -2 20 C-1.34 13.4 -0.68 6.8 0 0 Z " fill="#CECCEF" transform="translate(199,32)"/>
<path d="M0 0 C0.53367188 0.20496094 1.06734375 0.40992187 1.6171875 0.62109375 C7.41395572 2.717157 12.85732066 3.62810501 19 4 C19 4.33 19 4.66 19 5 C7.55450268 6.71512645 7.55450268 6.71512645 3.80078125 4.98828125 C2.1875 3.625 2.1875 3.625 0 1 C0 0.67 0 0.34 0 0 Z " fill="#4D51AD" transform="translate(38,126)"/>
<path d="M0 0 C3.625 0.375 3.625 0.375 7 1 C4.63707344 3.52588702 3.33537489 4.88820837 0 6 C-0.66 4.68 -1.32 3.36 -2 2 C-1.34 1.34 -0.68 0.68 0 0 Z " fill="#E0E2EC" transform="translate(176,33)"/>
<path d="M0 0 C0 2.64 0 5.28 0 8 C-0.99 8.33 -1.98 8.66 -3 9 C-3.66 8.34 -4.32 7.68 -5 7 C-4.34 7 -3.68 7 -3 7 C-3.66 5.68 -4.32 4.36 -5 3 C-1.125 0 -1.125 0 0 0 Z " fill="#EFF6F7" transform="translate(170,100)"/>
<path d="M0 0 C0 4 0 4 -1 6 C-0.34 6.33 0.32 6.66 1 7 C0.01 7 -0.98 7 -2 7 C-4.07277359 4.68806023 -5.00978527 2.97064418 -6 0 C-3 -1 -3 -1 0 0 Z " fill="#F5F6F9" transform="translate(127,163)"/>
<path d="M0 0 C0.66 0.33 1.32 0.66 2 1 C0.88820837 4.33537489 -0.47411298 5.63707344 -3 8 C-2.34 8.33 -1.68 8.66 -1 9 C-2.32 9.33 -3.64 9.66 -5 10 C-4.67 8.68 -4.34 7.36 -4 6 C-4.66 5.67 -5.32 5.34 -6 5 C-4.02 3.35 -2.04 1.7 0 0 Z " fill="#B0AFBC" transform="translate(45,109)"/>
<path d="M0 0 C1 3 1 3 0.109375 4.97265625 C-0.33921875 5.66230469 -0.7878125 6.35195312 -1.25 7.0625 C-1.68828125 7.75472656 -2.1265625 8.44695312 -2.578125 9.16015625 C-4 11 -4 11 -7 13 C-7.33 12.01 -7.66 11.02 -8 10 C-7.38125 9.814375 -6.7625 9.62875 -6.125 9.4375 C-2.96612595 7.30061462 -2.91273871 4.58575921 -2 1 C-1.34 0.67 -0.68 0.34 0 0 Z " fill="#494EA9" transform="translate(79,117)"/>
<path d="M0 0 C0.99 0.33 1.98 0.66 3 1 C2.67 1.99 2.34 2.98 2 4 C2.66 4.33 3.32 4.66 4 5 C5.0625 6.9375 5.0625 6.9375 6 9 C6.33 9.66 6.66 10.32 7 11 C3.63426067 9.55754029 1.24989611 7.916532 -1 5 C-0.75 2.25 -0.75 2.25 0 0 Z " fill="#B1B3CD" transform="translate(148,66)"/>
<path d="M0 0 C0.33 0 0.66 0 1 0 C1.28875 1.134375 1.5775 2.26875 1.875 3.4375 C2.24625 4.613125 2.6175 5.78875 3 7 C3.66 7.33 4.32 7.66 5 8 C5.625 11.0625 5.625 11.0625 6 14 C5.34 14 4.68 14 4 14 C3.13395466 12.23494565 2.28251358 10.46271926 1.4375 8.6875 C0.72400391 7.20830078 0.72400391 7.20830078 -0.00390625 5.69921875 C-1 3 -1 3 0 0 Z " fill="#818197" transform="translate(77,165)"/>
<path d="M0 0 C0.99 0.66 1.98 1.32 3 2 C2.6875 3.875 2.6875 3.875 2 6 C1.01 6.66 0.02 7.32 -1 8 C-1.66 6.68 -2.32 5.36 -3 4 C-2.01 2.68 -1.02 1.36 0 0 Z " fill="#F1F6F9" transform="translate(84,147)"/>
<path d="M0 0 C0.99 0.33 1.98 0.66 3 1 C3 1.66 3 2.32 3 3 C3.99 3.66 4.98 4.32 6 5 C6 5.66 6 6.32 6 7 C4.125 7.625 4.125 7.625 2 8 C0 6 0 6 -0.125 2.875 C-0.08375 1.92625 -0.0425 0.9775 0 0 Z " fill="#585ED6" transform="translate(36,124)"/>
<path d="M0 0 C0.33 0.66 0.66 1.32 1 2 C0.0625 4.625 0.0625 4.625 -1 7 C-0.34 7 0.32 7 1 7 C0.67 8.32 0.34 9.64 0 11 C-0.66 11 -1.32 11 -2 11 C-2 10.34 -2 9.68 -2 9 C-2.66 9 -3.32 9 -4 9 C-2.94124926 5.59687262 -1.99097846 2.98646769 0 0 Z " fill="#656CCA" transform="translate(27,92)"/>
<path d="M0 0 C1.98 0.495 1.98 0.495 4 1 C4 2.98 4 4.96 4 7 C3.01 7 2.02 7 1 7 C0.33333333 5.66666667 -0.33333333 4.33333333 -1 3 C-0.67 2.01 -0.34 1.02 0 0 Z " fill="#EFF2FB" transform="translate(112,147)"/>
<path d="M0 0 C0.33 0 0.66 0 1 0 C1 2.64 1 5.28 1 8 C1.99 8 2.98 8 4 8 C3.34 9.98 2.68 11.96 2 14 C1.34 14 0.68 14 0 14 C0 9.38 0 4.76 0 0 Z " fill="#565CE5" transform="translate(92,120)"/>
<path d="M0 0 C0.33 0.99 0.66 1.98 1 3 C-2.32534757 4.10844919 -4.62182575 3.84454356 -8 3 C-5.53387212 -0.1151089 -3.89156016 -0.31553191 0 0 Z " fill="#F6FBF5" transform="translate(125,180)"/>
<path d="M0 0 C2.97 0 5.94 0 9 0 C9.33 0.99 9.66 1.98 10 3 C9.01 3.33 8.02 3.66 7 4 C7 3.34 7 2.68 7 2 C5.02 2 3.04 2 1 2 C0.67 2.66 0.34 3.32 0 4 C0 2.68 0 1.36 0 0 Z " fill="#EEF0F4" transform="translate(117,148)"/>
<path d="M0 0 C2.64 0.66 5.28 1.32 8 2 C8 2.99 8 3.98 8 5 C6.02 5.99 6.02 5.99 4 7 C4 6.01 4 5.02 4 4 C3.01 4.495 3.01 4.495 2 5 C1.34 3.35 0.68 1.7 0 0 Z " fill="#E7E9F8" transform="translate(71,136)"/>
<path d="M0 0 C0.66 0.33 1.32 0.66 2 1 C2 1.66 2 2.32 2 3 C2.61875 3.268125 3.2375 3.53625 3.875 3.8125 C6 5 6 5 8 8 C5.03824877 7.38722388 3.61941217 6.74627478 1 5 C1 4.34 1 3.68 1 3 C0.34 3 -0.32 3 -1 3 C-0.67 2.01 -0.34 1.02 0 0 Z " fill="#858DF5" transform="translate(31,125)"/>
<path d="M0 0 C0.66 0.99 1.32 1.98 2 3 C2.99387334 4.33790641 3.9926892 5.67218122 5 7 C4.67 7.66 4.34 8.32 4 9 C2.02 7.68 0.04 6.36 -2 5 C-1.125 1.125 -1.125 1.125 0 0 Z " fill="#5355BC" transform="translate(31,115)"/>
<path d="M0 0 C0.99 0.33 1.98 0.66 3 1 C3.3367697 5.93928888 3.16130459 6.78492722 0 11 C0 7.37 0 3.74 0 0 Z " fill="#848EFD" transform="translate(24,101)"/>
<path d="M0 0 C0.99 0 1.98 0 3 0 C3.33 1.98 3.66 3.96 4 6 C2.35 6 0.7 6 -1 6 C-0.67 4.02 -0.34 2.04 0 0 Z " fill="#5760E4" transform="translate(86,137)"/>
<path d="M0 0 C0.99 0.33 1.98 0.66 3 1 C3 3.31 3 5.62 3 8 C2.01 8 1.02 8 0 8 C0 5.36 0 2.72 0 0 Z " fill="#6667E7" transform="translate(145,112)"/>
<path d="M0 0 C0.66 0 1.32 0 2 0 C1.45276317 3.37462715 0.9451 5.08235 -1 8 C-1.66 8 -2.32 8 -3 8 C-2.45276317 4.62537285 -1.9451 2.91765 0 0 Z " fill="#858FF6" transform="translate(29,91)"/>
<path d="M0 0 C1.98 0.495 1.98 0.495 4 1 C4 2.65 4 4.3 4 6 C2.35 5.67 0.7 5.34 -1 5 C-0.67 3.35 -0.34 1.7 0 0 Z " fill="#F9FAFD" transform="translate(178,47)"/>
<path d="M0 0 C0.33 0.99 0.66 1.98 1 3 C-3.455 4.485 -3.455 4.485 -8 6 C-8 5.01 -8 4.02 -8 3 C-2.25 0 -2.25 0 0 0 Z " fill="#EDEFF8" transform="translate(184,26)"/>
<path d="M0 0 C2 1.375 2 1.375 4 3 C4 3.66 4 4.32 4 5 C3.34 5 2.68 5 2 5 C1.67 5.66 1.34 6.32 1 7 C0.01 5.35 -0.98 3.7 -2 2 C-1.34 1.34 -0.68 0.68 0 0 Z " fill="#F4F6FA" transform="translate(112,173)"/>
<path d="M0 0 C1.33333333 1.33333333 2.66666667 2.66666667 4 4 C1.625 5.5625 1.625 5.5625 -1 7 C-1.66 6.67 -2.32 6.34 -3 6 C-3 4.68 -3 3.36 -3 2 C-2.01 1.34 -1.02 0.68 0 0 Z " fill="#F0F0EF" transform="translate(131,104)"/>
<path d="M0 0 C1.98 0 3.96 0 6 0 C6.66 1.65 7.32 3.3 8 5 C7.34 5.66 6.68 6.32 6 7 C5.38125 6.21625 4.7625 5.4325 4.125 4.625 C2.10141339 2.03162353 2.10141339 2.03162353 0 0 Z " fill="#EAF2F6" transform="translate(69,84)"/>
<path d="M0 0 C0.33 0 0.66 0 1 0 C1 2.97 1 5.94 1 9 C0.01 8.67 -0.98 8.34 -2 8 C-1.125 1.125 -1.125 1.125 0 0 Z " fill="#B3B3C7" transform="translate(153,53)"/>
<path d="M0 0 C1 3 1 3 -0.4375 6.1875 C-1.2109375 7.5796875 -1.2109375 7.5796875 -2 9 C-2.33 9 -2.66 9 -3 9 C-3 6.36 -3 3.72 -3 1 C-2.01 0.67 -1.02 0.34 0 0 Z " fill="#D3D5E0" transform="translate(199,51)"/>
<path d="M0 0 C0.66 0.66 1.32 1.32 2 2 C1.0409375 2.6496875 1.0409375 2.6496875 0.0625 3.3125 C-2.26746003 4.91239177 -2.26746003 4.91239177 -3 8 C-3.99 7.67 -4.98 7.34 -6 7 C-5.34 7 -4.68 7 -4 7 C-4 6.01 -4 5.02 -4 4 C-4.66 3.67 -5.32 3.34 -6 3 C-4.02 2.01 -2.04 1.02 0 0 Z " fill="#E8EAEA" transform="translate(166,43)"/>
<path d="M0 0 C-2.48952921 2.66735273 -4.63408134 4.55746343 -8 6 C-8.66 5.34 -9.32 4.68 -10 4 C-6.58908673 0.88145073 -4.68377325 -0.53528837 0 0 Z " fill="#EBEAF6" transform="translate(172,34)"/>
<path d="M0 0 C0.66 0 1.32 0 2 0 C2 4.29 2 8.58 2 13 C1.67 13 1.34 13 1 13 C1 10.03 1 7.06 1 4 C0.01 3.67 -0.98 3.34 -2 3 C-1.34 2.01 -0.68 1.02 0 0 Z " fill="#46489C" transform="translate(173,79)"/>
<path d="M0 0 C0.33 0 0.66 0 1 0 C0.67 2.64 0.34 5.28 0 8 C-1.98 6.68 -3.96 5.36 -6 4 C-5.67 3.34 -5.34 2.68 -5 2 C-2.525 2.99 -2.525 2.99 0 4 C0 2.68 0 1.36 0 0 Z " fill="#C0C1D2" transform="translate(197,38)"/>
<path d="M0 0 C0 0.99 0 1.98 0 3 C-0.66 3 -1.32 3 -2 3 C-1.34 4.32 -0.68 5.64 0 7 C-1.9375 6.25 -1.9375 6.25 -4 5 C-4.75 2.875 -4.75 2.875 -5 1 C-2 0 -2 0 0 0 Z " fill="#B7B7C6" transform="translate(191,33)"/>
<path d="M0 0 C0.93423645 3.01031744 1.04449911 3.86650268 0 7 C-0.66 7 -1.32 7 -2 7 C-2.99 7.33 -3.98 7.66 -5 8 C-5 7.34 -5 6.68 -5 6 C-4.34 6 -3.68 6 -3 6 C-2.690625 5.195625 -2.38125 4.39125 -2.0625 3.5625 C-1 1 -1 1 0 0 Z " fill="#6162E0" transform="translate(120,140)"/>
<path d="M0 0 C-0.99 1.485 -0.99 1.485 -2 3 C-3.32 3 -4.64 3 -6 3 C-6.33 2.01 -6.66 1.02 -7 0 C-4.3333581 -1.33332095 -2.83319697 -0.67102033 0 0 Z " fill="#5860ED" transform="translate(58,82)"/>
<path d="M0 0 C2.31 0.33 4.62 0.66 7 1 C4.14693203 3.32472205 1.45925163 4.7508258 -2 6 C-1.34 4.02 -0.68 2.04 0 0 Z " fill="#4B4FAF" transform="translate(131,72)"/>
<path d="M0 0 C1.9375 0.625 1.9375 0.625 4 2 C4.75 5.125 4.75 5.125 5 8 C4.01 8 3.02 8 2 8 C1.34 5.36 0.68 2.72 0 0 Z " fill="#DBDDED" transform="translate(83,177)"/>
<path d="M0 0 C2 2 2 2 2 6 C0.35 6 -1.3 6 -3 6 C-1.125 1.125 -1.125 1.125 0 0 Z " fill="#F9FDF5" transform="translate(108,144)"/>
<path d="M0 0 C0.66 0.99 1.32 1.98 2 3 C0.02 3.99 0.02 3.99 -2 5 C-2 5.66 -2 6.32 -2 7 C-3.32 6.67 -4.64 6.34 -6 6 C-4 4 -2 2 0 0 Z " fill="#9191A4" transform="translate(152,93)"/>
<path d="M0 0 C0.66 0.33 1.32 0.66 2 1 C-0.25 3.5625 -0.25 3.5625 -3 6 C-5.3125 5.8125 -5.3125 5.8125 -7 5 C-6.401875 4.731875 -5.80375 4.46375 -5.1875 4.1875 C-3.02775192 3.01506533 -1.64209744 1.80630718 0 0 Z " fill="#6164D2" transform="translate(123,172)"/>
<path d="M0 0 C0 1.98 0 3.96 0 6 C-1.32 6 -2.64 6 -4 6 C-3.625 3.5625 -3.625 3.5625 -3 1 C-1 0 -1 0 0 0 Z " fill="#FBFCFC" transform="translate(97,142)"/>
<path d="M0 0 C1.32 0.33 2.64 0.66 4 1 C3.34 2.65 2.68 4.3 2 6 C1.34 6 0.68 6 0 6 C0 4.02 0 2.04 0 0 Z " fill="#EFF3FD" transform="translate(41,137)"/>
<path d="M0 0 C-0.99 1.485 -0.99 1.485 -2 3 C-3.32 3 -4.64 3 -6 3 C-6 2.34 -6 1.68 -6 1 C-6.99 0.67 -7.98 0.34 -9 0 C-5.93109813 -1.53445094 -3.29905734 -0.54984289 0 0 Z " fill="#5862C4" transform="translate(52,80)"/>
<path d="M0 0 C1.65 0.33 3.3 0.66 5 1 C4.67 1.99 4.34 2.98 4 4 C2.02 4 0.04 4 -2 4 C-1.34 2.68 -0.68 1.36 0 0 Z " fill="#E6EBF9" transform="translate(146,56)"/>
<path d="M0 0 C0.33 0 0.66 0 1 0 C1 1.65 1 3.3 1 5 C-0.98 5 -2.96 5 -5 5 C-5.33 4.34 -5.66 3.68 -6 3 C-5.195625 2.690625 -4.39125 2.38125 -3.5625 2.0625 C-1.10919595 1.23664655 -1.10919595 1.23664655 0 0 Z " fill="#737197" transform="translate(78,133)"/>
<path d="M0 0 C0.33 0.66 0.66 1.32 1 2 C2.65 1.34 4.3 0.68 6 0 C3.47211993 2.79872437 1.79588866 4.45773019 -2 5 C-1.34 3.35 -0.68 1.7 0 0 Z " fill="#514F97" transform="translate(161,101)"/>
</svg>
