<svg id="svg" version="1.1" xmlns="http://www.w3.org/2000/svg" xmlns:xlink="http://www.w3.org/1999/xlink" width="400" height="400" viewBox="0, 0, 400,400"><g id="svgg"><path id="path0" d="M35.200 94.795 C 34.870 95.006,33.610 95.382,32.400 95.631 C 31.190 95.880,29.930 96.313,29.600 96.594 C 29.270 96.875,28.612 97.224,28.137 97.368 C 27.662 97.512,27.173 97.894,27.050 98.215 C 26.926 98.537,26.637 98.800,26.406 98.800 C 26.176 98.800,25.495 99.358,24.894 100.039 C 24.292 100.720,23.485 101.570,23.100 101.928 C 22.715 102.285,22.400 102.784,22.400 103.035 C 22.400 103.286,22.040 103.950,21.600 104.509 C 21.160 105.069,20.800 105.999,20.800 106.576 C 20.800 107.153,20.511 108.295,20.157 109.113 C 19.802 109.934,19.420 112.256,19.303 114.300 L 19.091 118.000 199.945 118.000 L 380.800 118.000 380.800 115.086 C 380.800 113.198,380.518 111.371,380.000 109.896 C 379.560 108.644,379.200 107.103,379.200 106.472 C 379.200 105.832,378.846 105.004,378.400 104.600 C 377.960 104.202,377.600 103.550,377.600 103.152 C 377.600 102.754,377.240 102.235,376.800 102.000 C 376.360 101.765,376.000 101.406,376.000 101.204 C 376.000 100.712,374.067 98.800,373.569 98.800 C 373.352 98.800,373.074 98.537,372.950 98.215 C 372.827 97.894,372.338 97.512,371.863 97.366 C 371.388 97.221,370.750 96.899,370.444 96.651 C 370.139 96.403,368.699 95.849,367.244 95.420 C 364.264 94.541,36.562 93.924,35.200 94.795 M55.152 101.441 C 57.145 103.667,57.590 108.114,56.012 110.039 C 53.416 113.206,53.440 113.200,43.761 113.200 C 32.346 113.200,30.800 112.354,30.800 106.106 L 30.800 102.958 32.462 101.279 L 34.125 99.600 43.815 99.600 L 53.505 99.600 55.152 101.441 M86.352 101.441 C 88.345 103.667,88.790 108.114,87.212 110.039 C 85.771 111.798,85.009 112.478,84.074 112.841 C 82.793 113.338,67.106 113.297,65.780 112.792 C 61.671 111.230,60.494 104.964,63.648 101.441 L 65.295 99.600 75.000 99.600 L 84.705 99.600 86.352 101.441 M116.808 100.613 C 117.354 101.170,118.115 101.930,118.500 102.302 C 119.053 102.836,119.200 103.656,119.200 106.210 L 119.200 109.442 117.546 111.113 C 115.454 113.226,115.145 113.276,105.200 113.125 C 97.731 113.011,96.906 112.929,95.942 112.200 C 92.542 109.629,92.029 104.590,94.848 101.441 L 96.495 99.600 106.156 99.600 L 115.817 99.600 116.808 100.613 M132.000 218.600 L 132.000 268.000 137.600 268.000 L 143.200 268.000 143.200 218.600 L 143.200 169.200 137.600 169.200 L 132.000 169.200 132.000 218.600 M88.000 231.200 L 88.000 268.000 93.800 268.000 L 99.600 268.000 99.600 231.200 L 99.600 194.400 93.800 194.400 L 88.000 194.400 88.000 231.200 M175.600 246.800 L 175.600 268.000 181.200 268.000 L 186.800 268.000 186.800 246.800 L 186.800 225.600 181.200 225.600 L 175.600 225.600 175.600 246.800 " stroke="none" fill="#53a3fb" fill-rule="evenodd"></path><path id="path1" d="M31.800 94.981 C 25.525 97.394,21.999 100.934,19.960 106.869 C 18.895 109.970,18.405 117.242,19.197 118.196 C 19.965 119.122,380.040 119.116,380.808 118.190 C 381.590 117.248,381.091 110.002,380.028 106.869 C 378.013 100.922,373.925 96.856,367.972 94.875 L 365.344 94.000 199.772 94.029 L 34.200 94.059 31.800 94.981 M367.244 95.420 C 368.699 95.849,370.139 96.403,370.444 96.651 C 370.750 96.899,371.388 97.221,371.863 97.366 C 372.338 97.512,372.827 97.894,372.950 98.215 C 373.074 98.537,373.352 98.800,373.569 98.800 C 374.067 98.800,376.000 100.712,376.000 101.204 C 376.000 101.406,376.360 101.765,376.800 102.000 C 377.240 102.235,377.600 102.754,377.600 103.152 C 377.600 103.550,377.960 104.202,378.400 104.600 C 378.846 105.004,379.200 105.832,379.200 106.472 C 379.200 107.103,379.560 108.644,380.000 109.896 C 380.518 111.371,380.800 113.198,380.800 115.086 L 380.800 118.000 199.945 118.000 L 19.091 118.000 19.303 114.300 C 19.420 112.256,19.802 109.934,20.157 109.113 C 20.511 108.295,20.800 107.153,20.800 106.576 C 20.800 105.999,21.160 105.069,21.600 104.509 C 22.040 103.950,22.400 103.286,22.400 103.035 C 22.400 102.784,22.715 102.285,23.100 101.928 C 23.485 101.570,24.292 100.720,24.894 100.039 C 25.495 99.358,26.176 98.800,26.406 98.800 C 26.637 98.800,26.926 98.537,27.050 98.215 C 27.173 97.894,27.662 97.512,28.137 97.368 C 28.612 97.224,29.270 96.875,29.600 96.594 C 29.930 96.313,31.190 95.880,32.400 95.631 C 33.610 95.382,34.870 95.006,35.200 94.795 C 36.562 93.924,364.264 94.541,367.244 95.420 M32.462 101.279 L 30.800 102.958 30.800 106.106 C 30.800 112.354,32.346 113.200,43.761 113.200 C 53.440 113.200,53.416 113.206,56.012 110.039 C 57.590 108.114,57.145 103.667,55.152 101.441 L 53.505 99.600 43.815 99.600 L 34.125 99.600 32.462 101.279 M63.648 101.441 C 60.494 104.964,61.671 111.230,65.780 112.792 C 67.106 113.297,82.793 113.338,84.074 112.841 C 85.009 112.478,85.771 111.798,87.212 110.039 C 88.790 108.114,88.345 103.667,86.352 101.441 L 84.705 99.600 75.000 99.600 L 65.295 99.600 63.648 101.441 M94.848 101.441 C 92.029 104.590,92.542 109.629,95.942 112.200 C 96.906 112.929,97.731 113.011,105.200 113.125 C 115.145 113.276,115.454 113.226,117.546 111.113 L 119.200 109.442 119.200 106.210 C 119.200 103.656,119.053 102.836,118.500 102.302 C 118.115 101.930,117.354 101.170,116.808 100.613 L 115.817 99.600 106.156 99.600 L 96.495 99.600 94.848 101.441 M53.257 100.698 C 57.305 103.089,57.343 108.569,53.334 111.724 C 52.140 112.663,40.847 113.258,36.520 112.609 C 30.893 111.765,29.285 104.704,33.866 100.957 C 35.414 99.690,51.195 99.479,53.257 100.698 M84.699 100.806 C 88.633 103.901,88.645 108.666,84.726 111.606 C 82.744 113.092,67.386 113.161,65.328 111.693 C 61.405 108.894,61.358 104.057,65.223 100.839 C 66.722 99.592,83.120 99.564,84.699 100.806 M116.042 100.894 C 119.825 103.691,119.742 108.932,115.872 111.693 C 113.934 113.075,98.415 113.100,96.666 111.724 C 92.617 108.538,92.646 103.404,96.729 100.711 C 98.557 99.506,114.366 99.655,116.042 100.894 M131.690 169.270 C 130.984 169.976,130.974 267.614,131.680 268.320 C 132.229 268.869,142.266 269.000,143.102 268.469 C 143.500 268.216,143.582 257.972,143.502 218.575 L 143.400 169.000 137.790 168.890 C 133.766 168.810,132.042 168.918,131.690 169.270 M143.200 218.600 L 143.200 268.000 137.600 268.000 L 132.000 268.000 132.000 218.600 L 132.000 169.200 137.600 169.200 L 143.200 169.200 143.200 218.600 M87.877 194.256 C 87.350 194.784,87.550 267.790,88.080 268.320 C 88.800 269.040,98.950 268.983,99.553 268.256 C 99.882 267.860,99.977 257.782,99.902 230.956 L 99.800 194.200 93.977 194.090 C 90.774 194.029,88.029 194.104,87.877 194.256 M99.600 231.200 L 99.600 268.000 93.800 268.000 L 88.000 268.000 88.000 231.200 L 88.000 194.400 93.800 194.400 L 99.600 194.400 99.600 231.200 M175.383 225.700 C 175.278 225.975,175.239 235.740,175.296 247.400 L 175.400 268.600 181.200 268.600 L 187.000 268.600 187.103 246.900 L 187.207 225.200 181.391 225.200 C 177.107 225.200,175.524 225.332,175.383 225.700 M186.800 246.800 L 186.800 268.000 181.200 268.000 L 175.600 268.000 175.600 246.800 L 175.600 225.600 181.200 225.600 L 186.800 225.600 186.800 246.800 " stroke="none" fill="#4494ec" fill-rule="evenodd"></path><path id="path2" d="M28.121 80.928 C 27.975 81.164,28.084 81.195,28.390 81.006 C 28.733 80.794,28.841 80.874,28.716 81.244 C 28.608 81.566,28.006 81.791,27.290 81.779 C 26.608 81.768,26.140 81.903,26.249 82.079 C 26.358 82.256,26.077 82.400,25.624 82.400 C 25.171 82.400,24.800 82.648,24.800 82.951 C 24.800 83.254,24.530 83.726,24.200 84.000 C 23.718 84.400,23.600 84.394,23.600 83.969 C 23.600 83.558,23.493 83.547,23.120 83.920 C 22.592 84.448,21.437 84.588,21.747 84.086 C 21.854 83.913,21.601 83.771,21.186 83.771 C 20.470 83.771,20.467 83.812,21.116 84.554 C 21.492 84.985,21.575 85.206,21.300 85.045 C 21.025 84.884,20.800 84.943,20.800 85.176 C 20.800 85.409,20.609 85.600,20.376 85.600 C 20.143 85.600,20.069 85.375,20.210 85.100 C 20.352 84.825,19.957 85.140,19.333 85.800 C 18.486 86.695,17.907 86.967,17.056 86.869 C 16.189 86.770,15.995 86.866,16.246 87.269 C 16.795 88.149,16.756 88.758,16.164 88.531 C 15.857 88.413,15.496 88.606,15.361 88.958 C 15.026 89.832,14.368 89.777,14.650 88.900 C 14.836 88.324,14.802 88.304,14.461 88.787 C 14.169 89.199,14.187 89.545,14.523 89.952 C 14.932 90.448,14.871 90.462,14.100 90.051 C 13.522 89.743,13.200 89.720,13.200 89.986 C 13.200 90.214,13.425 90.403,13.700 90.406 C 14.058 90.411,14.041 90.513,13.642 90.766 C 13.194 91.050,13.233 91.157,13.842 91.313 C 14.484 91.478,14.463 91.514,13.700 91.554 C 13.205 91.579,12.800 91.774,12.800 91.987 C 12.800 92.201,12.548 92.278,12.240 92.160 C 11.876 92.020,11.701 92.200,11.740 92.673 C 11.785 93.214,11.557 93.373,10.847 93.295 C 10.127 93.216,9.993 93.314,10.297 93.695 C 10.519 93.973,10.648 94.650,10.583 95.200 C 10.519 95.750,10.452 96.335,10.433 96.500 C 10.415 96.665,9.950 96.800,9.400 96.800 C 8.850 96.800,8.400 96.974,8.400 97.187 C 8.400 97.401,8.700 97.460,9.066 97.319 C 9.536 97.139,9.640 97.212,9.419 97.570 C 9.247 97.848,8.707 97.999,8.220 97.906 C 7.705 97.808,7.333 97.937,7.333 98.213 C 7.333 98.492,7.663 98.604,8.129 98.482 C 8.633 98.350,8.828 98.431,8.660 98.703 C 8.514 98.939,8.621 99.223,8.898 99.334 C 9.174 99.446,8.989 99.551,8.487 99.568 C 7.514 99.602,6.737 100.846,7.525 101.108 C 7.847 101.216,7.874 101.488,7.611 101.980 C 7.400 102.373,7.357 102.823,7.514 102.981 C 7.671 103.138,7.620 103.223,7.400 103.170 C 6.741 103.010,5.587 103.656,5.830 104.048 C 5.954 104.249,6.268 104.307,6.528 104.177 C 6.787 104.047,6.729 104.179,6.398 104.470 C 5.702 105.082,5.490 107.182,6.055 107.864 C 6.303 108.164,6.291 108.420,6.021 108.587 C 5.547 108.880,5.406 290.873,5.880 291.347 C 6.275 291.741,6.392 292.842,6.015 292.609 C 5.842 292.502,5.700 293.404,5.700 294.613 C 5.700 296.408,5.818 296.793,6.341 296.706 C 6.694 296.648,6.994 296.870,7.009 297.200 C 7.024 297.530,7.247 297.757,7.504 297.705 C 7.773 297.650,7.872 297.869,7.736 298.222 C 7.529 298.761,7.411 298.753,6.751 298.155 C 6.287 297.735,6.000 297.657,6.000 297.951 C 6.000 298.212,6.252 298.522,6.561 298.640 C 6.869 298.759,7.212 299.203,7.323 299.628 C 7.447 300.100,7.890 300.412,8.463 300.432 C 8.978 300.449,9.174 300.554,8.898 300.666 C 8.621 300.777,8.514 301.061,8.660 301.297 C 8.828 301.569,8.633 301.650,8.129 301.518 C 7.654 301.394,7.333 301.508,7.333 301.800 C 7.333 302.080,7.651 302.207,8.073 302.097 C 8.626 301.952,8.749 302.067,8.563 302.552 C 8.395 302.991,8.531 303.200,8.986 303.200 C 9.355 303.200,9.952 303.495,10.313 303.856 C 11.085 304.628,11.350 305.736,10.665 305.325 C 10.409 305.172,10.447 305.351,10.749 305.723 C 11.363 306.480,12.207 306.659,11.762 305.938 C 11.588 305.658,11.652 305.585,11.923 305.752 C 12.228 305.941,12.249 306.344,11.990 307.025 C 11.647 307.929,11.723 308.045,12.806 308.261 C 13.463 308.393,14.000 308.638,14.000 308.807 C 14.000 309.370,12.905 309.544,12.359 309.069 C 12.063 308.811,12.172 309.019,12.600 309.531 C 13.029 310.043,13.444 310.268,13.523 310.031 C 13.602 309.794,13.851 309.600,14.076 309.600 C 14.301 309.600,14.378 309.879,14.247 310.221 C 14.116 310.562,14.175 310.739,14.377 310.614 C 15.030 310.210,16.841 312.199,16.307 312.733 C 15.951 313.089,16.216 313.201,17.420 313.206 C 18.587 313.211,18.843 313.313,18.400 313.600 C 17.818 313.976,17.946 314.068,19.200 314.171 C 19.530 314.198,19.775 314.531,19.744 314.910 C 19.691 315.576,20.049 315.766,21.100 315.630 C 21.375 315.594,21.600 315.772,21.600 316.025 C 21.600 316.278,21.870 316.382,22.200 316.255 C 22.737 316.049,23.008 316.643,22.852 317.686 C 22.829 317.843,23.076 317.869,23.403 317.744 C 23.729 317.619,23.905 317.370,23.795 317.192 C 23.338 316.453,24.642 316.604,25.326 317.369 C 25.872 317.982,26.013 318.027,25.862 317.542 C 25.694 317.001,25.848 316.936,26.729 317.172 C 27.318 317.330,27.805 317.716,27.811 318.030 C 27.825 318.796,28.355 319.600,28.847 319.600 C 29.067 319.600,29.146 319.436,29.022 319.235 C 28.789 318.859,29.494 318.859,30.200 319.236 C 30.680 319.492,31.903 319.392,33.000 319.006 C 33.466 318.842,33.607 318.865,33.338 319.062 C 33.061 319.265,33.565 319.400,34.600 319.400 C 35.548 319.400,36.229 319.247,36.114 319.060 C 35.998 318.873,36.273 318.918,36.725 319.160 C 37.897 319.787,362.103 319.787,363.275 319.160 C 363.727 318.918,364.002 318.873,363.887 319.060 C 363.630 319.475,371.214 319.507,371.862 319.094 C 372.117 318.932,372.223 318.411,372.099 317.937 C 371.941 317.330,372.016 317.163,372.355 317.372 C 372.619 317.535,373.322 317.360,373.918 316.983 C 374.513 316.605,374.775 316.536,374.500 316.828 C 373.819 317.553,373.870 318.025,374.600 317.745 C 374.930 317.618,375.200 317.234,375.200 316.891 C 375.200 316.547,375.317 316.384,375.460 316.527 C 375.604 316.670,375.965 316.475,376.263 316.094 C 376.740 315.483,376.759 315.528,376.425 316.466 C 376.131 317.293,376.180 317.583,376.644 317.761 C 376.972 317.888,377.142 317.829,377.019 317.632 C 376.644 317.024,377.233 316.038,377.833 316.268 C 378.145 316.388,378.400 316.278,378.400 316.025 C 378.400 315.772,378.625 315.594,378.900 315.630 C 380.021 315.775,380.366 315.577,380.118 314.931 C 379.931 314.443,380.026 314.324,380.468 314.494 C 380.816 314.628,381.311 314.401,381.626 313.964 C 381.929 313.544,382.481 313.200,382.853 313.200 C 383.267 313.200,383.490 312.931,383.428 312.508 C 383.300 311.640,385.012 310.239,385.696 310.651 C 386.075 310.878,386.095 310.810,385.776 310.377 C 385.205 309.600,386.754 308.000,388.076 308.000 C 388.339 308.000,388.204 307.717,387.776 307.370 C 387.349 307.024,387.225 306.855,387.500 306.994 C 387.775 307.133,388.000 307.057,388.000 306.824 C 388.000 306.591,388.251 306.400,388.557 306.400 C 388.864 306.400,389.222 306.119,389.354 305.775 C 389.486 305.431,389.740 305.239,389.917 305.349 C 390.095 305.458,390.473 305.174,390.759 304.717 C 391.227 303.968,391.199 303.907,390.469 304.098 C 389.900 304.247,389.721 304.149,389.868 303.767 C 389.982 303.469,390.194 303.241,390.338 303.260 C 391.072 303.357,391.600 303.155,391.600 302.776 C 391.600 302.543,391.411 302.470,391.179 302.613 C 390.948 302.756,391.023 302.241,391.345 301.469 C 391.668 300.697,391.812 299.932,391.666 299.769 C 391.520 299.606,391.719 299.587,392.109 299.727 C 392.689 299.935,392.749 299.853,392.441 299.276 C 392.145 298.723,392.320 298.366,393.252 297.624 C 394.459 296.663,394.803 294.482,393.714 294.695 C 393.424 294.752,393.326 294.538,393.470 294.162 C 393.664 293.655,393.777 293.637,394.047 294.066 C 394.232 294.360,394.385 251.563,394.387 198.963 C 394.390 146.362,394.261 103.194,394.101 103.034 C 393.941 102.874,393.808 102.457,393.805 102.106 C 393.802 101.756,393.530 101.379,393.200 101.269 C 392.693 101.101,392.682 101.170,393.130 101.712 C 393.586 102.265,393.552 102.347,392.881 102.296 C 392.228 102.247,392.153 102.060,392.417 101.141 C 392.618 100.439,392.574 99.991,392.295 99.898 C 392.019 99.806,391.991 99.541,392.218 99.176 C 392.846 98.169,392.746 97.689,391.952 97.897 C 391.374 98.048,391.249 97.938,391.437 97.448 C 391.597 97.030,391.475 96.800,391.092 96.800 C 389.855 96.800,388.743 94.155,389.707 93.507 C 389.983 93.322,389.688 93.295,389.038 93.447 C 388.003 93.688,387.900 93.627,388.093 92.889 C 388.259 92.251,388.043 91.949,387.155 91.581 C 386.520 91.318,386.000 90.945,386.000 90.751 C 386.000 90.558,385.696 90.400,385.324 90.400 C 384.731 90.400,384.743 90.322,385.424 89.770 C 385.851 89.424,385.987 89.247,385.728 89.377 C 384.939 89.771,383.129 87.836,383.713 87.223 C 384.105 86.813,383.906 86.745,382.698 86.876 C 381.398 87.018,381.228 86.943,381.425 86.320 C 381.680 85.518,380.975 85.310,380.680 86.100 C 380.550 86.449,380.218 86.335,379.580 85.722 C 378.896 85.065,378.775 84.712,379.099 84.322 C 379.443 83.908,379.208 83.800,377.966 83.800 C 377.105 83.800,376.400 83.963,376.400 84.162 C 376.400 84.361,376.044 84.202,375.609 83.809 C 375.175 83.415,374.930 82.913,375.066 82.693 C 375.220 82.444,374.822 82.365,374.012 82.484 C 373.018 82.630,372.490 82.454,371.774 81.737 C 370.809 80.773,370.999 80.407,372.001 81.300 C 372.478 81.725,372.482 81.696,372.032 81.100 C 371.420 80.291,369.776 80.106,370.253 80.900 C 370.457 81.240,370.337 81.224,369.877 80.851 C 369.288 80.373,369.200 80.396,369.200 81.027 C 369.200 81.705,369.161 81.702,368.613 80.976 C 368.251 80.498,368.021 80.401,368.013 80.724 C 368.005 81.038,367.801 81.124,367.502 80.940 C 366.795 80.502,364.005 80.484,364.273 80.919 C 364.396 81.117,364.127 81.082,363.675 80.840 C 362.503 80.213,37.497 80.213,36.325 80.840 C 35.873 81.082,35.604 81.117,35.727 80.919 C 35.995 80.484,33.205 80.502,32.498 80.940 C 32.199 81.124,31.995 81.038,31.987 80.724 C 31.979 80.401,31.749 80.498,31.387 80.976 C 30.857 81.677,30.800 81.685,30.800 81.053 C 30.800 80.668,30.617 80.466,30.393 80.604 C 30.170 80.742,30.068 80.987,30.168 81.148 C 30.267 81.308,29.989 81.664,29.550 81.938 C 28.824 82.392,28.790 82.365,29.176 81.645 C 29.409 81.209,29.600 80.781,29.600 80.693 C 29.600 80.355,28.352 80.554,28.121 80.928 M22.933 82.569 C 22.933 82.822,23.263 83.029,23.667 83.029 C 24.070 83.029,24.400 82.908,24.400 82.761 C 24.400 82.614,24.070 82.407,23.667 82.302 C 23.263 82.196,22.933 82.316,22.933 82.569 M376.300 82.276 C 375.378 82.517,375.401 83.029,376.333 83.029 C 376.737 83.029,377.067 82.797,377.067 82.514 C 377.067 82.231,377.052 82.021,377.033 82.046 C 377.015 82.072,376.685 82.175,376.300 82.276 M386.412 90.057 C 386.397 90.851,387.464 91.344,387.849 90.721 C 388.010 90.461,387.942 90.388,387.686 90.547 C 387.446 90.695,387.064 90.498,386.837 90.108 C 386.474 89.485,386.423 89.479,386.412 90.057 M370.564 93.900 C 371.193 94.395,372.090 94.800,372.558 94.800 C 373.025 94.800,373.632 95.160,373.907 95.600 C 374.182 96.040,374.675 96.400,375.003 96.400 C 375.332 96.400,375.600 96.658,375.600 96.973 C 375.600 97.288,375.960 97.660,376.400 97.800 C 376.840 97.940,377.200 98.300,377.200 98.600 C 377.200 98.900,377.560 99.260,378.000 99.400 C 378.440 99.540,378.800 99.912,378.800 100.227 C 378.800 100.542,379.160 101.160,379.600 101.600 C 380.040 102.040,380.400 102.850,380.400 103.400 C 380.400 104.008,380.628 104.400,380.982 104.400 C 381.849 104.400,382.050 106.289,381.918 113.200 L 381.800 119.400 200.000 119.400 L 18.200 119.400 18.200 112.071 C 18.200 105.507,18.273 104.702,18.900 104.351 C 19.285 104.136,19.600 103.609,19.600 103.180 C 19.600 102.751,19.960 102.040,20.400 101.600 C 20.840 101.160,21.200 100.542,21.200 100.227 C 21.200 99.912,21.560 99.540,22.000 99.400 C 22.440 99.260,22.800 98.900,22.800 98.600 C 22.800 98.300,23.160 97.940,23.600 97.800 C 24.040 97.660,24.400 97.288,24.400 96.973 C 24.400 96.658,24.642 96.400,24.938 96.400 C 25.234 96.400,25.802 96.040,26.200 95.600 C 26.598 95.160,27.249 94.800,27.646 94.800 C 28.044 94.800,28.697 94.448,29.098 94.018 C 30.143 92.896,20.546 92.953,203.010 92.978 L 369.420 93.000 370.564 93.900 M37.186 101.371 C 36.864 101.685,35.971 102.101,35.203 102.295 C 32.838 102.894,32.465 109.187,34.741 110.061 C 35.324 110.285,36.310 110.722,36.932 111.034 C 38.607 111.871,49.700 111.843,50.400 111.000 C 50.674 110.670,51.281 110.394,51.749 110.387 C 53.564 110.360,54.118 109.435,54.118 106.425 C 54.118 103.505,53.647 102.400,52.405 102.400 C 52.022 102.400,51.250 102.040,50.691 101.600 C 49.372 100.563,38.209 100.373,37.186 101.371 M68.421 101.374 C 68.159 101.690,67.430 102.062,66.800 102.200 C 63.508 102.923,63.715 110.400,67.027 110.400 C 67.508 110.400,68.126 110.670,68.400 111.000 C 68.803 111.485,70.064 111.600,75.000 111.600 C 79.936 111.600,81.197 111.485,81.600 111.000 C 81.874 110.670,82.492 110.400,82.973 110.400 C 86.285 110.400,86.492 102.923,83.200 102.200 C 82.570 102.062,81.841 101.690,81.579 101.374 C 81.203 100.921,79.815 100.800,75.000 100.800 C 70.185 100.800,68.797 100.921,68.421 101.374 M99.256 101.613 C 98.736 102.046,97.993 102.400,97.605 102.400 C 96.323 102.400,95.833 103.539,95.860 106.455 C 95.887 109.431,96.452 110.360,98.251 110.387 C 98.719 110.394,99.326 110.670,99.600 111.000 C 100.300 111.843,111.393 111.871,113.068 111.034 C 113.690 110.722,114.670 110.288,115.244 110.068 C 117.503 109.203,117.141 102.892,114.797 102.291 C 114.029 102.093,113.116 101.677,112.769 101.366 C 111.674 100.385,100.484 100.590,99.256 101.613 M380.400 209.368 C 380.400 287.772,380.397 288.000,379.291 288.000 C 378.571 288.000,378.863 288.421,379.663 288.539 C 380.719 288.694,380.685 290.256,379.618 290.594 C 378.962 290.802,378.860 291.132,378.987 292.621 C 379.071 293.600,378.973 294.400,378.770 294.400 C 378.566 294.400,378.445 294.265,378.500 294.100 C 378.555 293.935,378.420 293.710,378.201 293.600 C 377.981 293.490,377.783 293.670,377.761 294.000 C 377.740 294.330,377.694 295.016,377.661 295.524 C 377.627 296.032,377.439 296.348,377.242 296.226 C 376.836 295.975,376.257 297.190,376.612 297.546 C 376.739 297.673,377.011 297.512,377.216 297.188 C 377.507 296.728,377.589 296.805,377.594 297.543 C 377.598 298.235,377.434 298.422,376.974 298.245 C 376.511 298.068,376.407 298.191,376.574 298.717 C 376.736 299.229,376.574 299.447,376.000 299.490 C 375.560 299.523,375.200 299.371,375.200 299.152 C 375.200 298.932,375.408 298.881,375.662 299.038 C 375.948 299.215,376.015 299.148,375.838 298.862 C 375.229 297.875,374.698 298.419,374.923 299.800 C 375.117 300.996,375.037 301.200,374.375 301.200 C 373.483 301.200,373.382 300.780,374.100 300.056 C 374.501 299.653,374.467 299.603,373.931 299.807 C 373.228 300.075,372.594 301.200,373.146 301.200 C 373.322 301.200,373.467 301.467,373.467 301.794 C 373.467 302.455,372.232 302.990,371.604 302.602 C 371.382 302.465,371.200 302.565,371.200 302.825 C 371.200 303.158,371.003 303.136,370.535 302.749 C 369.935 302.254,369.914 302.284,370.320 303.047 C 370.905 304.144,370.658 304.347,369.008 304.124 C 368.264 304.024,367.311 304.127,366.889 304.352 C 366.344 304.644,365.972 304.624,365.602 304.281 C 365.186 303.896,365.135 303.948,365.346 304.545 C 365.549 305.118,365.460 305.232,364.960 305.040 C 364.501 304.864,364.377 304.962,364.535 305.375 C 364.687 305.771,364.569 305.886,364.168 305.732 C 363.797 305.590,363.654 305.186,363.784 304.653 C 363.899 304.184,363.889 304.026,363.762 304.302 C 363.635 304.579,363.336 304.684,363.098 304.537 C 362.826 304.369,362.755 304.506,362.907 304.901 C 363.049 305.271,362.902 305.629,362.554 305.762 C 362.226 305.888,362.041 305.858,362.141 305.695 C 362.241 305.533,289.278 305.400,200.000 305.400 C 110.722 305.400,37.759 305.533,37.859 305.695 C 37.959 305.858,37.774 305.888,37.446 305.762 C 37.098 305.629,36.951 305.271,37.093 304.901 C 37.245 304.506,37.174 304.369,36.902 304.537 C 36.664 304.684,36.365 304.579,36.238 304.302 C 36.111 304.026,36.101 304.184,36.216 304.653 C 36.346 305.186,36.203 305.590,35.832 305.732 C 35.414 305.893,35.303 305.760,35.453 305.280 C 35.622 304.738,35.527 304.762,34.985 305.400 C 34.323 306.179,34.312 306.168,34.581 305.000 C 34.798 304.056,34.752 303.903,34.367 304.281 C 34.014 304.629,33.660 304.646,33.094 304.343 C 32.663 304.113,31.890 304.004,31.375 304.103 C 30.334 304.302,29.814 303.546,30.511 302.849 C 31.158 302.202,29.921 302.251,29.221 302.900 C 28.790 303.300,28.739 303.300,28.965 302.900 C 29.151 302.570,28.966 302.400,28.424 302.400 C 27.971 302.400,27.600 302.226,27.600 302.013 C 27.600 301.799,27.915 301.732,28.300 301.862 C 28.695 301.995,28.565 301.780,28.000 301.366 C 27.450 300.963,26.762 300.400,26.471 300.116 C 26.181 299.832,25.830 299.600,25.691 299.600 C 25.553 299.600,25.656 299.816,25.920 300.080 C 26.635 300.795,26.503 301.200,25.555 301.200 C 24.801 301.200,24.740 301.045,24.984 299.746 C 25.223 298.469,25.171 298.325,24.554 298.562 C 24.069 298.748,23.556 298.487,22.892 297.716 C 22.040 296.728,22.010 296.584,22.623 296.459 C 23.105 296.362,23.171 296.229,22.838 296.023 C 22.574 295.861,22.305 295.218,22.238 294.596 C 22.163 293.889,21.859 293.426,21.428 293.363 C 21.048 293.307,20.504 293.172,20.219 293.063 C 19.546 292.804,19.192 290.533,19.824 290.533 C 20.086 290.533,20.251 291.003,20.200 291.600 C 20.146 292.230,20.312 292.667,20.605 292.667 C 21.951 292.667,20.947 290.234,19.480 289.943 C 18.810 289.810,18.805 289.745,19.413 289.000 C 19.953 288.338,20.027 288.321,19.845 288.900 C 19.699 289.364,19.838 289.600,20.255 289.600 C 20.639 289.600,20.799 289.375,20.665 289.026 C 20.544 288.710,20.660 288.364,20.922 288.257 C 21.185 288.151,21.085 288.049,20.700 288.032 C 20.315 288.014,19.956 287.955,19.903 287.900 C 19.850 287.845,19.715 252.700,19.603 209.800 L 19.400 131.800 199.900 131.901 L 380.400 132.002 380.400 209.368 M121.698 155.869 C 121.421 155.979,121.316 156.264,121.463 156.502 C 121.633 156.777,121.490 156.843,121.070 156.682 C 120.707 156.543,120.452 156.561,120.505 156.722 C 120.675 157.246,118.874 158.893,118.431 158.619 C 118.194 158.473,118.000 158.543,118.000 158.776 C 118.000 159.009,118.202 159.200,118.449 159.200 C 118.758 159.200,118.771 159.356,118.493 159.700 C 118.270 159.975,118.086 160.830,118.083 161.600 C 118.080 162.370,118.061 186.625,118.039 215.500 L 118.000 268.000 115.600 268.000 L 113.200 268.000 113.200 228.024 C 113.200 201.376,113.064 187.963,112.793 187.796 C 112.570 187.658,112.525 187.332,112.693 187.072 C 113.374 186.023,113.051 182.114,112.300 182.310 C 111.539 182.509,111.358 183.404,112.000 183.800 C 112.220 183.936,112.397 184.262,112.393 184.524 C 112.390 184.786,112.012 184.415,111.554 183.700 C 111.097 182.986,110.590 182.483,110.428 182.583 C 110.266 182.683,110.133 182.533,110.133 182.249 C 110.133 181.965,110.365 181.733,110.649 181.733 C 110.933 181.733,111.055 181.911,110.921 182.128 C 110.784 182.349,110.880 182.398,111.138 182.238 C 111.911 181.761,111.659 181.304,110.501 181.083 C 109.881 180.965,109.274 181.075,109.107 181.337 C 108.914 181.640,108.810 181.567,108.806 181.123 C 108.800 180.470,107.774 180.398,106.826 180.984 C 106.622 181.110,106.342 181.030,106.204 180.807 C 105.881 180.284,82.037 180.262,81.213 180.783 C 80.891 180.987,80.441 181.018,80.213 180.853 C 79.986 180.687,79.575 180.584,79.300 180.625 C 79.025 180.666,78.511 180.722,78.157 180.750 C 77.749 180.782,77.601 181.026,77.753 181.421 C 77.889 181.777,77.822 181.937,77.595 181.797 C 77.378 181.663,77.194 181.788,77.187 182.076 C 77.179 182.399,76.949 182.302,76.587 181.824 C 76.037 181.096,76.000 181.142,76.000 182.547 C 76.000 183.546,75.851 183.955,75.555 183.772 C 74.528 183.137,74.438 186.459,74.410 226.168 C 74.394 249.039,74.333 267.800,74.275 267.858 C 74.217 267.917,67.621 268.017,59.618 268.082 C 47.090 268.184,45.043 268.283,44.903 268.800 C 44.768 269.293,44.808 269.302,45.125 268.849 C 45.587 268.188,46.364 268.564,46.243 269.390 C 46.142 270.077,45.600 270.715,45.600 270.147 C 45.600 269.934,45.163 269.760,44.629 269.760 C 43.792 269.760,43.715 269.867,44.072 270.534 C 44.407 271.160,44.553 271.202,44.837 270.754 C 45.066 270.392,45.190 270.365,45.194 270.676 C 45.204 271.453,44.528 271.636,44.000 271.000 C 43.730 270.675,43.331 270.519,43.112 270.654 C 42.864 270.808,42.896 271.012,43.199 271.199 C 43.560 271.423,43.571 271.706,43.241 272.323 C 42.672 273.386,42.672 276.614,43.241 277.677 C 43.571 278.294,43.560 278.577,43.199 278.801 C 42.896 278.988,42.864 279.192,43.112 279.346 C 43.331 279.481,43.730 279.325,44.000 279.000 C 44.528 278.364,45.204 278.547,45.194 279.324 C 45.190 279.635,45.066 279.608,44.837 279.246 C 44.553 278.798,44.407 278.840,44.072 279.466 C 43.715 280.133,43.792 280.240,44.629 280.240 C 45.163 280.240,45.600 280.085,45.600 279.896 C 45.600 279.707,45.764 279.654,45.964 279.778 C 46.375 280.032,46.312 281.022,45.856 281.477 C 45.691 281.642,45.373 281.512,45.148 281.188 C 44.791 280.674,44.760 280.676,44.903 281.200 C 45.048 281.731,55.629 281.811,136.575 281.897 C 216.158 281.982,228.055 281.920,227.862 281.418 C 227.722 281.052,227.834 280.915,228.169 281.043 C 228.459 281.155,228.812 280.945,228.953 280.578 C 229.166 280.024,229.315 279.998,229.827 280.423 C 230.167 280.705,230.414 280.770,230.375 280.568 C 230.226 279.782,230.428 279.425,230.741 279.919 C 231.004 280.333,231.174 280.313,231.584 279.819 C 232.005 279.312,231.999 279.199,231.549 279.194 C 231.118 279.189,231.129 279.105,231.600 278.800 C 232.098 278.478,232.064 278.410,231.400 278.400 C 230.766 278.390,230.719 278.313,231.173 278.025 C 231.576 277.770,231.745 276.875,231.745 275.000 C 231.745 273.125,231.576 272.230,231.173 271.975 C 230.719 271.687,230.766 271.610,231.400 271.600 C 232.064 271.590,232.098 271.522,231.600 271.200 C 231.129 270.895,231.118 270.811,231.549 270.806 C 231.999 270.801,232.005 270.688,231.584 270.181 C 231.174 269.687,231.004 269.667,230.741 270.081 C 230.428 270.575,230.226 270.218,230.375 269.432 C 230.414 269.230,230.167 269.295,229.827 269.577 C 229.315 270.002,229.166 269.976,228.953 269.422 C 228.812 269.055,228.459 268.845,228.169 268.957 C 227.844 269.081,227.721 268.949,227.850 268.614 C 228.024 268.160,225.780 268.060,214.549 268.020 C 207.118 267.993,200.988 267.922,200.927 267.861 C 200.867 267.800,200.805 256.345,200.791 242.406 C 200.767 219.007,200.713 217.022,200.083 216.530 C 199.451 216.038,199.456 216.017,200.147 216.260 C 200.948 216.541,200.488 215.149,199.598 214.599 C 199.379 214.463,199.200 213.993,199.200 213.553 C 199.200 213.113,199.020 212.864,198.800 213.000 C 198.580 213.136,198.400 213.057,198.400 212.824 C 198.400 212.591,198.591 212.400,198.824 212.400 C 199.057 212.400,199.141 212.228,199.011 212.017 C 198.679 211.481,197.554 211.982,197.832 212.542 C 197.957 212.794,197.820 212.711,197.528 212.358 C 197.186 211.945,196.501 211.755,195.599 211.825 C 192.558 212.059,167.964 212.025,167.577 211.786 C 167.350 211.646,166.868 211.772,166.506 212.066 C 166.143 212.360,165.963 212.405,166.106 212.167 C 166.248 211.928,166.095 211.733,165.765 211.733 C 165.401 211.733,165.254 211.965,165.392 212.323 C 165.573 212.795,165.504 212.818,165.045 212.437 C 164.458 211.950,163.821 212.446,163.806 213.400 C 163.803 213.620,163.620 213.803,163.400 213.806 C 162.446 213.821,161.950 214.458,162.437 215.045 C 162.818 215.504,162.795 215.573,162.323 215.392 C 161.965 215.254,161.733 215.401,161.733 215.765 C 161.733 216.095,161.928 216.248,162.167 216.106 C 162.405 215.963,162.361 216.142,162.068 216.502 C 161.745 216.901,161.667 217.390,161.868 217.750 C 162.051 218.076,162.152 229.516,162.094 243.171 L 161.988 268.000 159.594 268.000 L 157.200 268.000 157.200 214.374 C 157.200 176.042,157.074 160.512,156.759 159.923 C 156.420 159.291,156.444 159.008,156.859 158.711 C 157.270 158.418,157.232 158.379,156.700 158.550 C 156.315 158.674,156.000 158.601,156.000 158.387 C 156.000 158.174,156.191 158.000,156.424 158.000 C 156.657 158.000,156.731 157.811,156.588 157.581 C 156.411 157.295,156.146 157.313,155.755 157.637 C 155.290 158.023,155.229 157.989,155.434 157.457 C 155.602 157.019,155.475 156.800,155.055 156.800 C 154.624 156.800,154.508 157.017,154.689 157.487 C 154.922 158.096,154.880 158.107,154.316 157.587 C 153.965 157.264,153.842 156.940,154.042 156.866 C 154.242 156.792,154.286 156.539,154.141 156.304 C 153.984 156.051,154.065 155.993,154.338 156.162 C 154.592 156.319,154.800 156.266,154.800 156.044 C 154.800 155.634,122.718 155.464,121.698 155.869 M144.400 218.809 L 144.400 269.619 137.500 269.509 L 130.600 269.400 130.497 219.200 C 130.441 191.590,130.480 168.775,130.585 168.500 C 130.727 168.127,132.506 168.000,137.587 168.000 L 144.400 168.000 144.400 218.809 M258.826 175.503 C 258.495 176.229,258.238 176.398,257.932 176.092 C 257.634 175.794,257.226 175.787,256.605 176.071 C 255.659 176.501,255.208 185.600,256.132 185.600 C 256.333 185.600,256.294 185.845,256.045 186.145 C 255.680 186.585,255.778 186.655,256.548 186.508 C 257.400 186.345,257.486 186.449,257.346 187.463 C 257.230 188.300,257.274 188.405,257.513 187.861 C 257.792 187.225,257.905 187.203,258.319 187.703 C 258.617 188.061,259.374 188.245,260.300 188.184 C 262.640 188.029,269.239 188.026,270.886 188.179 C 271.855 188.269,272.544 188.109,272.867 187.719 C 273.300 187.197,273.402 187.215,273.680 187.861 C 273.875 188.315,273.912 188.059,273.775 187.200 C 273.652 186.430,273.697 185.980,273.876 186.200 C 274.054 186.420,274.550 186.661,274.978 186.736 C 275.648 186.852,275.683 186.782,275.230 186.236 C 274.809 185.728,274.805 185.600,275.213 185.600 C 275.553 185.600,275.469 185.301,274.962 184.707 C 274.475 184.136,274.433 183.993,274.845 184.310 C 275.428 184.759,275.490 184.408,275.500 180.629 C 275.508 177.242,275.395 176.407,274.899 176.216 C 274.370 176.014,274.362 176.078,274.837 176.691 C 275.325 177.322,275.290 177.318,274.518 176.661 C 274.041 176.254,273.461 176.039,273.230 176.182 C 272.975 176.339,272.903 176.197,273.047 175.821 C 273.204 175.413,273.057 175.200,272.619 175.200 C 272.253 175.200,272.059 175.028,272.189 174.817 C 272.336 174.579,269.942 174.444,265.858 174.459 L 259.290 174.484 258.826 175.503 M282.235 175.052 C 282.092 175.427,282.176 175.539,282.466 175.359 C 282.748 175.185,282.814 175.254,282.638 175.538 C 282.481 175.792,282.024 176.000,281.623 176.000 C 280.732 176.000,280.322 177.342,280.816 178.643 C 281.016 179.169,281.050 179.600,280.890 179.600 C 280.365 179.599,280.704 183.293,281.261 183.646 C 281.678 183.910,281.641 183.989,281.100 183.994 C 280.710 183.997,280.400 184.301,280.400 184.680 C 280.400 185.209,280.507 185.253,280.880 184.880 C 281.473 184.287,282.000 184.260,282.000 184.824 C 282.000 185.057,281.775 185.133,281.500 184.994 C 281.225 184.855,281.286 184.979,281.635 185.270 C 281.984 185.562,282.196 186.020,282.105 186.290 C 281.802 187.189,283.044 188.581,283.379 187.718 C 283.623 187.089,283.716 187.075,284.129 187.600 C 284.640 188.252,339.600 188.549,339.600 187.900 C 339.600 187.735,339.791 187.600,340.024 187.600 C 340.257 187.600,340.355 187.750,340.241 187.933 C 340.128 188.117,340.290 188.267,340.600 188.267 C 341.232 188.267,341.723 187.323,341.381 186.768 C 341.258 186.571,341.426 186.512,341.754 186.638 C 342.082 186.763,342.259 187.103,342.147 187.393 C 342.036 187.682,342.138 188.038,342.373 188.183 C 342.640 188.348,342.800 187.990,342.800 187.224 C 342.800 186.551,342.935 186.021,343.100 186.047 C 343.925 186.178,344.400 185.941,344.400 185.400 C 344.400 185.070,344.220 184.800,344.000 184.800 C 343.780 184.800,343.600 184.609,343.600 184.376 C 343.600 184.143,343.770 184.058,343.978 184.187 C 344.412 184.455,344.271 180.192,343.810 179.100 C 343.637 178.691,343.688 178.400,343.933 178.400 C 344.740 178.400,344.230 176.215,343.392 176.082 C 342.737 175.979,342.704 176.029,343.200 176.372 C 343.530 176.601,343.609 176.791,343.375 176.794 C 343.142 176.797,342.551 176.260,342.063 175.600 C 341.245 174.494,340.006 173.839,340.625 174.840 C 340.820 175.155,340.661 175.154,340.064 174.834 C 338.649 174.077,282.528 174.289,282.235 175.052 M257.200 176.733 C 257.200 177.254,256.724 177.601,256.338 177.361 C 255.924 177.106,256.281 176.400,256.824 176.400 C 257.031 176.400,257.200 176.550,257.200 176.733 M281.900 177.400 C 281.900 177.950,281.732 178.400,281.526 178.400 C 281.321 178.400,281.264 178.220,281.400 178.000 C 281.536 177.780,281.462 177.600,281.236 177.600 C 281.010 177.600,280.929 177.330,281.055 177.000 C 281.414 176.064,281.900 176.294,281.900 177.400 M259.119 187.643 C 259.018 187.946,258.651 187.581,258.256 186.785 L 257.568 185.400 258.431 186.258 C 258.906 186.730,259.215 187.354,259.119 187.643 M99.552 193.050 L 100.804 193.301 100.702 231.350 L 100.600 269.400 93.800 269.400 L 87.000 269.400 86.898 231.330 C 86.801 195.318,86.834 193.250,87.498 193.076 C 88.591 192.791,98.152 192.770,99.552 193.050 M257.657 199.556 C 257.275 199.798,257.199 200.287,257.401 201.204 C 257.673 202.443,257.637 202.496,256.693 202.259 C 255.627 201.992,254.969 207.563,255.992 208.195 C 256.520 208.521,256.521 210.278,255.993 210.604 C 255.770 210.742,255.696 211.032,255.829 211.247 C 255.987 211.502,256.238 211.500,256.549 211.242 C 256.847 210.995,257.247 210.985,257.613 211.217 C 257.936 211.421,258.020 211.593,257.800 211.600 C 257.580 211.607,257.670 211.789,258.000 212.006 C 258.530 212.354,258.530 212.445,258.006 212.782 C 257.627 213.025,272.519 213.166,299.145 213.171 C 337.938 213.178,340.859 213.132,340.621 212.512 C 340.386 211.897,340.424 211.898,341.114 212.522 C 342.054 213.373,342.400 213.379,342.400 212.546 C 342.400 212.186,342.863 211.463,343.428 210.939 C 344.674 209.785,344.811 203.897,343.616 202.870 C 343.277 202.579,343.213 202.447,343.472 202.577 C 343.732 202.707,344.045 202.651,344.168 202.452 C 344.291 202.253,344.033 201.997,343.596 201.883 C 343.042 201.738,342.796 201.329,342.786 200.537 L 342.772 199.400 342.183 200.400 L 341.593 201.400 341.799 200.200 C 341.912 199.540,341.899 199.225,341.769 199.500 C 341.489 200.093,340.000 200.177,340.000 199.600 C 340.000 198.782,260.388 199.079,259.711 199.900 C 259.162 200.567,259.145 200.567,259.355 199.900 C 259.476 199.515,259.401 199.200,259.187 199.200 C 258.974 199.200,258.800 199.481,258.800 199.824 C 258.800 200.167,258.617 200.334,258.393 200.196 C 258.170 200.058,258.091 199.777,258.217 199.572 C 258.500 199.114,258.361 199.110,257.657 199.556 M188.311 246.200 C 188.372 258.080,188.323 268.205,188.203 268.700 C 187.987 269.589,187.905 269.600,181.192 269.600 L 174.400 269.600 174.400 246.991 L 174.400 224.381 181.300 224.491 L 188.200 224.600 188.311 246.200 M258.840 225.472 C 258.499 226.220,258.238 226.398,257.932 226.092 C 257.634 225.794,257.226 225.787,256.605 226.071 C 255.659 226.501,255.208 235.600,256.132 235.600 C 256.333 235.600,256.294 235.845,256.045 236.145 C 255.680 236.585,255.778 236.655,256.548 236.508 C 257.396 236.346,257.488 236.453,257.366 237.463 C 257.291 238.088,257.327 238.275,257.448 237.879 C 257.614 237.331,257.794 237.263,258.197 237.598 C 258.810 238.107,339.600 238.407,339.600 237.900 C 339.600 237.735,339.791 237.600,340.024 237.600 C 340.257 237.600,340.355 237.750,340.241 237.933 C 340.128 238.117,340.290 238.267,340.600 238.267 C 341.232 238.267,341.723 237.323,341.381 236.768 C 341.258 236.571,341.426 236.512,341.754 236.638 C 342.082 236.763,342.259 237.103,342.147 237.393 C 342.036 237.682,342.138 238.038,342.373 238.183 C 342.640 238.348,342.800 237.990,342.800 237.224 C 342.800 236.551,342.935 236.021,343.100 236.047 C 343.925 236.178,344.400 235.941,344.400 235.400 C 344.400 235.070,344.220 234.800,344.000 234.800 C 343.780 234.800,343.600 234.609,343.600 234.376 C 343.600 234.143,343.770 234.058,343.978 234.187 C 344.412 234.455,344.271 230.192,343.810 229.100 C 343.637 228.691,343.688 228.400,343.933 228.400 C 344.740 228.400,344.230 226.215,343.392 226.082 C 342.737 225.979,342.704 226.029,343.200 226.372 C 343.530 226.601,343.609 226.791,343.375 226.794 C 343.142 226.797,342.551 226.260,342.063 225.600 C 341.245 224.494,340.006 223.839,340.625 224.840 C 340.822 225.160,340.672 225.160,340.076 224.841 C 339.496 224.530,327.560 224.404,299.287 224.411 L 259.319 224.421 258.840 225.472 M257.200 226.733 C 257.200 227.254,256.724 227.601,256.338 227.361 C 255.924 227.106,256.281 226.400,256.824 226.400 C 257.031 226.400,257.200 226.550,257.200 226.733 M259.119 237.643 C 259.018 237.946,258.651 237.581,258.256 236.785 L 257.568 235.400 258.431 236.258 C 258.906 236.730,259.215 237.354,259.119 237.643 M257.657 249.556 C 257.275 249.798,257.199 250.287,257.401 251.204 C 257.673 252.443,257.637 252.496,256.693 252.259 C 255.627 251.992,254.969 257.563,255.992 258.195 C 256.520 258.521,256.521 260.278,255.993 260.604 C 255.770 260.742,255.696 261.032,255.829 261.247 C 255.987 261.502,256.238 261.500,256.549 261.242 C 256.847 260.995,257.247 260.985,257.613 261.217 C 257.936 261.421,258.020 261.593,257.800 261.600 C 257.580 261.607,257.670 261.789,258.000 262.006 C 258.511 262.342,258.517 262.454,258.037 262.763 C 257.696 262.982,266.212 263.138,279.617 263.157 C 296.792 263.182,301.830 263.078,302.074 262.695 C 302.322 262.303,302.389 262.305,302.394 262.700 C 302.397 262.975,302.861 263.200,303.424 263.200 C 304.015 263.200,304.341 263.028,304.196 262.793 C 304.058 262.570,303.779 262.489,303.577 262.614 C 303.372 262.741,303.328 262.531,303.478 262.141 C 303.637 261.727,303.811 261.632,303.903 261.910 C 304.016 262.249,304.309 262.216,304.962 261.788 C 305.458 261.463,305.959 261.292,306.075 261.408 C 306.191 261.524,306.537 261.316,306.843 260.945 C 307.258 260.442,307.278 260.229,306.920 260.108 C 306.578 259.993,306.550 259.659,306.820 258.947 C 307.318 257.638,307.310 254.000,306.810 254.000 C 306.572 254.000,306.551 253.648,306.756 253.100 C 307.140 252.072,306.835 251.047,306.100 250.900 C 305.825 250.845,305.621 250.935,305.647 251.100 C 305.770 251.877,305.552 252.144,305.222 251.622 C 304.998 251.268,305.007 250.761,305.245 250.316 C 305.459 249.916,305.492 249.620,305.317 249.658 C 305.143 249.696,304.683 249.588,304.295 249.419 C 303.880 249.237,303.345 249.314,302.995 249.604 C 302.582 249.947,302.400 249.961,302.400 249.649 C 302.400 248.790,260.423 249.037,259.711 249.900 C 259.162 250.567,259.145 250.567,259.355 249.900 C 259.476 249.515,259.401 249.200,259.187 249.200 C 258.974 249.200,258.800 249.481,258.800 249.824 C 258.800 250.167,258.617 250.334,258.393 250.196 C 258.170 250.058,258.091 249.777,258.217 249.572 C 258.500 249.114,258.361 249.110,257.657 249.556 M313.372 250.299 C 313.024 250.830,312.834 251.511,312.949 251.812 C 313.070 252.125,312.826 252.465,312.380 252.606 C 311.951 252.743,311.600 253.032,311.600 253.251 C 311.600 253.469,311.808 253.519,312.062 253.362 C 312.368 253.173,312.414 253.254,312.200 253.601 C 311.742 254.341,311.668 260.000,312.116 260.000 C 312.319 260.000,312.384 259.736,312.260 259.413 C 312.136 259.090,312.192 258.729,312.383 258.610 C 312.575 258.492,312.652 259.086,312.555 259.932 C 312.406 261.229,312.521 261.537,313.289 261.907 C 313.790 262.148,313.975 262.358,313.700 262.373 C 313.425 262.388,313.200 262.574,313.200 262.787 C 313.200 263.001,313.470 263.071,313.800 262.945 C 314.130 262.818,314.400 262.494,314.400 262.224 C 314.400 261.954,314.667 261.733,314.994 261.733 C 315.475 261.733,315.494 261.849,315.094 262.343 C 314.701 262.829,314.702 262.892,315.100 262.653 C 315.375 262.488,315.600 262.532,315.600 262.752 C 315.600 263.308,326.826 263.196,327.577 262.633 C 327.991 262.322,328.080 262.322,327.894 262.633 C 327.752 262.872,327.880 263.067,328.179 263.067 C 328.479 263.067,328.629 262.819,328.513 262.517 C 328.397 262.215,328.459 262.010,328.651 262.063 C 329.492 262.293,330.741 261.489,330.972 260.569 C 331.110 260.018,331.378 259.663,331.567 259.779 C 332.048 260.077,331.889 258.665,331.400 258.306 C 331.145 258.119,331.166 258.010,331.458 258.006 C 331.773 258.002,331.819 257.570,331.605 256.620 C 331.433 255.861,331.407 255.124,331.547 254.982 C 332.392 254.123,331.405 250.379,330.484 250.948 C 330.307 251.058,329.900 250.962,329.581 250.736 C 329.129 250.416,329.178 250.383,329.800 250.586 C 330.385 250.777,330.482 250.728,330.160 250.403 C 329.917 250.159,329.332 249.930,328.860 249.895 C 328.387 249.859,328.000 249.697,328.000 249.535 C 328.000 248.612,316.345 249.258,315.501 250.227 C 314.416 251.475,312.935 251.614,313.695 250.396 C 313.971 249.954,314.258 249.774,314.332 249.996 C 314.530 250.589,315.200 250.489,315.200 249.867 C 315.200 248.991,314.051 249.262,313.372 250.299 M386.900 309.065 C 386.625 309.176,386.405 309.567,386.412 309.933 C 386.423 310.530,386.468 310.525,386.837 309.892 C 387.064 309.502,387.446 309.305,387.686 309.453 C 387.949 309.615,388.009 309.539,387.838 309.262 C 387.681 309.008,387.518 308.814,387.476 308.832 C 387.434 308.849,387.175 308.954,386.900 309.065 " stroke="none" fill="#044cac" fill-rule="evenodd"></path><path id="path3" d="M384.284 87.936 C 385.079 88.753,386.591 89.432,386.197 88.795 C 386.063 88.578,385.713 88.400,385.419 88.400 C 385.126 88.400,384.782 88.130,384.655 87.800 C 384.529 87.470,384.232 87.200,383.997 87.200 C 383.761 87.200,383.891 87.531,384.284 87.936 M33.000 93.571 C 32.340 93.731,31.440 94.054,31.000 94.288 C 30.560 94.522,29.750 94.920,29.200 95.173 C 26.388 96.463,23.670 98.669,22.169 100.879 C 21.526 101.826,20.775 102.838,20.500 103.129 C 20.225 103.419,20.000 103.834,20.000 104.051 C 20.000 104.267,19.635 105.245,19.189 106.225 C 18.478 107.786,18.391 108.684,18.489 113.503 L 18.600 119.000 200.000 119.000 L 381.400 119.000 381.511 113.503 C 381.609 108.684,381.522 107.786,380.811 106.225 C 380.365 105.245,380.000 104.267,380.000 104.051 C 380.000 103.834,379.775 103.419,379.500 103.129 C 379.225 102.838,378.483 101.839,377.851 100.908 C 376.694 99.204,373.599 96.400,372.875 96.400 C 372.661 96.400,372.388 96.147,372.270 95.838 C 372.151 95.528,371.460 95.145,370.733 94.985 C 370.006 94.826,368.967 94.404,368.423 94.048 C 367.369 93.357,35.822 92.886,33.000 93.571 M367.972 94.875 C 373.925 96.856,378.013 100.922,380.028 106.869 C 381.091 110.002,381.590 117.248,380.808 118.190 C 380.040 119.116,19.965 119.122,19.197 118.196 C 18.405 117.242,18.895 109.970,19.960 106.869 C 21.999 100.934,25.525 97.394,31.800 94.981 L 34.200 94.059 199.772 94.029 L 365.344 94.000 367.972 94.875 M33.866 100.957 C 29.285 104.704,30.893 111.765,36.520 112.609 C 40.847 113.258,52.140 112.663,53.334 111.724 C 57.343 108.569,57.305 103.089,53.257 100.698 C 51.195 99.479,35.414 99.690,33.866 100.957 M65.223 100.839 C 61.358 104.057,61.405 108.894,65.328 111.693 C 67.386 113.161,82.744 113.092,84.726 111.606 C 88.645 108.666,88.633 103.901,84.699 100.806 C 83.120 99.564,66.722 99.592,65.223 100.839 M96.729 100.711 C 92.646 103.404,92.617 108.538,96.666 111.724 C 98.415 113.100,113.934 113.075,115.872 111.693 C 119.742 108.932,119.825 103.691,116.042 100.894 C 114.366 99.655,98.557 99.506,96.729 100.711 M52.629 101.438 C 53.603 102.009,54.400 102.707,54.400 102.989 C 54.400 103.271,54.670 103.726,55.000 104.000 C 56.560 105.295,55.140 109.749,52.721 111.146 C 50.472 112.444,37.132 112.446,34.879 111.147 C 31.658 109.291,31.062 102.969,34.000 101.822 C 34.330 101.693,35.050 101.323,35.600 101.000 C 37.586 99.832,50.454 100.164,52.629 101.438 M83.739 101.371 C 86.632 103.149,87.495 105.871,86.100 108.815 C 84.762 111.637,83.499 112.000,75.000 112.000 C 66.501 112.000,65.238 111.637,63.900 108.815 C 62.505 105.871,63.368 103.149,66.261 101.371 C 68.625 99.918,81.375 99.918,83.739 101.371 M114.400 101.000 C 114.950 101.323,115.670 101.693,116.000 101.822 C 118.938 102.969,118.342 109.291,115.121 111.147 C 112.868 112.446,99.528 112.444,97.279 111.146 C 94.860 109.749,93.440 105.295,95.000 104.000 C 95.330 103.726,95.600 103.272,95.600 102.992 C 95.600 100.706,111.105 99.063,114.400 101.000 M131.067 168.667 C 130.545 169.188,130.756 268.196,131.280 268.720 C 132.190 269.630,143.482 269.369,143.986 268.426 C 144.562 267.349,144.562 170.251,143.986 169.174 C 143.566 168.389,131.806 167.927,131.067 168.667 M143.502 218.575 C 143.582 257.972,143.500 268.216,143.102 268.469 C 142.266 269.000,132.229 268.869,131.680 268.320 C 130.974 267.614,130.984 169.976,131.690 169.270 C 132.042 168.918,133.766 168.810,137.790 168.890 L 143.400 169.000 143.502 218.575 M87.698 193.531 C 87.300 193.784,87.217 201.629,87.298 231.425 L 87.400 269.000 93.800 269.000 L 100.200 269.000 100.302 231.643 C 100.377 204.374,100.282 194.140,99.953 193.743 C 99.447 193.134,88.619 192.946,87.698 193.531 M99.902 230.956 C 99.977 257.782,99.882 267.860,99.553 268.256 C 98.950 268.983,88.800 269.040,88.080 268.320 C 87.550 267.790,87.350 194.784,87.877 194.256 C 88.029 194.104,90.774 194.029,93.977 194.090 L 99.800 194.200 99.902 230.956 M175.029 225.029 C 174.262 225.796,174.058 267.013,174.814 268.426 C 175.318 269.369,186.610 269.630,187.520 268.720 C 188.466 267.774,188.182 225.326,187.226 224.814 C 185.900 224.104,175.775 224.282,175.029 225.029 M187.103 246.900 L 187.000 268.600 181.200 268.600 L 175.400 268.600 175.296 247.400 C 175.239 235.740,175.278 225.975,175.383 225.700 C 175.524 225.332,177.107 225.200,181.391 225.200 L 187.207 225.200 187.103 246.900 M13.803 311.205 C 13.937 311.422,14.287 311.600,14.581 311.600 C 14.874 311.600,15.218 311.870,15.345 312.200 C 15.471 312.530,15.768 312.800,16.003 312.800 C 16.239 312.800,16.109 312.469,15.716 312.064 C 14.921 311.247,13.409 310.568,13.803 311.205 M385.386 311.181 C 384.938 311.362,384.312 311.846,383.993 312.255 C 383.435 312.972,383.445 312.974,384.238 312.300 C 384.692 311.915,385.263 311.600,385.508 311.600 C 385.753 311.600,386.064 311.420,386.200 311.200 C 386.484 310.740,386.474 310.740,385.386 311.181 " stroke="none" fill="#2474cc" fill-rule="evenodd"></path><path id="path4" d="M27.416 81.183 C 26.893 81.760,26.915 81.838,27.613 81.891 C 28.045 81.924,28.569 81.631,28.778 81.242 C 29.276 80.311,28.245 80.266,27.416 81.183 M29.274 81.397 C 28.859 82.307,28.883 82.355,29.543 81.943 C 29.941 81.694,30.267 81.245,30.267 80.945 C 30.267 80.083,29.770 80.309,29.274 81.397 M371.339 80.661 C 370.295 81.068,372.661 82.682,374.012 82.484 C 374.822 82.365,375.220 82.444,375.066 82.693 C 374.930 82.913,375.175 83.415,375.609 83.809 C 376.044 84.202,376.400 84.333,376.400 84.099 C 376.400 83.866,376.715 83.722,377.100 83.780 C 377.485 83.838,377.562 83.805,377.271 83.708 C 376.979 83.610,376.840 83.272,376.962 82.956 C 377.138 82.496,377.024 82.466,376.391 82.805 C 375.920 83.057,375.600 83.074,375.600 82.847 C 375.600 82.638,375.825 82.376,376.100 82.265 C 376.375 82.154,375.819 82.049,374.864 82.032 C 373.688 82.010,372.914 81.755,372.464 81.240 C 372.099 80.822,371.592 80.561,371.339 80.661 M23.900 82.265 C 24.175 82.376,24.400 82.638,24.400 82.847 C 24.400 83.073,24.075 83.054,23.603 82.802 C 22.861 82.405,22.838 82.445,23.266 83.384 C 23.742 84.430,24.800 84.151,24.800 82.979 C 24.800 82.691,25.205 82.378,25.700 82.282 C 26.195 82.187,25.880 82.099,25.000 82.086 C 24.120 82.073,23.625 82.154,23.900 82.265 M21.452 84.085 C 21.727 84.529,22.705 84.477,22.998 84.003 C 23.140 83.774,22.823 83.640,22.251 83.688 C 21.705 83.733,21.345 83.912,21.452 84.085 M19.745 84.600 C 19.618 84.930,19.174 85.200,18.757 85.200 C 18.206 85.200,18.000 85.487,18.000 86.254 L 18.000 87.308 18.815 86.272 C 19.292 85.665,19.872 85.329,20.215 85.461 C 20.537 85.585,20.800 85.476,20.800 85.219 C 20.800 84.953,21.014 84.881,21.300 85.053 C 21.640 85.257,21.624 85.137,21.251 84.677 C 20.573 83.840,20.046 83.814,19.745 84.600 M378.975 84.440 C 378.825 84.683,379.091 85.268,379.565 85.740 C 380.672 86.845,381.489 85.947,380.465 84.751 C 379.729 83.891,379.362 83.815,378.975 84.440 M15.299 88.165 C 14.863 88.719,14.363 89.044,14.189 88.886 C 14.014 88.729,13.992 88.810,14.138 89.066 C 14.285 89.322,14.188 89.604,13.923 89.692 C 13.639 89.787,13.756 89.974,14.208 90.148 C 14.630 90.310,14.857 90.324,14.712 90.179 C 14.331 89.797,15.863 88.268,16.334 88.559 C 16.552 88.694,16.691 88.538,16.643 88.213 C 16.488 87.154,16.105 87.140,15.299 88.165 M385.424 89.827 C 384.748 90.326,384.735 90.400,385.324 90.400 C 385.696 90.400,386.000 90.561,386.000 90.757 C 386.000 90.954,386.295 91.228,386.657 91.366 C 387.151 91.556,387.211 91.493,386.900 91.109 C 386.672 90.829,386.422 90.297,386.343 89.927 C 386.217 89.332,386.110 89.320,385.424 89.827 M12.319 91.169 C 11.766 91.815,11.752 91.973,12.231 92.156 C 12.544 92.277,12.800 92.201,12.800 91.987 C 12.800 91.774,13.205 91.579,13.700 91.554 C 14.463 91.514,14.484 91.478,13.842 91.313 C 13.233 91.157,13.194 91.050,13.642 90.766 C 14.106 90.472,14.097 90.411,13.589 90.406 C 13.253 90.403,12.682 90.746,12.319 91.169 M388.000 93.003 C 388.000 93.331,388.270 93.600,388.600 93.600 C 388.930 93.600,389.214 93.735,389.231 93.900 C 389.402 95.578,390.148 96.824,390.949 96.768 C 391.232 96.749,391.214 96.662,390.900 96.535 C 390.625 96.424,390.400 96.068,390.400 95.743 C 390.400 95.399,390.592 95.272,390.862 95.438 C 391.150 95.616,391.215 95.548,391.034 95.255 C 390.875 94.998,390.577 94.891,390.372 95.017 C 390.168 95.144,390.000 94.999,390.000 94.696 C 390.000 94.392,389.550 93.753,389.000 93.275 C 388.235 92.609,388.000 92.545,388.000 93.003 M118.100 93.100 C 163.145 93.156,236.855 93.156,281.900 93.100 C 326.945 93.044,290.090 92.998,200.000 92.998 C 109.910 92.998,73.055 93.044,118.100 93.100 M29.093 94.000 C 28.716 94.440,28.074 94.800,27.666 94.800 C 27.258 94.800,26.598 95.160,26.200 95.600 C 25.802 96.040,25.234 96.400,24.938 96.400 C 24.642 96.400,24.400 96.658,24.400 96.973 C 24.400 97.288,24.040 97.660,23.600 97.800 C 23.160 97.940,22.800 98.300,22.800 98.600 C 22.800 98.900,22.440 99.260,22.000 99.400 C 21.560 99.540,21.200 99.912,21.200 100.227 C 21.200 100.542,20.840 101.160,20.400 101.600 C 19.960 102.040,19.600 102.751,19.600 103.180 C 19.600 103.609,19.285 104.136,18.900 104.351 C 18.273 104.702,18.200 105.507,18.200 112.071 L 18.200 119.400 200.000 119.400 L 381.800 119.400 381.918 113.200 C 382.050 106.289,381.849 104.400,380.982 104.400 C 380.628 104.400,380.400 104.008,380.400 103.400 C 380.400 102.850,380.040 102.040,379.600 101.600 C 379.160 101.160,378.800 100.542,378.800 100.227 C 378.800 99.912,378.440 99.540,378.000 99.400 C 377.560 99.260,377.200 98.900,377.200 98.600 C 377.200 98.300,376.840 97.940,376.400 97.800 C 375.960 97.660,375.600 97.288,375.600 96.973 C 375.600 96.658,375.332 96.400,375.003 96.400 C 374.675 96.400,374.182 96.040,373.907 95.600 C 373.632 95.160,373.025 94.800,372.558 94.800 C 372.090 94.800,371.250 94.440,370.691 94.000 C 369.968 93.431,369.114 93.212,367.737 93.241 C 365.940 93.279,365.894 93.304,367.098 93.590 C 367.811 93.759,368.621 94.080,368.898 94.303 C 369.174 94.525,369.997 94.835,370.727 94.992 C 371.457 95.148,372.151 95.528,372.270 95.838 C 372.388 96.147,372.661 96.400,372.875 96.400 C 373.599 96.400,376.694 99.204,377.851 100.908 C 378.483 101.839,379.225 102.838,379.500 103.129 C 379.775 103.419,380.000 103.834,380.000 104.051 C 380.000 104.267,380.365 105.245,380.811 106.225 C 381.522 107.786,381.609 108.684,381.511 113.503 L 381.400 119.000 200.000 119.000 L 18.600 119.000 18.489 113.503 C 18.391 108.684,18.478 107.786,19.189 106.225 C 19.635 105.245,20.000 104.267,20.000 104.051 C 20.000 103.834,20.225 103.419,20.500 103.129 C 20.775 102.838,21.526 101.826,22.169 100.879 C 23.670 98.669,26.388 96.463,29.200 95.173 C 29.750 94.920,30.560 94.522,31.000 94.288 C 31.440 94.054,32.340 93.732,33.000 93.572 C 33.978 93.336,33.792 93.274,31.989 93.241 C 30.240 93.209,29.635 93.367,29.093 94.000 M10.000 94.600 C 10.000 94.930,9.865 95.179,9.700 95.153 C 8.908 95.028,8.660 95.252,9.200 95.606 C 9.733 95.956,9.733 96.044,9.200 96.394 C 8.713 96.714,8.769 96.789,9.500 96.794 C 9.995 96.797,10.412 96.665,10.428 96.500 C 10.443 96.335,10.520 95.705,10.600 95.100 C 10.680 94.495,10.578 94.000,10.373 94.000 C 10.168 94.000,10.000 94.270,10.000 94.600 M7.334 99.027 C 7.202 99.372,7.324 99.867,7.606 100.127 C 8.002 100.493,8.054 100.487,7.835 100.100 C 7.646 99.766,7.859 99.590,8.476 99.568 C 8.984 99.551,9.174 99.446,8.898 99.334 C 8.621 99.223,8.497 98.967,8.621 98.766 C 8.745 98.565,8.561 98.400,8.211 98.400 C 7.861 98.400,7.467 98.682,7.334 99.027 M35.600 101.000 C 35.050 101.323,34.330 101.693,34.000 101.822 C 31.062 102.969,31.658 109.291,34.879 111.147 C 37.132 112.446,50.472 112.444,52.721 111.146 C 55.140 109.749,56.560 105.295,55.000 104.000 C 54.670 103.726,54.400 103.271,54.400 102.989 C 54.400 100.692,38.911 99.053,35.600 101.000 M66.261 101.371 C 63.368 103.149,62.505 105.871,63.900 108.815 C 65.238 111.637,66.501 112.000,75.000 112.000 C 83.499 112.000,84.762 111.637,86.100 108.815 C 87.495 105.871,86.632 103.149,83.739 101.371 C 81.375 99.918,68.625 99.918,66.261 101.371 M97.300 101.456 C 96.365 102.020,95.600 102.711,95.600 102.992 C 95.600 103.272,95.330 103.726,95.000 104.000 C 93.440 105.295,94.860 109.749,97.279 111.146 C 99.528 112.444,112.868 112.446,115.121 111.147 C 118.342 109.291,118.938 102.969,116.000 101.822 C 115.670 101.693,114.950 101.323,114.400 101.000 C 112.432 99.843,99.398 100.191,97.300 101.456 M392.315 101.333 C 392.211 101.877,392.330 102.267,392.600 102.267 C 392.870 102.267,392.989 101.877,392.885 101.333 C 392.787 100.820,392.659 100.400,392.600 100.400 C 392.541 100.400,392.413 100.820,392.315 101.333 M50.691 101.600 C 51.250 102.040,52.022 102.400,52.405 102.400 C 53.647 102.400,54.118 103.505,54.118 106.425 C 54.118 109.435,53.564 110.360,51.749 110.387 C 51.281 110.394,50.674 110.670,50.400 111.000 C 49.700 111.843,38.607 111.871,36.932 111.034 C 36.310 110.722,35.324 110.285,34.741 110.061 C 32.465 109.187,32.838 102.894,35.203 102.295 C 35.971 102.101,36.864 101.685,37.186 101.371 C 38.209 100.373,49.372 100.563,50.691 101.600 M81.579 101.374 C 81.841 101.690,82.570 102.062,83.200 102.200 C 86.492 102.923,86.285 110.400,82.973 110.400 C 82.492 110.400,81.874 110.670,81.600 111.000 C 81.197 111.485,79.936 111.600,75.000 111.600 C 70.064 111.600,68.803 111.485,68.400 111.000 C 68.126 110.670,67.508 110.400,67.027 110.400 C 63.715 110.400,63.508 102.923,66.800 102.200 C 67.430 102.062,68.159 101.690,68.421 101.374 C 68.797 100.921,70.185 100.800,75.000 100.800 C 79.815 100.800,81.203 100.921,81.579 101.374 M112.769 101.366 C 113.116 101.677,114.029 102.093,114.797 102.291 C 117.141 102.892,117.503 109.203,115.244 110.068 C 114.670 110.288,113.690 110.722,113.068 111.034 C 111.393 111.871,100.300 111.843,99.600 111.000 C 99.326 110.670,98.719 110.394,98.251 110.387 C 96.452 110.360,95.887 109.431,95.860 106.455 C 95.833 103.539,96.323 102.400,97.605 102.400 C 97.993 102.400,98.736 102.046,99.256 101.613 C 100.484 100.590,111.674 100.385,112.769 101.366 M6.423 102.261 C 5.540 103.384,5.606 104.025,6.527 103.260 C 6.828 103.011,7.192 102.895,7.337 103.003 C 7.482 103.112,7.516 103.086,7.414 102.947 C 7.312 102.808,7.408 102.358,7.628 101.947 C 8.238 100.809,7.393 101.029,6.423 102.261 M120.000 156.487 C 120.000 156.879,119.820 157.222,119.600 157.250 C 119.380 157.278,118.990 157.322,118.733 157.350 C 118.083 157.420,117.864 158.269,118.410 158.606 C 118.868 158.889,120.680 157.260,120.505 156.722 C 120.452 156.561,120.707 156.543,121.070 156.682 C 121.490 156.843,121.633 156.777,121.463 156.502 C 121.316 156.264,121.421 155.976,121.698 155.864 C 121.974 155.751,121.705 155.685,121.100 155.717 C 120.333 155.757,120.000 155.990,120.000 156.487 M154.182 156.370 C 154.305 156.569,154.242 156.792,154.042 156.866 C 153.842 156.940,153.965 157.264,154.316 157.587 C 154.879 158.106,154.923 158.098,154.699 157.513 C 154.559 157.149,154.651 156.783,154.902 156.699 C 155.159 156.614,155.053 156.429,154.659 156.278 C 154.274 156.130,154.059 156.172,154.182 156.370 M156.014 158.300 C 156.049 159.029,157.172 160.586,157.186 159.924 C 157.194 159.552,157.017 159.134,156.793 158.996 C 156.570 158.858,156.491 158.577,156.617 158.372 C 156.744 158.168,156.657 158.000,156.424 158.000 C 156.191 158.000,156.006 158.135,156.014 158.300 M130.585 168.500 C 130.480 168.775,130.441 191.590,130.497 219.200 L 130.600 269.400 137.500 269.509 L 144.400 269.619 144.388 268.709 C 144.377 267.899,144.331 267.876,143.968 268.500 C 143.427 269.428,132.005 269.569,131.247 268.657 C 130.917 268.260,130.824 254.796,130.898 218.357 L 131.000 168.600 137.197 168.489 C 142.674 168.391,143.453 168.458,143.897 169.066 C 144.357 169.694,144.400 169.678,144.400 168.876 C 144.400 167.822,130.982 167.456,130.585 168.500 M257.200 175.051 C 257.200 176.058,258.325 176.488,258.772 175.652 C 259.366 174.543,259.332 174.477,258.200 174.542 C 257.650 174.574,257.200 174.803,257.200 175.051 M272.146 174.887 C 272.040 175.059,272.253 175.200,272.619 175.200 C 273.057 175.200,273.204 175.413,273.047 175.821 C 272.903 176.197,272.975 176.339,273.230 176.182 C 273.461 176.039,274.044 176.253,274.525 176.658 C 275.305 177.314,275.298 177.278,274.458 176.327 C 273.940 175.740,273.629 175.077,273.767 174.854 C 273.909 174.624,273.655 174.476,273.178 174.512 C 272.717 174.546,272.252 174.715,272.146 174.887 M342.063 175.600 C 342.551 176.260,343.142 176.786,343.375 176.768 C 343.609 176.751,343.575 176.646,343.300 176.535 C 343.025 176.424,342.800 175.898,342.800 175.367 C 342.800 174.662,342.580 174.400,341.988 174.400 C 341.189 174.400,341.190 174.419,342.063 175.600 M256.178 176.728 C 256.281 177.433,256.889 177.532,257.107 176.879 C 257.177 176.670,256.974 176.399,256.656 176.277 C 256.277 176.131,256.113 176.286,256.178 176.728 M280.406 176.713 C 280.403 176.994,280.669 177.328,280.998 177.454 C 281.326 177.581,281.496 177.845,281.374 178.042 C 281.252 178.239,281.321 178.400,281.526 178.400 C 281.732 178.400,281.900 177.950,281.900 177.400 C 281.900 176.850,281.743 176.400,281.550 176.400 C 281.358 176.400,281.197 176.625,281.194 176.900 C 281.190 177.233,281.058 177.200,280.800 176.800 C 280.529 176.380,280.410 176.354,280.406 176.713 M343.628 178.700 C 343.738 179.873,344.346 180.526,344.372 179.500 C 344.387 178.895,344.220 178.400,344.000 178.400 C 343.780 178.400,343.613 178.535,343.628 178.700 M280.493 181.200 C 280.493 181.970,280.575 182.285,280.676 181.900 C 280.776 181.515,280.776 180.885,280.676 180.500 C 280.575 180.115,280.493 180.430,280.493 181.200 M77.087 181.100 C 77.325 181.734,77.280 181.744,76.609 181.200 C 75.907 180.631,75.897 180.652,76.402 181.599 C 76.720 182.196,77.001 182.396,77.101 182.096 C 77.193 181.821,77.431 181.695,77.630 181.818 C 77.828 181.941,77.890 181.778,77.766 181.456 C 77.630 181.100,77.828 180.796,78.271 180.681 C 78.760 180.555,78.643 180.478,77.913 180.446 C 77.035 180.409,76.876 180.535,77.087 181.100 M108.832 181.100 C 108.849 181.492,108.950 181.587,109.060 181.316 C 109.184 181.010,109.725 180.912,110.528 181.049 C 111.500 181.216,111.659 181.167,111.200 180.840 C 110.223 180.144,108.796 180.300,108.832 181.100 M110.133 182.228 C 110.133 182.523,110.266 182.683,110.428 182.583 C 110.590 182.483,111.097 182.986,111.554 183.700 C 112.012 184.415,112.390 184.863,112.393 184.695 C 112.397 184.527,112.175 184.026,111.900 183.582 C 111.488 182.917,111.505 182.709,112.000 182.394 C 112.533 182.055,112.533 182.008,112.000 181.976 C 111.670 181.955,111.115 181.883,110.767 181.815 C 110.418 181.746,110.133 181.932,110.133 182.228 M75.600 182.649 C 75.600 183.133,75.469 183.189,75.085 182.871 C 74.690 182.542,74.552 182.693,74.489 183.522 C 74.433 184.273,74.514 184.433,74.759 184.049 C 74.952 183.746,75.311 183.621,75.555 183.772 C 75.837 183.947,76.000 183.673,76.000 183.024 C 76.000 182.461,75.910 182.000,75.800 182.000 C 75.690 182.000,75.600 182.292,75.600 182.649 M280.809 184.989 C 280.417 185.461,280.455 185.712,280.997 186.254 C 281.550 186.807,281.734 186.831,282.007 186.388 C 282.221 186.042,282.099 185.646,281.671 185.293 C 281.302 184.989,281.225 184.855,281.500 184.994 C 281.775 185.133,282.000 185.057,282.000 184.824 C 282.000 184.216,281.380 184.302,280.809 184.989 M257.845 186.000 C 258.714 187.210,258.901 188.181,258.144 187.557 C 257.563 187.077,257.497 187.082,257.668 187.600 C 257.777 187.930,258.233 188.219,258.681 188.243 C 259.712 188.297,259.491 187.167,258.267 186.126 C 257.756 185.691,257.587 185.641,257.845 186.000 M273.632 186.451 C 273.614 186.809,273.326 187.330,272.991 187.608 C 272.482 188.030,272.423 188.006,272.634 187.457 C 272.973 186.573,272.525 186.619,272.044 187.517 C 271.740 188.087,271.819 188.246,272.430 188.292 C 273.258 188.355,274.176 187.060,273.858 186.278 C 273.744 186.000,273.650 186.072,273.632 186.451 M282.480 186.880 C 281.820 187.540,281.876 188.133,282.574 187.865 C 282.890 187.744,283.236 187.860,283.343 188.122 C 283.481 188.463,283.546 188.449,283.568 188.076 C 283.586 187.786,283.805 187.680,284.062 187.838 C 284.350 188.016,284.415 187.948,284.234 187.655 C 284.075 187.398,283.747 187.309,283.504 187.459 C 283.221 187.634,283.155 187.494,283.319 187.066 C 283.617 186.289,283.170 186.190,282.480 186.880 M341.342 187.451 C 341.273 188.591,341.824 188.716,342.109 187.626 C 342.220 187.200,342.106 186.773,341.856 186.677 C 341.602 186.579,341.374 186.922,341.342 187.451 M265.000 188.023 L 261.000 188.245 265.500 188.323 C 267.975 188.365,270.000 188.329,270.000 188.243 C 270.000 187.869,268.752 187.814,265.000 188.023 M299.529 188.300 C 306.860 188.361,318.740 188.361,325.929 188.300 C 333.118 188.239,327.120 188.189,312.600 188.189 C 298.080 188.189,292.198 188.239,299.529 188.300 M87.498 193.076 C 86.834 193.250,86.801 195.318,86.898 231.330 L 87.000 269.400 93.800 269.400 L 100.600 269.400 100.702 231.300 C 100.796 196.332,100.751 193.200,100.153 193.200 C 99.650 193.200,99.604 193.323,99.953 193.743 C 100.282 194.140,100.377 204.374,100.302 231.643 L 100.200 269.000 93.800 269.000 L 87.400 269.000 87.298 231.308 L 87.196 193.616 88.098 193.406 C 88.594 193.290,91.340 193.146,94.200 193.085 L 99.400 192.974 93.800 192.933 C 90.720 192.911,87.884 192.975,87.498 193.076 M340.000 199.686 C 340.000 199.859,340.360 200.000,340.800 200.000 C 341.240 200.000,341.600 199.859,341.600 199.686 C 341.600 199.513,341.240 199.371,340.800 199.371 C 340.360 199.371,340.000 199.513,340.000 199.686 M255.750 201.280 C 255.474 201.727,256.287 202.384,257.129 202.394 C 257.420 202.397,257.600 202.102,257.529 201.738 C 257.382 200.984,256.132 200.663,255.750 201.280 M255.742 209.796 C 255.746 210.763,255.882 211.473,256.043 211.374 C 256.466 211.112,257.649 212.396,257.383 212.828 C 257.259 213.027,257.438 213.084,257.779 212.953 C 258.481 212.683,258.622 212.000,257.976 212.000 C 257.743 212.000,257.664 211.820,257.800 211.600 C 257.936 211.380,257.857 211.178,257.624 211.150 C 257.391 211.123,256.975 211.077,256.700 211.049 C 256.386 211.018,256.247 210.529,256.326 209.739 C 256.395 209.046,256.291 208.380,256.094 208.258 C 255.896 208.136,255.738 208.828,255.742 209.796 M167.687 211.820 C 167.955 212.089,194.474 212.059,194.743 211.790 C 194.848 211.686,188.753 211.600,181.200 211.600 C 173.647 211.600,167.566 211.699,167.687 211.820 M199.200 213.613 C 199.200 213.867,199.560 214.531,200.000 215.091 L 200.800 216.108 200.800 215.011 C 200.800 214.184,200.647 213.973,200.179 214.153 C 199.838 214.284,199.661 214.225,199.786 214.023 C 199.911 213.821,199.830 213.542,199.607 213.404 C 199.383 213.266,199.200 213.360,199.200 213.613 M161.600 242.800 C 161.600 256.733,161.687 268.046,161.794 267.939 C 162.060 267.674,162.077 217.944,161.812 217.678 C 161.695 217.562,161.600 228.867,161.600 242.800 M187.300 224.805 C 188.190 225.358,188.403 267.837,187.520 268.720 C 186.669 269.571,175.342 269.375,174.832 268.500 C 174.468 267.875,174.423 267.896,174.412 268.700 C 174.400 269.598,174.411 269.600,181.192 269.600 C 187.905 269.600,187.987 269.589,188.203 268.700 C 188.934 265.687,188.188 224.609,187.400 224.491 C 186.669 224.381,186.660 224.408,187.300 224.805 M257.200 225.051 C 257.200 226.058,258.325 226.488,258.772 225.652 C 259.366 224.543,259.332 224.477,258.200 224.542 C 257.650 224.574,257.200 224.803,257.200 225.051 M342.063 225.600 C 342.551 226.260,343.142 226.786,343.375 226.768 C 343.609 226.751,343.575 226.646,343.300 226.535 C 343.025 226.424,342.800 225.898,342.800 225.367 C 342.800 224.662,342.580 224.400,341.988 224.400 C 341.189 224.400,341.190 224.419,342.063 225.600 M256.178 226.728 C 256.281 227.433,256.889 227.532,257.107 226.879 C 257.177 226.670,256.974 226.399,256.656 226.277 C 256.277 226.131,256.113 226.286,256.178 226.728 M343.628 228.700 C 343.738 229.873,344.346 230.526,344.372 229.500 C 344.387 228.895,344.220 228.400,344.000 228.400 C 343.780 228.400,343.613 228.535,343.628 228.700 M257.845 236.000 C 258.714 237.210,258.901 238.181,258.144 237.557 C 257.563 237.077,257.497 237.082,257.668 237.600 C 257.777 237.930,258.233 238.219,258.681 238.243 C 259.712 238.297,259.491 237.167,258.267 236.126 C 257.756 235.691,257.587 235.641,257.845 236.000 M341.342 237.451 C 341.273 238.591,341.824 238.716,342.109 237.626 C 342.220 237.200,342.106 236.773,341.856 236.677 C 341.602 236.579,341.374 236.922,341.342 237.451 M280.500 238.300 C 291.225 238.359,308.775 238.359,319.500 238.300 C 330.225 238.241,321.450 238.192,300.000 238.192 C 278.550 238.192,269.775 238.241,280.500 238.300 M304.217 249.572 C 303.944 250.014,304.575 250.492,304.944 250.122 C 305.325 249.742,305.254 249.200,304.824 249.200 C 304.617 249.200,304.344 249.368,304.217 249.572 M313.852 249.684 C 313.971 249.877,313.851 250.297,313.585 250.618 C 312.691 251.696,314.578 251.290,315.525 250.200 C 316.191 249.435,316.255 249.200,315.797 249.200 C 315.469 249.200,315.200 249.470,315.200 249.800 C 315.200 250.130,315.001 250.400,314.757 250.400 C 314.514 250.400,314.407 250.160,314.519 249.867 C 314.632 249.573,314.479 249.333,314.179 249.333 C 313.880 249.333,313.733 249.491,313.852 249.684 M328.000 249.586 C 328.000 249.814,328.135 249.979,328.300 249.953 C 329.318 249.792,330.161 250.037,329.666 250.350 C 329.229 250.628,329.237 250.729,329.710 250.910 C 330.106 251.062,330.274 250.870,330.244 250.299 C 330.198 249.434,328.000 248.736,328.000 249.586 M305.100 250.639 C 304.596 251.454,305.433 252.084,306.035 251.342 C 306.346 250.960,306.390 250.772,306.134 250.926 C 305.878 251.079,305.596 250.988,305.507 250.722 C 305.408 250.423,305.253 250.391,305.100 250.639 M255.750 251.280 C 255.474 251.727,256.287 252.384,257.129 252.394 C 257.420 252.397,257.600 252.102,257.529 251.738 C 257.382 250.984,256.132 250.663,255.750 251.280 M311.863 251.683 C 311.586 252.742,311.692 252.893,312.499 252.584 C 312.871 252.440,313.032 252.045,312.909 251.574 C 312.639 250.542,312.147 250.593,311.863 251.683 M331.495 255.100 C 331.411 255.265,331.469 255.940,331.624 256.600 C 331.901 257.780,331.906 257.775,331.953 256.300 C 331.998 254.876,331.831 254.438,331.495 255.100 M255.742 259.796 C 255.746 260.763,255.882 261.473,256.043 261.374 C 256.466 261.112,257.649 262.396,257.383 262.828 C 257.259 263.027,257.438 263.084,257.779 262.953 C 258.481 262.683,258.622 262.000,257.976 262.000 C 257.743 262.000,257.664 261.820,257.800 261.600 C 257.936 261.380,257.857 261.178,257.624 261.150 C 257.391 261.123,256.975 261.077,256.700 261.049 C 256.386 261.018,256.247 260.529,256.326 259.739 C 256.395 259.046,256.291 258.380,256.094 258.258 C 255.896 258.136,255.738 258.828,255.742 259.796 M312.081 259.097 C 312.401 259.484,312.416 259.746,312.129 259.930 C 311.881 260.090,311.839 260.527,312.026 261.000 L 312.344 261.800 312.423 261.000 C 312.466 260.560,312.543 259.825,312.593 259.367 C 312.645 258.892,312.454 258.533,312.149 258.533 C 311.733 258.533,311.718 258.660,312.081 259.097 M331.245 259.861 C 330.736 260.978,331.233 262.118,331.817 261.173 C 332.015 260.853,331.959 260.778,331.662 260.962 C 331.408 261.119,331.200 261.057,331.200 260.824 C 331.200 260.591,331.342 260.400,331.515 260.400 C 331.688 260.400,331.857 260.040,331.890 259.600 C 331.970 258.532,331.823 258.592,331.245 259.861 M304.922 261.799 C 304.293 262.240,304.024 262.272,303.907 261.920 C 303.809 261.626,303.643 261.711,303.478 262.141 C 303.328 262.531,303.372 262.741,303.577 262.614 C 303.779 262.489,304.058 262.570,304.196 262.793 C 304.334 263.017,304.627 263.200,304.847 263.200 C 305.067 263.200,305.129 263.008,304.984 262.773 C 304.839 262.539,305.053 262.094,305.460 261.786 C 306.455 261.032,306.002 261.043,304.922 261.799 M314.400 262.233 C 314.400 262.508,314.175 262.824,313.900 262.935 C 313.625 263.046,313.895 263.151,314.500 263.168 C 315.105 263.186,315.600 263.009,315.600 262.776 C 315.600 262.543,315.375 262.488,315.100 262.653 C 314.702 262.892,314.701 262.829,315.094 262.343 C 315.494 261.849,315.475 261.733,314.994 261.733 C 314.667 261.733,314.400 261.958,314.400 262.233 M329.608 261.995 C 329.294 262.189,328.895 262.258,328.719 262.150 C 328.544 262.042,328.400 262.154,328.400 262.400 C 328.400 262.646,328.232 262.744,328.028 262.617 C 327.823 262.491,327.564 262.534,327.453 262.713 C 327.111 263.268,329.367 263.079,329.948 262.504 C 330.615 261.844,330.392 261.511,329.608 261.995 M44.992 268.387 C 45.301 268.886,44.015 270.057,43.504 269.741 C 42.876 269.352,43.230 270.303,43.960 270.964 C 44.666 271.603,45.699 271.165,45.040 270.507 C 44.908 270.375,44.800 270.487,44.800 270.757 C 44.800 271.027,44.610 271.130,44.379 270.987 C 44.147 270.844,44.022 270.534,44.101 270.298 C 44.292 269.725,45.600 269.554,45.600 270.102 C 45.600 270.705,46.138 270.105,46.244 269.384 C 46.291 269.058,45.964 268.595,45.517 268.356 C 44.907 268.029,44.776 268.037,44.992 268.387 M227.809 268.721 C 227.696 269.016,227.792 269.129,228.031 268.981 C 228.263 268.837,228.706 269.053,229.014 269.460 C 229.322 269.867,229.580 270.043,229.587 269.851 C 229.594 269.659,229.870 269.726,230.200 270.000 C 230.615 270.344,230.800 270.359,230.800 270.049 C 230.800 269.802,230.620 269.600,230.400 269.600 C 230.180 269.600,230.021 269.465,230.047 269.300 C 230.188 268.411,229.899 268.090,229.005 268.142 C 228.457 268.174,227.919 268.434,227.809 268.721 M231.701 275.000 C 231.705 275.880,231.787 276.193,231.883 275.695 C 231.979 275.198,231.975 274.478,231.875 274.095 C 231.775 273.713,231.696 274.120,231.701 275.000 M43.853 279.141 C 43.183 279.882,42.960 280.595,43.504 280.259 C 44.015 279.943,45.301 281.114,44.992 281.613 C 44.776 281.963,44.907 281.971,45.517 281.644 C 45.964 281.405,46.291 280.942,46.244 280.616 C 46.138 279.895,45.600 279.295,45.600 279.898 C 45.600 280.344,44.615 280.349,44.172 279.905 C 44.033 279.766,44.050 279.442,44.210 279.184 C 44.425 278.836,44.589 278.855,44.844 279.257 C 45.074 279.620,45.190 279.642,45.194 279.324 C 45.205 278.488,44.528 278.395,43.853 279.141 M230.212 279.980 C 230.065 280.218,229.776 280.309,229.570 280.181 C 229.363 280.054,229.082 280.241,228.946 280.598 C 228.809 280.954,228.459 281.155,228.169 281.043 C 227.870 280.929,227.721 281.049,227.825 281.320 C 227.926 281.584,228.457 281.826,229.005 281.858 C 229.904 281.910,230.073 281.749,229.966 280.945 C 229.947 280.804,230.167 280.544,230.454 280.366 C 230.742 280.189,230.865 279.932,230.728 279.795 C 230.592 279.659,230.360 279.742,230.212 279.980 M19.200 289.200 C 18.839 289.875,18.896 290.000,19.562 290.000 C 19.997 290.000,20.458 290.171,20.587 290.379 C 20.716 290.588,20.482 290.693,20.068 290.613 C 19.418 290.488,19.350 290.641,19.573 291.732 C 19.740 292.548,20.109 293.048,20.616 293.144 C 21.370 293.287,21.373 293.263,20.690 292.504 C 20.057 291.801,20.046 291.659,20.590 291.208 C 21.520 290.436,21.383 289.227,20.394 289.486 C 19.774 289.648,19.646 289.547,19.837 289.048 C 20.190 288.129,19.712 288.243,19.200 289.200 M379.170 288.735 C 379.154 288.881,379.065 289.405,378.973 289.900 C 378.881 290.395,378.939 290.797,379.103 290.794 C 380.312 290.769,381.036 288.759,379.900 288.581 C 379.515 288.520,379.187 288.590,379.170 288.735 M6.100 296.688 C 5.411 296.934,5.470 297.600,6.180 297.600 C 6.499 297.600,6.922 297.890,7.121 298.244 C 7.450 298.832,7.502 298.833,7.726 298.249 C 7.871 297.871,7.780 297.648,7.504 297.705 C 7.247 297.757,7.028 297.590,7.018 297.333 C 6.993 296.690,6.691 296.477,6.100 296.688 M22.230 296.849 C 22.828 297.817,23.777 298.800,24.113 298.800 C 24.297 298.800,24.306 298.575,24.134 298.300 C 23.962 298.025,23.816 297.530,23.811 297.200 C 23.805 296.870,23.375 296.540,22.856 296.466 C 22.167 296.369,21.998 296.473,22.230 296.849 M377.200 297.243 C 377.200 297.486,376.930 297.582,376.600 297.455 C 376.068 297.251,375.895 297.617,376.034 298.655 C 376.053 298.796,375.830 299.058,375.539 299.238 C 375.177 299.461,375.293 299.543,375.905 299.497 C 376.569 299.447,376.741 299.246,376.574 298.717 C 376.407 298.191,376.511 298.068,376.974 298.245 C 377.420 298.417,377.600 298.243,377.600 297.643 C 377.600 297.179,377.510 296.800,377.400 296.800 C 377.290 296.800,377.200 296.999,377.200 297.243 M392.255 299.000 C 392.386 299.340,392.265 299.600,391.976 299.600 C 391.696 299.600,391.571 299.705,391.699 299.833 C 391.827 299.961,391.677 300.675,391.366 301.420 C 390.871 302.605,390.874 302.747,391.387 302.550 C 391.710 302.426,391.959 302.206,391.940 302.062 C 391.811 301.089,392.090 300.681,392.393 301.400 C 392.639 301.984,392.726 301.686,392.714 300.300 C 392.706 299.255,392.547 298.400,392.362 298.400 C 392.177 298.400,392.129 298.670,392.255 299.000 M7.401 299.996 C 7.096 300.958,7.434 301.600,8.247 301.600 C 8.577 301.600,8.745 301.435,8.621 301.234 C 8.497 301.033,8.621 300.777,8.898 300.666 C 9.174 300.554,9.001 300.449,8.513 300.432 C 7.894 300.410,7.695 300.218,7.855 299.800 C 7.982 299.470,7.988 299.200,7.870 299.200 C 7.751 299.200,7.540 299.558,7.401 299.996 M24.300 299.474 C 24.575 299.580,24.800 300.012,24.800 300.433 C 24.800 300.921,25.078 301.200,25.562 301.200 C 26.665 301.200,25.757 299.374,24.628 299.320 C 24.173 299.299,24.025 299.368,24.300 299.474 M374.191 300.100 C 373.971 300.595,373.478 300.975,373.096 300.944 C 372.654 300.909,372.400 301.173,372.400 301.668 C 372.400 302.097,372.217 302.334,371.993 302.196 C 371.770 302.058,371.706 301.732,371.852 301.472 C 371.998 301.213,371.720 301.409,371.235 301.909 C 370.750 302.409,370.152 302.694,369.908 302.543 C 369.628 302.370,369.551 302.496,369.701 302.886 C 369.831 303.225,369.748 303.692,369.516 303.924 C 369.222 304.218,369.321 304.309,369.848 304.227 C 370.314 304.154,370.552 303.845,370.473 303.414 C 370.398 303.003,370.520 302.827,370.773 302.983 C 371.008 303.129,371.200 303.046,371.200 302.800 C 371.200 302.554,371.382 302.465,371.604 302.602 C 372.192 302.966,373.599 302.431,373.492 301.885 C 373.441 301.629,373.805 301.357,374.300 301.282 C 375.254 301.136,375.306 301.009,374.867 299.900 C 374.620 299.276,374.546 299.298,374.191 300.100 M9.200 303.606 C 9.733 303.956,9.733 304.044,9.200 304.394 C 8.660 304.748,8.908 304.972,9.700 304.847 C 9.865 304.821,10.000 305.038,10.000 305.328 C 10.000 306.377,11.892 307.656,12.125 306.765 C 12.235 306.345,12.134 305.883,11.901 305.739 C 11.636 305.575,11.596 305.670,11.794 305.990 C 12.006 306.333,11.926 306.442,11.556 306.319 C 11.250 306.217,11.000 305.775,11.000 305.338 C 11.000 304.432,9.916 303.197,9.129 303.206 C 8.737 303.211,8.756 303.315,9.200 303.606 M389.847 303.821 C 389.726 304.137,389.931 304.238,390.430 304.108 C 391.332 303.872,391.462 303.333,390.617 303.333 C 390.297 303.333,389.950 303.553,389.847 303.821 M34.640 304.640 C 34.198 305.792,34.394 306.160,35.033 305.376 C 35.547 304.745,35.626 304.727,35.453 305.280 C 35.305 305.755,35.415 305.892,35.820 305.737 C 36.618 305.431,36.546 304.906,35.640 304.421 C 35.058 304.110,34.824 304.161,34.640 304.640 M36.400 304.424 C 36.400 304.657,36.611 304.717,36.868 304.558 C 37.178 304.367,37.254 304.483,37.093 304.901 C 36.958 305.254,37.088 305.625,37.386 305.739 C 37.951 305.956,37.990 305.340,37.465 304.500 C 37.084 303.890,36.400 303.841,36.400 304.424 M362.535 304.500 C 362.010 305.340,362.049 305.956,362.614 305.739 C 362.912 305.625,363.042 305.254,362.907 304.901 C 362.746 304.483,362.822 304.367,363.132 304.558 C 363.389 304.717,363.600 304.657,363.600 304.424 C 363.600 303.841,362.916 303.890,362.535 304.500 M364.300 304.432 C 363.449 304.928,363.402 305.438,364.180 305.737 C 364.569 305.886,364.685 305.767,364.535 305.375 C 364.377 304.962,364.501 304.864,364.960 305.040 C 365.439 305.224,365.544 305.120,365.362 304.645 C 365.226 304.290,365.089 304.005,365.057 304.012 C 365.026 304.019,364.685 304.208,364.300 304.432 M389.367 305.743 C 389.228 306.104,388.864 306.400,388.557 306.400 C 388.251 306.400,388.000 306.591,388.000 306.824 C 388.000 307.057,387.775 307.120,387.500 306.965 C 387.184 306.787,387.202 306.888,387.550 307.241 C 387.976 307.674,388.141 307.687,388.283 307.300 C 388.384 307.025,388.702 306.800,388.991 306.800 C 389.534 306.800,390.170 305.637,389.819 305.285 C 389.709 305.175,389.505 305.381,389.367 305.743 M12.224 308.587 C 13.152 309.289,14.000 309.370,14.000 308.757 C 14.000 308.514,13.736 308.416,13.413 308.540 C 13.090 308.664,12.719 308.593,12.589 308.383 C 12.459 308.172,12.149 308.000,11.900 308.000 C 11.651 308.000,11.796 308.264,12.224 308.587 M386.135 309.060 C 385.402 309.822,385.356 310.032,385.835 310.429 C 386.288 310.805,386.400 310.746,386.400 310.129 C 386.400 309.706,386.613 309.147,386.873 308.887 C 387.134 308.626,387.269 308.356,387.173 308.286 C 387.078 308.217,386.611 308.565,386.135 309.060 M383.578 310.674 C 384.086 311.726,384.116 312.119,383.667 311.841 C 383.483 311.728,383.333 311.886,383.333 312.193 C 383.333 312.591,383.642 312.501,384.415 311.875 C 385.009 311.394,385.409 310.849,385.303 310.665 C 385.197 310.481,384.920 310.520,384.689 310.751 C 384.394 311.046,384.101 310.966,383.712 310.486 C 383.214 309.871,383.200 309.891,383.578 310.674 M376.146 316.198 C 376.019 316.526,375.755 316.696,375.558 316.574 C 375.361 316.452,375.200 316.618,375.200 316.943 C 375.200 317.268,374.975 317.624,374.700 317.735 C 374.425 317.846,374.725 317.951,375.367 317.968 C 376.008 317.986,376.425 317.891,376.292 317.759 C 376.160 317.626,376.215 317.086,376.416 316.559 C 376.616 316.031,376.689 315.600,376.578 315.600 C 376.466 315.600,376.272 315.869,376.146 316.198 M24.188 316.722 C 23.371 317.307,23.620 318.000,24.649 318.000 C 25.585 318.000,25.640 317.925,25.162 317.300 C 24.867 316.915,24.615 316.565,24.602 316.522 C 24.588 316.479,24.402 316.569,24.188 316.722 M373.811 317.022 C 373.378 317.349,372.795 317.530,372.517 317.424 C 372.181 317.294,372.039 317.567,372.095 318.237 C 372.166 319.094,372.246 319.152,372.633 318.622 C 372.883 318.280,373.250 318.000,373.448 318.000 C 373.646 318.000,374.032 317.640,374.307 317.200 C 374.898 316.254,374.850 316.236,373.811 317.022 M25.872 317.442 C 25.989 317.749,26.262 318.000,26.479 318.000 C 26.695 318.000,27.229 318.405,27.666 318.900 C 28.103 319.395,28.317 319.530,28.141 319.200 C 27.965 318.870,27.816 318.343,27.811 318.030 C 27.805 317.716,27.318 317.330,26.729 317.172 C 25.901 316.950,25.706 317.012,25.872 317.442 M369.952 318.455 C 369.730 319.503,370.361 319.814,371.088 319.014 C 371.260 318.826,371.188 318.793,370.929 318.942 C 370.637 319.109,370.403 318.866,370.317 318.306 C 370.184 317.451,370.163 317.460,369.952 318.455 M32.497 319.140 C 32.241 319.298,32.862 319.464,33.877 319.508 C 34.891 319.552,35.649 319.527,35.561 319.451 C 35.159 319.110,32.915 318.882,32.497 319.140 " stroke="none" fill="#0454ac" fill-rule="evenodd"></path></g></svg>